<?xml version="1.0" encoding="UTF-8" standalone="no"?><svg xmlns="http://www.w3.org/2000/svg" xmlns:xlink="http://www.w3.org/1999/xlink" contentScriptType="text/ecmascript" fill="#000000" width="456.5" zoomAndPan="magnify" contentStyleType="text/css" viewBox="0.0 0.0 456.5 313.5" height="313.5" preserveAspectRatio="xMidYMid meet" version="1"><g><g id="change1_1"><path fill="#f1f1f1" d="M87.002,312.798h27.628c0,0-0.904-3.486-6.455-4.648c-2.308-0.483-6.584-0.387-8.133-4.777 c-1.169-3.312,0.809-9.812,0.809-9.812H90.264L87.002,312.798z"/></g><g id="change2_7"><path d="M114.63,313.198H87.002c-0.118,0-0.229-0.053-0.306-0.143s-0.108-0.209-0.089-0.324l3.262-19.236 c0.033-0.192,0.199-0.334,0.395-0.334h10.587c0.127,0,0.246,0.061,0.321,0.162s0.099,0.233,0.062,0.354 c-0.02,0.064-1.927,6.413-0.815,9.562c1.234,3.496,4.234,3.951,6.645,4.316c0.434,0.066,0.837,0.127,1.194,0.202 c5.728,1.199,6.721,4.786,6.76,4.938c0.031,0.12,0.006,0.247-0.07,0.346C114.87,313.141,114.754,313.198,114.63,313.198z M87.476,312.397h26.565c-0.472-0.958-1.928-3.014-5.948-3.855c-0.344-0.072-0.732-0.131-1.149-0.194 c-2.344-0.355-5.886-0.893-7.279-4.842c-1.017-2.88,0.209-7.914,0.656-9.544h-9.719L87.476,312.397z"/></g><g id="change1_2"><path fill="#f1f1f1" d="M87.359 311.039L113.239 311.039"/></g><g id="change2_8"><path d="M113.239,311.439h-25.88c-0.221,0-0.4-0.18-0.4-0.4s0.18-0.4,0.4-0.4h25.88c0.221,0,0.4,0.18,0.4,0.4 S113.46,311.439,113.239,311.439z"/></g><g id="change1_3"><path fill="#f1f1f1" d="M120.397,313.077h27.628c0,0-0.904-3.486-6.455-4.648c-2.308-0.483-6.584-0.387-8.133-4.777 c-1.169-3.312,0.809-9.812,0.809-9.812h-10.586L120.397,313.077z"/></g><g id="change2_9"><path d="M148.024,313.478h-27.627c-0.118,0-0.229-0.053-0.306-0.143s-0.108-0.209-0.089-0.324l3.262-19.236 c0.033-0.192,0.199-0.334,0.395-0.334h10.586c0.127,0,0.246,0.061,0.321,0.162s0.099,0.233,0.062,0.354 c-0.02,0.063-1.926,6.413-0.814,9.562c1.233,3.496,4.233,3.951,6.645,4.316c0.433,0.066,0.836,0.127,1.193,0.202 c5.729,1.198,6.721,4.786,6.761,4.938c0.03,0.12,0.004,0.247-0.071,0.346C148.265,313.42,148.148,313.478,148.024,313.478z M120.871,312.677h26.564c-0.472-0.958-1.927-3.015-5.948-3.855c-0.344-0.072-0.732-0.131-1.149-0.194 c-2.344-0.355-5.885-0.893-7.278-4.842c-1.017-2.88,0.209-7.914,0.655-9.544h-9.718L120.871,312.677z"/></g><g id="change1_4"><path fill="#f1f1f1" d="M120.754 311.318L146.635 311.318"/></g><g id="change2_10"><path d="M146.635,311.718h-25.881c-0.221,0-0.4-0.18-0.4-0.4s0.18-0.4,0.4-0.4h25.881c0.221,0,0.4,0.18,0.4,0.4 S146.855,311.718,146.635,311.718z"/></g><g id="change1_5"><path fill="#f1f1f1" d="M360.49,306.751h-27.628c0,0,0.904-3.486,6.455-4.648c2.308-0.483,6.584-0.387,8.133-4.777 c1.169-3.312-0.809-9.812-0.809-9.812h10.586L360.49,306.751z"/></g><g id="change2_11"><path d="M360.489,307.151h-27.628c-0.124,0-0.24-0.058-0.316-0.155c-0.076-0.099-0.102-0.226-0.07-0.346 c0.039-0.152,1.032-3.739,6.76-4.938c0.357-0.075,0.762-0.136,1.194-0.202c2.411-0.365,5.411-0.819,6.645-4.315 c1.111-3.149-0.796-9.499-0.815-9.563c-0.037-0.121-0.014-0.253,0.062-0.354s0.194-0.162,0.321-0.162h10.587 c0.195,0,0.361,0.142,0.395,0.334l3.262,19.236c0.02,0.115-0.013,0.234-0.089,0.324S360.607,307.151,360.489,307.151z M333.45,306.351h26.565l-3.126-18.436h-9.719c0.447,1.63,1.673,6.665,0.656,9.545c-1.393,3.949-4.935,4.485-7.278,4.841 c-0.417,0.063-0.806,0.122-1.15,0.194C335.378,303.337,333.922,305.393,333.45,306.351z"/></g><g id="change1_6"><path fill="#f1f1f1" d="M360.132 304.992L334.252 304.992"/></g><g id="change2_12"><path d="M360.132,305.393h-25.88c-0.221,0-0.4-0.18-0.4-0.4s0.18-0.4,0.4-0.4h25.88c0.221,0,0.4,0.18,0.4,0.4 S360.353,305.393,360.132,305.393z"/></g><g id="change1_7"><path fill="#f1f1f1" d="M325.048,288.054H297.42c0,0,0.904-3.486,6.455-4.648c2.308-0.483,6.584-0.387,8.133-4.777 c1.169-3.312-0.809-9.812-0.809-9.812h10.586L325.048,288.054z"/></g><g id="change2_13"><path d="M325.048,288.454H297.42c-0.124,0-0.24-0.058-0.316-0.155c-0.076-0.099-0.102-0.226-0.07-0.346 c0.039-0.152,1.031-3.739,6.76-4.938c0.357-0.075,0.761-0.136,1.193-0.202c2.411-0.365,5.411-0.82,6.646-4.316 c1.111-3.149-0.796-9.498-0.815-9.562c-0.037-0.121-0.014-0.253,0.062-0.354s0.194-0.162,0.321-0.162h10.586 c0.195,0,0.361,0.142,0.395,0.334l3.263,19.236c0.02,0.115-0.013,0.234-0.089,0.324S325.166,288.454,325.048,288.454z M298.009,287.653h26.565l-3.127-18.436h-9.718c0.447,1.63,1.673,6.664,0.656,9.544c-1.394,3.949-4.936,4.486-7.279,4.842 c-0.417,0.063-0.806,0.122-1.149,0.194C299.937,284.64,298.48,286.695,298.009,287.653z"/></g><g id="change1_8"><path fill="#f1f1f1" d="M324.69 286.295L298.81 286.295"/></g><g id="change2_14"><path d="M324.69,286.695H298.81c-0.221,0-0.4-0.18-0.4-0.4s0.18-0.4,0.4-0.4h25.881c0.221,0,0.4,0.18,0.4,0.4 S324.911,286.695,324.69,286.695z"/></g><g id="change2_15"><path d="M185.996,300.288h-7.398c-1.226,0-2.229-1.003-2.229-2.229l0,0c0-1.226,1.003-2.229,2.229-2.229h7.398 c1.226,0,2.229,1.003,2.229,2.229l0,0C188.225,299.285,187.222,300.288,185.996,300.288z"/></g><g id="change2_16"><path d="M185.996,300.688h-7.398c-1.449,0-2.629-1.18-2.629-2.629c0-1.45,1.18-2.63,2.629-2.63h7.398 c1.449,0,2.629,1.18,2.629,2.63C188.625,299.509,187.445,300.688,185.996,300.688z M178.598,296.23 c-1.008,0-1.828,0.82-1.828,1.829c0,1.008,0.82,1.828,1.828,1.828h7.398c1.008,0,1.828-0.82,1.828-1.828 c0-1.009-0.82-1.829-1.828-1.829H178.598z"/></g><g id="change3_1"><path fill="#5c84f7" d="M331.291,307.9H317.81c-3.604,0-6.553-2.949-6.553-6.553v-6.575c0-3.604,2.949-6.553,6.553-6.553h13.481 c3.604,0,6.553,2.949,6.553,6.553v6.575C337.844,304.951,334.895,307.9,331.291,307.9z"/></g><g id="change2_17"><path d="M331.291,308.3H317.81c-3.834,0-6.953-3.119-6.953-6.953v-6.575c0-3.834,3.119-6.953,6.953-6.953h13.481 c3.834,0,6.953,3.119,6.953,6.953v6.575C338.244,305.181,335.125,308.3,331.291,308.3z M317.81,288.619 c-3.393,0-6.152,2.76-6.152,6.152v6.575c0,3.393,2.76,6.152,6.152,6.152h13.481c3.393,0,6.152-2.76,6.152-6.152v-6.575 c0-3.393-2.76-6.152-6.152-6.152H317.81z"/></g><g id="change1_9"><path fill="#f1f1f1" d="M197.328 288.219H321.804V307.9H197.328z"/></g><g id="change2_18"><path d="M321.804,308.3H197.328c-0.221,0-0.4-0.18-0.4-0.4v-19.681c0-0.221,0.18-0.4,0.4-0.4h124.476c0.221,0,0.4,0.18,0.4,0.4 v19.681C322.204,308.12,322.024,308.3,321.804,308.3z M197.729,307.499h123.675v-18.88H197.729V307.499z"/></g><g id="change4_1"><path fill="#f1f1f1" d="M309.762 288.219H323.098V307.911H309.762z"/></g><g id="change2_19"><path d="M323.098,308.311h-13.336c-0.221,0-0.4-0.18-0.4-0.4v-19.691c0-0.221,0.18-0.4,0.4-0.4h13.336c0.221,0,0.4,0.18,0.4,0.4 v19.691C323.498,308.131,323.318,308.311,323.098,308.311z M310.162,307.51h12.535v-18.891h-12.535V307.51z"/></g><g id="change4_2"><path fill="#f1f1f1" d="M183.247 295.635L183.247 300.484 197.328 307.9 197.328 288.219z"/></g><g id="change2_20"><path d="M197.328,308.3c-0.063,0-0.128-0.016-0.187-0.047l-14.081-7.416c-0.131-0.068-0.214-0.205-0.214-0.354v-4.849 c0-0.148,0.083-0.285,0.214-0.354l14.081-7.416c0.125-0.066,0.273-0.062,0.394,0.011s0.193,0.203,0.193,0.343v19.681 c0,0.14-0.073,0.271-0.193,0.343C197.472,308.28,197.399,308.3,197.328,308.3z M183.647,300.242l13.28,6.994v-18.354l-13.28,6.994 V300.242z"/></g><g id="change1_10"><path fill="#f1f1f1" d="M0.4 103.566H26.875999999999998V227.149H0.4z"/></g><g id="change2_21"><path d="M26.876,227.55H0.4c-0.221,0-0.4-0.18-0.4-0.4V103.566c0-0.221,0.18-0.4,0.4-0.4h26.476c0.221,0,0.4,0.18,0.4,0.4v123.583 C27.276,227.37,27.097,227.55,26.876,227.55z M0.801,226.749h25.675V103.967H0.801V226.749z"/></g><g id="change4_3"><path fill="#f1f1f1" d="M26.876 103.566H31.849V227.149H26.876z" transform="rotate(-180 29.363 165.358)"/></g><g id="change2_22"><path d="M31.85,227.55h-4.974c-0.221,0-0.4-0.18-0.4-0.4V103.566c0-0.221,0.18-0.4,0.4-0.4h4.974c0.221,0,0.4,0.18,0.4,0.4v123.583 C32.25,227.37,32.07,227.55,31.85,227.55z M27.276,226.749h4.173V103.967h-4.173V226.749z"/></g><g id="change4_4"><path fill="#f1f1f1" d="M58.325 103.566H113.775V227.149H58.325z" transform="rotate(-180 86.05 165.358)"/></g><g id="change2_23"><path d="M113.774,227.55H58.325c-0.221,0-0.4-0.18-0.4-0.4V103.566c0-0.221,0.18-0.4,0.4-0.4h55.449c0.221,0,0.4,0.18,0.4,0.4 v123.583C114.175,227.37,113.995,227.55,113.774,227.55z M58.726,226.749h54.648V103.967H58.726V226.749z"/></g><g id="change1_11"><path fill="#f1f1f1" d="M31.849 103.566H58.325V227.149H31.849z"/></g><g id="change2_24"><path d="M58.325,227.55H31.85c-0.221,0-0.4-0.18-0.4-0.4V103.566c0-0.221,0.18-0.4,0.4-0.4h26.476c0.221,0,0.4,0.18,0.4,0.4 v123.583C58.726,227.37,58.546,227.55,58.325,227.55z M32.25,226.749h25.675V103.967H32.25V226.749z"/></g><g id="change1_12"><path fill="#f1f1f1" d="M375.461,111.772h0.052l-0.054-0.054v-10.69h18.357v10.69l-0.054,0.054h0.052 c-0.029,5.083-4.109,9.2-9.176,9.299C379.57,120.972,375.49,116.855,375.461,111.772z"/></g><g id="change2_25"><path d="M384.645,121.472c-5.35-0.104-9.553-4.363-9.584-9.697c0-0.007,0.001-0.014,0.001-0.021 c-0.002-0.013-0.004-0.024-0.004-0.036v-10.69c0-0.221,0.18-0.4,0.4-0.4h18.356c0.221,0,0.4,0.18,0.4,0.4v10.69 c0,0.017-0.001,0.033-0.003,0.049c0,0.003,0,0.006,0,0.008C394.182,117.108,389.979,121.367,384.645,121.472z M375.862,111.879 c0.084,4.845,3.921,8.698,8.782,8.792c4.836-0.094,8.667-3.932,8.766-8.763c-0.042-0.11-0.045-0.23,0.004-0.33v-10.15h-17.556 v10.205C375.884,111.715,375.888,111.802,375.862,111.879z"/></g><g id="change1_13"><path fill="#f1f1f1" d="M367.267,42.535H228.56c-5.153,0-9.331,4.163-9.36,9.309h0.052l-0.054,0.054v34.948h0.035v24.872 l-0.054,0.054h0.052c-0.03,5.146-4.208,9.309-9.36,9.309h138.706c5.153,0,9.331-4.163,9.36-9.309h-0.052l0.054-0.054V76.77h-0.035 V51.898l0.054-0.054h-0.052C357.936,46.698,362.114,42.535,367.267,42.535z"/></g><g id="change2_26"><path d="M348.575,121.48H209.869c-0.221,0-0.4-0.18-0.4-0.4s0.18-0.4,0.4-0.4c4.866,0,8.856-3.921,8.959-8.771 c-0.042-0.11-0.045-0.232,0.004-0.333V86.998c-0.022-0.047-0.035-0.099-0.035-0.152V51.897c0-0.017,0.001-0.033,0.003-0.049 c0-0.002,0-0.005,0-0.007c0.031-5.353,4.409-9.707,9.761-9.707h138.706c0.221,0,0.4,0.18,0.4,0.4s-0.18,0.4-0.4,0.4 c-4.865,0-8.855,3.922-8.958,8.771c0.041,0.11,0.045,0.23-0.004,0.331v24.581c0.021,0.047,0.034,0.098,0.034,0.15v34.948 c0,0.017-0.001,0.033-0.003,0.049c0,0.003,0,0.006,0,0.008C358.305,117.126,353.927,121.48,348.575,121.48z M213.731,120.68 h134.844c4.866,0,8.856-3.921,8.959-8.771c-0.042-0.11-0.045-0.232,0.004-0.333V76.92c-0.021-0.047-0.034-0.098-0.034-0.15V51.898 c0-0.015,0.001-0.028,0.003-0.043c-0.001-0.005-0.001-0.01-0.001-0.014c0.023-3.982,2.453-7.411,5.898-8.906H228.561 c-4.866,0-8.856,3.922-8.959,8.771c0.042,0.11,0.045,0.232-0.004,0.332v34.654c0.022,0.047,0.035,0.099,0.035,0.152v24.872 c0,0.017-0.001,0.033-0.003,0.049c0,0.003,0,0.006,0,0.008C219.606,115.756,217.178,119.186,213.731,120.68z"/></g><g id="change2_27"><path d="M228.56,42.535h-1.137c0.192,0,0.379,0.017,0.568,0.029C228.181,42.552,228.368,42.535,228.56,42.535z"/></g><g id="change2_28"><path d="M228.015,42.963l-0.209-0.011c-0.126-0.008-0.253-0.017-0.382-0.017c-0.221,0-0.4-0.18-0.4-0.4s0.18-0.4,0.4-0.4h1.137 c0.221,0,0.4,0.18,0.4,0.4s-0.18,0.4-0.4,0.4c-0.13,0-0.257,0.009-0.385,0.017L228.015,42.963z"/></g><g id="change2_29"><path d="M375.461,111.772h0.052l-0.054-0.054V86.846h0.035V51.898l-0.054-0.054h0.052c-0.028-4.954-3.905-8.986-8.792-9.28 c-4.887,0.294-8.763,4.326-8.792,9.28h0.052l-0.054,0.054V76.77h0.035v34.948l-0.054,0.054h0.052 c-0.03,5.146-4.207,9.309-9.36,9.309h36.245C379.668,121.081,375.49,116.918,375.461,111.772z"/></g><g id="change2_30"><path d="M384.821,121.48h-36.246c-0.221,0-0.4-0.18-0.4-0.4s0.18-0.4,0.4-0.4c4.866,0,8.856-3.922,8.959-8.771 c-0.042-0.11-0.045-0.232,0.004-0.333V76.922c-0.022-0.047-0.035-0.099-0.035-0.152V51.898c0-0.017,0.001-0.033,0.003-0.049 c0-0.003,0-0.006,0-0.008c0.03-5.118,4.058-9.369,9.168-9.678c5.16,0.309,9.188,4.56,9.217,9.678c0,0.006,0,0.013-0.001,0.02 c0.002,0.013,0.004,0.024,0.004,0.036v34.948c0,0.059-0.013,0.114-0.035,0.164v24.623c0.025,0.082,0.029,0.169,0.004,0.246 c0.086,4.863,4.082,8.801,8.959,8.801c0.221,0,0.4,0.18,0.4,0.4S385.042,121.48,384.821,121.48z M352.438,120.68h28.521 c-3.446-1.494-5.875-4.924-5.898-8.905c0-0.007,0.001-0.014,0.001-0.021c-0.002-0.013-0.004-0.024-0.004-0.036V86.846 c0-0.059,0.013-0.114,0.035-0.164V51.983c-0.025-0.082-0.029-0.17-0.004-0.246c-0.083-4.649-3.759-8.493-8.415-8.774 c-4.597,0.28-8.267,4.108-8.365,8.744c0.041,0.111,0.044,0.232-0.005,0.333v24.577c0.022,0.047,0.035,0.099,0.035,0.152v34.948 c0,0.017-0.001,0.033-0.003,0.049c0,0.003,0,0.006,0,0.008C358.312,115.756,355.884,119.186,352.438,120.68z"/></g><g id="change1_14"><path fill="#f1f1f1" d="M346.533,29.202c1.327,0,2.406,1.032,2.406,2.301v118.096H110.373V31.503c0-1.269,1.079-2.301,2.406-2.301 H346.533"/></g><g id="change2_31"><path d="M348.939,149.999H110.373c-0.221,0-0.4-0.18-0.4-0.4V31.503c0-1.489,1.26-2.701,2.807-2.701h233.754 c1.547,0,2.807,1.212,2.807,2.701v118.096C349.34,149.819,349.16,149.999,348.939,149.999z M110.773,149.198h237.766V31.503 c0-1.048-0.899-1.9-2.006-1.9H112.779c-1.106,0-2.006,0.853-2.006,1.9V149.198z"/></g><g id="change4_5"><path fill="#f1f1f1" d="M253.345 222.272L205.39 222.272 212.145 174.317 246.591 174.317z"/></g><g id="change2_32"><path d="M253.346,222.672h-47.955c-0.116,0-0.226-0.051-0.302-0.138c-0.076-0.088-0.11-0.204-0.095-0.318l6.754-47.955 c0.028-0.197,0.197-0.345,0.396-0.345h34.446c0.199,0,0.368,0.147,0.396,0.345l6.755,47.955c0.016,0.114-0.019,0.23-0.095,0.318 C253.571,222.621,253.462,222.672,253.346,222.672z M205.851,221.871h47.035l-6.643-47.154h-33.751L205.851,221.871z"/></g><g id="change4_6"><path fill="#f1f1f1" d="M184.687 222.272H274.049V227.14999999999998H184.687z"/></g><g id="change2_33"><path d="M274.049,227.55h-89.362c-0.221,0-0.4-0.18-0.4-0.4v-4.878c0-0.221,0.18-0.4,0.4-0.4h89.362c0.221,0,0.4,0.18,0.4,0.4 v4.878C274.449,227.37,274.27,227.55,274.049,227.55z M185.087,226.749h88.562v-4.077h-88.562V226.749z"/></g><g id="change4_7"><path fill="#f1f1f1" d="M348.94,36.669v-5.224c0-5.715-4.633-10.348-10.348-10.348H120.721c-5.715,0-10.348,4.633-10.348,10.348 v5.224H348.94z"/></g><g id="change2_34"><path d="M348.939,37.069H110.373c-0.221,0-0.4-0.18-0.4-0.4v-5.224c0-5.927,4.822-10.749,10.748-10.749h217.871 c5.926,0,10.748,4.822,10.748,10.749v5.224C349.34,36.89,349.16,37.069,348.939,37.069z M110.773,36.269h237.766v-4.823 c0-5.485-4.462-9.948-9.947-9.948H120.721c-5.485,0-9.947,4.463-9.947,9.948V36.269z"/></g><g id="change4_8"><path fill="#f1f1f1" d="M110.373,148.483v26.476c0,6.359,5.155,11.514,11.514,11.514h215.538c6.359,0,11.514-5.155,11.514-11.514 v-26.476H110.373z"/></g><g id="change2_35"><path d="M337.426,186.873H121.887c-6.569,0-11.914-5.345-11.914-11.914v-26.476c0-0.221,0.18-0.4,0.4-0.4h238.566 c0.221,0,0.4,0.18,0.4,0.4v26.476C349.34,181.528,343.995,186.873,337.426,186.873z M110.773,148.884v26.075 c0,6.128,4.985,11.113,11.113,11.113h215.539c6.128,0,11.113-4.985,11.113-11.113v-26.075H110.773z"/></g><g id="change2_36"><path d="M308.528,0.401c5.153,0,9.33,4.163,9.36,9.309v11.388h-18.72V9.709C299.198,4.563,303.376,0.401,308.528,0.401z"/></g><g id="change2_37"><path d="M317.889,21.497h-18.721c-0.221,0-0.4-0.18-0.4-0.4V9.709C298.8,4.354,303.178,0,308.528,0s9.729,4.354,9.761,9.707v11.39 C318.289,21.317,318.109,21.497,317.889,21.497z M299.568,20.696h17.92V9.709c-0.028-4.911-4.048-8.908-8.96-8.908 s-8.932,3.997-8.96,8.91V20.696z"/></g><g id="change1_15"><path fill="#f1f1f1" d="M160.513,9.709h-0.052c0.03-5.146,4.208-9.309,9.36-9.309h138.706c-5.153,0-9.331,4.163-9.36,9.309h0.052 l-0.054,0.054v138.72H160.459V9.763L160.513,9.709z"/></g><g id="change2_38"><path d="M299.165,148.884H160.459c-0.221,0-0.4-0.18-0.4-0.4V9.764c0-0.017,0.001-0.032,0.003-0.049c0-0.003,0-0.006,0-0.008 C160.093,4.354,164.471,0,169.822,0h138.706c0.221,0,0.4,0.18,0.4,0.4s-0.18,0.4-0.4,0.4c-4.865,0-8.855,3.922-8.958,8.771 c0.041,0.11,0.044,0.232-0.005,0.333v138.578C299.565,148.704,299.386,148.884,299.165,148.884z M160.859,148.083h137.905V9.764 c0-0.017,0.001-0.033,0.003-0.049c0-0.003,0-0.006,0-0.008c0.023-3.982,2.453-7.411,5.898-8.906H169.822 c-4.866,0-8.856,3.922-8.959,8.771c0.042,0.11,0.045,0.232-0.004,0.333V148.083z"/></g><g><defs><g id="change2_4"><path id="a" d="M174.209 12.785H196.767V41.301H174.209z"/></g></defs><defs><g id="change2_5"><path id="b" d="M196.768,41.701h-22.559c-0.221,0-0.4-0.18-0.4-0.4 V12.785c0-0.221,0.18-0.4,0.4-0.4h22.559c0.221,0,0.4,0.18,0.4,0.4v28.516C197.168,41.521,196.988,41.701,196.768,41.701z M174.609,40.9h21.758V13.186h-21.758V40.9z"/></g></defs><use fill="#f1f1f1" xlink:href="#a" xlink:type="simple" xlink:actuate="onLoad" xlink:show="embed" overflow="visible"/><use overflow="visible" xlink:actuate="onLoad" xlink:type="simple" xlink:show="embed" xlink:href="#b"/><clipPath id="c"><use overflow="visible" xlink:actuate="onLoad" xlink:type="simple" xlink:show="embed" xlink:href="#a"/></clipPath></g><g id="change2_39"><path d="M246.326,25.734h-8.627c-0.221,0-0.4-0.18-0.4-0.4s0.18-0.4,0.4-0.4h8.627c0.221,0,0.4,0.18,0.4,0.4 S246.547,25.734,246.326,25.734z"/></g><g id="change2_40"><path d="M232.862,25.734h-27.693c-0.221,0-0.4-0.18-0.4-0.4s0.18-0.4,0.4-0.4h27.693c0.221,0,0.4,0.18,0.4,0.4 S233.083,25.734,232.862,25.734z"/></g><g id="change2_41"><path d="M266.351,18.371h-44.651c-0.221,0-0.4-0.18-0.4-0.4s0.18-0.4,0.4-0.4h44.651c0.221,0,0.4,0.18,0.4,0.4 S266.571,18.371,266.351,18.371z"/></g><g id="change2_42"><path d="M213.885,18.371h-8.558c-0.221,0-0.4-0.18-0.4-0.4s0.18-0.4,0.4-0.4h8.558c0.221,0,0.4,0.18,0.4,0.4 S214.105,18.371,213.885,18.371z"/></g><g id="change2_43"><path d="M259.839,31.022h-34.977c-0.221,0-0.4-0.18-0.4-0.4s0.18-0.4,0.4-0.4h34.977c0.221,0,0.4,0.18,0.4,0.4 S260.06,31.022,259.839,31.022z"/></g><g id="change2_44"><path d="M217.606,31.022h-12.466c-0.221,0-0.4-0.18-0.4-0.4s0.18-0.4,0.4-0.4h12.466c0.221,0,0.4,0.18,0.4,0.4 S217.827,31.022,217.606,31.022z"/></g><g id="change2_45"><path d="M250.536,36.046h-10.604c-0.221,0-0.4-0.18-0.4-0.4s0.18-0.4,0.4-0.4h10.604c0.221,0,0.4,0.18,0.4,0.4 S250.757,36.046,250.536,36.046z"/></g><g id="change2_46"><path d="M232.304,36.046h-26.977c-0.221,0-0.4-0.18-0.4-0.4s0.18-0.4,0.4-0.4h26.977c0.221,0,0.4,0.18,0.4,0.4 S232.524,36.046,232.304,36.046z"/></g><g id="change1_16"><path fill="#f1f1f1" d="M276.025 22.622H286.258V33.041H276.025z"/></g><g id="change2_47"><path d="M286.257,33.441h-10.232c-0.221,0-0.4-0.18-0.4-0.4V22.622c0-0.221,0.18-0.4,0.4-0.4h10.232c0.221,0,0.4,0.18,0.4,0.4 v10.419C286.657,33.262,286.478,33.441,286.257,33.441z M276.425,32.641h9.432v-9.618h-9.432V32.641z"/></g><g id="change2_48"><path d="M286.22,53.314H174.209c-0.221,0-0.4-0.18-0.4-0.4s0.18-0.4,0.4-0.4H286.22c0.221,0,0.4,0.18,0.4,0.4 S286.44,53.314,286.22,53.314z"/></g><g><defs><g id="change2_6"><path id="d" d="M174.209 61.157H196.767V89.673H174.209z"/></g></defs><defs><g id="change2_1"><path id="e" d="M196.768,90.073h-22.559c-0.221,0-0.4-0.18-0.4-0.4 V61.157c0-0.221,0.18-0.4,0.4-0.4h22.559c0.221,0,0.4,0.18,0.4,0.4v28.516C197.168,89.894,196.988,90.073,196.768,90.073z M174.609,89.272h21.758V61.558h-21.758V89.272z"/></g></defs><use fill="#5c84f7" xlink:href="#d" xlink:type="simple" xlink:actuate="onLoad" xlink:show="embed" overflow="visible"/><use overflow="visible" xlink:actuate="onLoad" xlink:type="simple" xlink:show="embed" xlink:href="#e"/><clipPath id="f"><use overflow="visible" xlink:actuate="onLoad" xlink:type="simple" xlink:show="embed" xlink:href="#d"/></clipPath></g><g id="change2_49"><path d="M246.326,74.106h-8.627c-0.221,0-0.4-0.18-0.4-0.4s0.18-0.4,0.4-0.4h8.627c0.221,0,0.4,0.18,0.4,0.4 S246.547,74.106,246.326,74.106z"/></g><g id="change2_50"><path d="M232.862,74.106h-27.693c-0.221,0-0.4-0.18-0.4-0.4s0.18-0.4,0.4-0.4h27.693c0.221,0,0.4,0.18,0.4,0.4 S233.083,74.106,232.862,74.106z"/></g><g id="change2_51"><path d="M266.351,66.743h-44.651c-0.221,0-0.4-0.18-0.4-0.4s0.18-0.4,0.4-0.4h44.651c0.221,0,0.4,0.18,0.4,0.4 S266.571,66.743,266.351,66.743z"/></g><g id="change2_52"><path d="M213.885,66.743h-8.558c-0.221,0-0.4-0.18-0.4-0.4s0.18-0.4,0.4-0.4h8.558c0.221,0,0.4,0.18,0.4,0.4 S214.105,66.743,213.885,66.743z"/></g><g id="change2_53"><path d="M259.839,79.395h-34.977c-0.221,0-0.4-0.18-0.4-0.4s0.18-0.4,0.4-0.4h34.977c0.221,0,0.4,0.18,0.4,0.4 S260.06,79.395,259.839,79.395z"/></g><g id="change2_54"><path d="M217.606,79.395h-12.466c-0.221,0-0.4-0.18-0.4-0.4s0.18-0.4,0.4-0.4h12.466c0.221,0,0.4,0.18,0.4,0.4 S217.827,79.395,217.606,79.395z"/></g><g id="change2_55"><path d="M250.536,84.418h-10.604c-0.221,0-0.4-0.18-0.4-0.4s0.18-0.4,0.4-0.4h10.604c0.221,0,0.4,0.18,0.4,0.4 S250.757,84.418,250.536,84.418z"/></g><g id="change2_56"><path d="M232.304,84.418h-26.977c-0.221,0-0.4-0.18-0.4-0.4s0.18-0.4,0.4-0.4h26.977c0.221,0,0.4,0.18,0.4,0.4 S232.524,84.418,232.304,84.418z"/></g><g id="change1_17"><path fill="#f1f1f1" d="M276.025 70.994H286.258V81.413H276.025z"/></g><g id="change2_57"><path d="M286.257,81.813h-10.232c-0.221,0-0.4-0.18-0.4-0.4V70.994c0-0.221,0.18-0.4,0.4-0.4h10.232c0.221,0,0.4,0.18,0.4,0.4 v10.419C286.657,81.634,286.478,81.813,286.257,81.813z M276.425,81.013h9.432v-9.618h-9.432V81.013z"/></g><g><defs><g id="change2_3"><path id="g" d="M174.209 107.483H196.767V135.999H174.209z"/></g></defs><defs><g id="change2_2"><path id="h" d="M196.768,136.398h-22.559c-0.221,0-0.4-0.18-0.4-0.4 v-28.516c0-0.221,0.18-0.4,0.4-0.4h22.559c0.221,0,0.4,0.18,0.4,0.4v28.516C197.168,136.219,196.988,136.398,196.768,136.398z M174.609,135.598h21.758v-27.715h-21.758V135.598z"/></g></defs><use fill="#f1f1f1" xlink:href="#g" xlink:type="simple" xlink:actuate="onLoad" xlink:show="embed" overflow="visible"/><use overflow="visible" xlink:actuate="onLoad" xlink:type="simple" xlink:show="embed" xlink:href="#h"/><clipPath id="i"><use overflow="visible" xlink:actuate="onLoad" xlink:type="simple" xlink:show="embed" xlink:href="#g"/></clipPath></g><g id="change2_58"><path d="M246.326,120.433h-8.627c-0.221,0-0.4-0.18-0.4-0.4s0.18-0.4,0.4-0.4h8.627c0.221,0,0.4,0.18,0.4,0.4 S246.547,120.433,246.326,120.433z"/></g><g id="change2_59"><path d="M232.862,120.433h-27.693c-0.221,0-0.4-0.18-0.4-0.4s0.18-0.4,0.4-0.4h27.693c0.221,0,0.4,0.18,0.4,0.4 S233.083,120.433,232.862,120.433z"/></g><g id="change2_60"><path d="M266.351,113.069h-44.651c-0.221,0-0.4-0.18-0.4-0.4s0.18-0.4,0.4-0.4h44.651c0.221,0,0.4,0.18,0.4,0.4 S266.571,113.069,266.351,113.069z"/></g><g id="change2_61"><path d="M213.885,113.069h-8.558c-0.221,0-0.4-0.18-0.4-0.4s0.18-0.4,0.4-0.4h8.558c0.221,0,0.4,0.18,0.4,0.4 S214.105,113.069,213.885,113.069z"/></g><g id="change2_62"><path d="M259.839,125.72h-34.977c-0.221,0-0.4-0.18-0.4-0.4s0.18-0.4,0.4-0.4h34.977c0.221,0,0.4,0.18,0.4,0.4 S260.06,125.72,259.839,125.72z"/></g><g id="change2_63"><path d="M217.606,125.72h-12.466c-0.221,0-0.4-0.18-0.4-0.4s0.18-0.4,0.4-0.4h12.466c0.221,0,0.4,0.18,0.4,0.4 S217.827,125.72,217.606,125.72z"/></g><g id="change2_64"><path d="M250.536,130.743h-10.604c-0.221,0-0.4-0.18-0.4-0.4s0.18-0.4,0.4-0.4h10.604c0.221,0,0.4,0.18,0.4,0.4 S250.757,130.743,250.536,130.743z"/></g><g id="change2_65"><path d="M232.304,130.743h-26.977c-0.221,0-0.4-0.18-0.4-0.4s0.18-0.4,0.4-0.4h26.977c0.221,0,0.4,0.18,0.4,0.4 S232.524,130.743,232.304,130.743z"/></g><g id="change1_18"><path fill="#f1f1f1" d="M276.025 117.32H286.258V127.73899999999999H276.025z"/></g><g id="change2_66"><path d="M286.257,128.139h-10.232c-0.221,0-0.4-0.18-0.4-0.4V117.32c0-0.221,0.18-0.4,0.4-0.4h10.232c0.221,0,0.4,0.18,0.4,0.4 v10.418C286.657,127.959,286.478,128.139,286.257,128.139z M276.425,127.338h9.432v-9.617h-9.432V127.338z"/></g><g id="change2_67"><path d="M286.22,99.454H174.209c-0.221,0-0.4-0.18-0.4-0.4s0.18-0.4,0.4-0.4H286.22c0.221,0,0.4,0.18,0.4,0.4 S286.44,99.454,286.22,99.454z"/></g><g id="change2_68"><path d="M281.605,78.278c-0.088,0-0.177-0.029-0.25-0.088l-3.721-2.977c-0.173-0.138-0.2-0.39-0.062-0.562 c0.139-0.172,0.39-0.198,0.562-0.062l3.431,2.745l12.585-13.496c0.15-0.162,0.402-0.171,0.565-0.021 c0.162,0.151,0.171,0.404,0.021,0.565L281.898,78.15C281.819,78.234,281.713,78.278,281.605,78.278z"/></g><g id="change1_19"><path fill="#f1f1f1" d="M127.359,108.51v-7.867c0-4.525-3.703,1.496-8.228,1.496l0,0c-4.525,0-8.228,3.703-8.228,8.228v2.906 h-3.668v30.062h12.553v-18.269c4.217-0.27,7.532-3.197,7.572-10.381c0,0,1.208-0.235,1.642-1.064S128.159,110.542,127.359,108.51z"/></g><g id="change2_69"><path d="M119.787,143.735h-12.553c-0.221,0-0.4-0.18-0.4-0.4v-30.062c0-0.221,0.18-0.4,0.4-0.4h3.269v-2.506 c0-4.757,3.871-8.628,8.628-8.628c1.897,0,3.665-1.14,5.086-2.056c1.251-0.806,2.151-1.392,2.859-1.007 c0.473,0.258,0.684,0.864,0.684,1.967v7.79c0.199,0.501,0.426,1.015,0.647,1.515c0.76,1.718,1.359,3.075,0.949,3.859 c-0.369,0.702-1.156,1.043-1.601,1.185c-0.151,8.311-4.632,10.14-7.568,10.442v17.9 C120.188,143.556,120.008,143.735,119.787,143.735z M107.635,142.935h11.752v-17.868c0-0.211,0.164-0.386,0.375-0.399 c4.608-0.294,7.164-3.84,7.197-9.983c0.001-0.19,0.137-0.354,0.323-0.391c0.284-0.057,1.085-0.321,1.365-0.856 c0.231-0.442-0.436-1.952-0.972-3.164c-0.236-0.534-0.479-1.083-0.688-1.616c-0.019-0.047-0.028-0.097-0.028-0.146v-7.866 c0-1.065-0.222-1.24-0.266-1.265c-0.283-0.155-1.259,0.474-2.043,0.978c-1.43,0.921-3.387,2.184-5.52,2.184 c-4.316,0-7.827,3.511-7.827,7.827v2.906c0,0.221-0.18,0.4-0.4,0.4h-3.269V142.935z"/></g><g id="change2_70"><path d="M107.235,120.608c4.577,0,7.773-0.473,11.461-4.91c-1.964-2.008-2.072-4.758-1.202-5.927c0.537-0.721,1.973-1,2.777,0.977 c1.252-1.969,1.959-4.062,2.025-6.301c4.153-0.838,7.22-2.412,6.137-7.2c-2.025-5.738-16.542-5.514-21.149,4.061 C100.024,103.912,104.335,112.941,107.235,120.608z"/></g><g id="change2_71"><path d="M107.234,121.008c-0.166,0-0.315-0.104-0.374-0.259c-0.257-0.679-0.524-1.367-0.794-2.062 c-2.09-5.382-4.251-10.946-2.575-14.62c0.641-1.404,1.819-2.44,3.504-3.079c2.913-5.876,9.351-8.221,14.524-7.945 c3.737,0.204,6.463,1.727,7.29,4.071c0.443,1.948,0.274,3.458-0.505,4.662c-1.173,1.811-3.571,2.562-5.623,2.998 c-0.12,2.132-0.817,4.211-2.073,6.188c-0.08,0.126-0.215,0.2-0.374,0.184c-0.148-0.014-0.278-0.109-0.334-0.248 c-0.307-0.751-0.738-1.199-1.217-1.26c-0.396-0.051-0.719,0.168-0.87,0.372c-0.743,0.999-0.659,3.541,1.168,5.409 c0.144,0.146,0.152,0.377,0.021,0.535C115.104,120.645,111.665,121.008,107.234,121.008z M120.687,93.821 c-4.779,0-10.467,2.308-13.042,7.66c-0.046,0.095-0.126,0.167-0.226,0.203c-1.578,0.565-2.625,1.454-3.2,2.715 c-1.535,3.366,0.563,8.771,2.594,13.998c0.236,0.608,0.471,1.213,0.697,1.81c4.114-0.016,7.142-0.408,10.652-4.497 c-1.792-2.048-1.981-4.846-0.99-6.179c0.37-0.494,1.002-0.765,1.612-0.688c0.366,0.047,0.99,0.257,1.515,1.081 c1.005-1.768,1.542-3.611,1.598-5.49c0.005-0.186,0.138-0.344,0.32-0.381c2.911-0.587,4.582-1.424,5.416-2.712 c0.656-1.014,0.79-2.324,0.41-4.007c-0.693-1.954-3.215-3.31-6.567-3.493C121.216,93.828,120.952,93.821,120.687,93.821z"/></g><g id="change1_20"><path fill="#f1f1f1" d="M129.212,135.927c0,0,4.823-3.221,12.587-3.198c7.764,0.022-3.165,10.609-3.165,10.609L129.212,135.927z"/></g><g id="change2_72"><path d="M138.634,143.738c-0.087,0-0.175-0.028-0.247-0.086l-9.422-7.411c-0.101-0.079-0.157-0.202-0.152-0.33 s0.07-0.246,0.178-0.317c0.2-0.134,4.979-3.266,12.727-3.266c0.028,0,0.055,0,0.083,0c1.643,0.005,2.664,0.475,3.036,1.396 c1.173,2.909-5.194,9.193-5.924,9.9C138.835,143.7,138.734,143.738,138.634,143.738z M129.918,135.973l8.687,6.833 c2.009-1.998,6.279-6.823,5.489-8.782c-0.238-0.59-1.011-0.892-2.296-0.895c-0.026,0-0.053-0.001-0.079-0.001 C135.594,133.128,131.306,135.199,129.918,135.973z"/></g><g id="change2_73"><path d="M137.194 177.894L98.999 177.894 85.72 301.319 103.624 301.319 116.304 208.575 119.738 300.66 137.194 300.66z"/></g><g id="change2_74"><path d="M103.624,301.72H85.72c-0.113,0-0.222-0.049-0.298-0.133c-0.075-0.085-0.112-0.197-0.1-0.311l13.279-123.426 c0.021-0.203,0.193-0.357,0.397-0.357h38.195c0.221,0,0.4,0.18,0.4,0.4v122.766c0,0.221-0.18,0.4-0.4,0.4h-17.457 c-0.215,0-0.392-0.171-0.399-0.386l-3.262-87.478l-12.056,88.177C103.993,301.571,103.824,301.72,103.624,301.72z M86.165,300.919 h17.11l12.632-92.397c0.028-0.206,0.212-0.334,0.416-0.346c0.207,0.01,0.372,0.177,0.38,0.385l3.42,91.698h16.671V178.294H99.358 L86.165,300.919z"/></g><g id="change4_9"><path fill="#f1f1f1" d="M160.095 101.11H173.155V117.405H160.095z" transform="rotate(32.794 166.63 109.262)"/></g><g id="change2_75"><path d="M167.701,120.043c-0.074,0-0.149-0.021-0.217-0.064l-10.979-7.073c-0.089-0.058-0.151-0.147-0.174-0.251 c-0.022-0.104-0.003-0.213,0.055-0.302l8.825-13.697c0.119-0.185,0.365-0.241,0.553-0.119l10.979,7.073 c0.089,0.058,0.151,0.147,0.174,0.251c0.022,0.104,0.003,0.213-0.055,0.302l-8.825,13.697 C167.961,119.978,167.832,120.043,167.701,120.043z M157.275,112.45l10.307,6.64l8.392-13.025l-10.307-6.64L157.275,112.45z"/></g><g id="change1_21"><path fill="#f1f1f1" d="M158.71,109.975c-0.462-0.298-1.076-0.176-1.39,0.275l-23.039,33.083c-0.795,1.234-0.439,2.878,0.794,3.672 l10.217,6.583c1.234,0.795,2.878,0.439,3.672-0.794l20.603-34.652c0.281-0.472,0.137-1.082-0.325-1.379L158.71,109.975z"/></g><g id="change2_76"><path d="M146.722,154.409c-0.565,0-1.138-0.157-1.647-0.485l-10.217-6.583c-1.416-0.912-1.826-2.809-0.913-4.226l23.047-33.094 c0.438-0.632,1.289-0.797,1.935-0.384c0.001,0.001,0.001,0.001,0.001,0.001l10.532,6.786c0.646,0.416,0.844,1.26,0.451,1.92 l-20.603,34.652C148.719,153.912,147.729,154.409,146.722,154.409z M158.156,110.212c-0.196,0-0.388,0.093-0.509,0.267 l-23.039,33.082c-0.666,1.034-0.363,2.435,0.683,3.108l10.217,6.583c1.048,0.673,2.445,0.369,3.12-0.676l20.595-34.64 c0.172-0.289,0.085-0.657-0.197-0.84l-10.532-6.786C158.389,110.244,158.271,110.212,158.156,110.212z"/></g><g id="change1_22"><path fill="#f1f1f1" d="M204.774,50.046c-15.705-10.119-36.639-5.59-46.757,10.114c-10.119,15.705-5.59,36.639,10.115,46.757 c15.705,10.119,36.639,5.59,46.757-10.114C225.008,81.099,220.479,60.165,204.774,50.046z M172.895,99.525 c-11.622-7.488-14.973-22.979-7.485-34.601c7.488-11.622,22.979-14.973,34.601-7.485c11.622,7.488,14.973,22.979,7.485,34.601 C200.008,103.662,184.517,107.013,172.895,99.525z"/></g><g id="change2_77"><path d="M186.385,112.722c-6.501,0-12.874-1.862-18.47-5.468c-7.686-4.951-12.982-12.6-14.915-21.535 c-1.934-8.936-0.271-18.089,4.681-25.774c10.222-15.864,31.443-20.46,47.311-10.234l0,0c7.686,4.951,12.982,12.6,14.915,21.535 c1.934,8.937,0.271,18.09-4.682,25.775c-4.951,7.686-12.6,12.982-21.535,14.915C191.26,112.462,188.813,112.722,186.385,112.722z M186.507,45.064c-10.993,0-21.771,5.405-28.154,15.313c-4.836,7.505-6.459,16.445-4.571,25.172s7.062,16.196,14.567,21.032 s16.444,6.459,25.172,4.572c8.727-1.888,16.196-7.062,21.032-14.567c9.983-15.494,5.499-36.222-9.995-46.205 C198.972,46.783,192.704,45.064,186.507,45.064z M186.413,103.907c-4.717,0-9.483-1.307-13.734-4.046l0,0 c-11.789-7.596-15.2-23.365-7.604-35.154c7.596-11.788,23.365-15.199,35.153-7.604c11.788,7.595,15.2,23.365,7.604,35.153 C202.976,99.794,194.775,103.907,186.413,103.907z M173.112,99.189c11.416,7.354,26.691,4.052,34.048-7.366 c7.355-11.417,4.052-26.691-7.366-34.048s-26.689-4.052-34.048,7.365c-3.563,5.531-4.76,12.119-3.369,18.55 C163.769,90.121,167.581,95.625,173.112,99.189L173.112,99.189z"/></g><g id="change1_23"><path fill="#f1f1f1" d="M158.06,130.206l1.486-6.687c0.316-1.503,2.646-1.327,2.781,0c0.262,1.945-0.15,5.43,0.659,5.688 l6.01-10.108c2.029,4.194,2.428,8.647-0.511,13.629C164.693,140.58,156.864,135.96,158.06,130.206z"/></g><g id="change2_78"><path d="M163.11,137.294c-0.572,0-1.121-0.098-1.626-0.269c-2.796-0.95-4.436-3.917-3.815-6.9c0-0.002,0.001-0.004,0.001-0.006 l1.486-6.687c0.211-1.004,1.104-1.416,1.902-1.372c0.901,0.047,1.588,0.631,1.668,1.419c0.094,0.701,0.103,1.604,0.11,2.477 c0.007,0.751,0.018,1.884,0.137,2.489l5.68-9.551c0.075-0.127,0.216-0.194,0.361-0.195c0.146,0.006,0.278,0.093,0.343,0.226 c2.345,4.847,2.172,9.429-0.527,14.007C167.274,136.154,165.063,137.294,163.11,137.294z M158.451,130.29 c-0.589,2.842,1.21,5.271,3.29,5.978c2.474,0.84,4.855-0.549,6.384-3.713c2.477-4.202,2.741-8.216,0.827-12.598l-5.622,9.454 c-0.094,0.16-0.284,0.233-0.466,0.177c-0.759-0.242-0.808-1.472-0.827-3.625c-0.008-0.848-0.016-1.725-0.105-2.39 c-0.048-0.467-0.494-0.691-0.916-0.714c-0.436-0.046-0.955,0.159-1.077,0.742L158.451,130.29z"/></g><g id="change3_2"><path fill="#5c84f7" d="M169.148,132.522l-11.722-2.431l-5.159,15.288l-16.481-10.586c-2.995-4.354-8.478-7.234-15.526-7.428 c0,0-10.034,0-12.756,0c-6.615,0-13.677,6.613-13.008,14.566l3.332,39.497l40.335-0.044l0.105-26.53l13.62,7.965c0,0,0,0,0,0 c0.344,0.239,0.702,0.453,1.077,0.63c0,0,0,0,0,0l0.003,0.002l0,0c0.001,0.001,0.003,0.001,0.005,0.002 c0.248,0.116,0.501,0.215,0.759,0.303c0.075,0.026,0.151,0.047,0.227,0.07c0.19,0.059,0.382,0.11,0.576,0.154 c0.087,0.019,0.174,0.038,0.262,0.054c0.197,0.037,0.396,0.064,0.595,0.085c0.078,0.008,0.154,0.019,0.232,0.025 c0.276,0.02,0.554,0.029,0.833,0.019c0.001,0,0.002,0,0.003,0c0.274-0.011,0.549-0.04,0.822-0.082 c0.084-0.013,0.167-0.031,0.251-0.047c0.193-0.036,0.386-0.078,0.578-0.13c0.094-0.025,0.188-0.053,0.281-0.082 c0.19-0.059,0.377-0.128,0.564-0.203c0.083-0.033,0.167-0.064,0.249-0.1c0.264-0.118,0.525-0.247,0.779-0.398 c1.519-0.9,2.6-2.253,3.182-3.785c0.004-0.007,0.01-0.017,0.014-0.024C164.438,157.059,169.148,132.522,169.148,132.522z"/></g><g id="change2_79"><path d="M97.826,181.829c-0.208,0-0.381-0.159-0.398-0.367l-3.331-39.496c-0.316-3.755,1.007-7.45,3.724-10.406 c2.646-2.876,6.265-4.594,9.684-4.594h12.756c6.855,0.188,12.607,2.934,15.809,7.535l15.984,10.266l4.994-14.803 c0.064-0.19,0.258-0.31,0.46-0.264l11.723,2.431c0.214,0.044,0.353,0.252,0.312,0.467c-0.192,1.005-4.737,24.627-6.01,26.91 c-0.632,1.661-1.791,3.04-3.341,3.958c-0.27,0.159-0.543,0.296-0.821,0.419c-0.065,0.029-0.132,0.056-0.199,0.082 c-0.259,0.104-0.456,0.176-0.657,0.238c-0.099,0.031-0.197,0.06-0.297,0.087c-0.202,0.054-0.403,0.099-0.607,0.137l-0.266,0.049 c-0.288,0.043-0.577,0.074-0.866,0.085c-0.294,0.015-0.589,0.003-0.88-0.018l-0.161-0.018c-0.296-0.032-0.504-0.061-0.711-0.099 l-0.273-0.056c-0.209-0.048-0.411-0.103-0.61-0.164l-0.242-0.075c-0.267-0.091-0.534-0.195-0.796-0.317 c-0.382-0.18-0.753-0.396-1.144-0.667l-12.995-7.6l-0.102,25.837c-0.001,0.22-0.18,0.397-0.4,0.398L97.826,181.829L97.826,181.829z M120.249,127.766l-12.745,0.001c-3.199,0-6.599,1.62-9.095,4.335c-2.563,2.789-3.812,6.269-3.516,9.798l3.3,39.129l39.57-0.043 l0.103-26.133c0.001-0.143,0.078-0.274,0.202-0.346c0.123-0.071,0.275-0.07,0.4,0.002l13.62,7.965 c0.374,0.26,0.704,0.453,1.034,0.61c0.01,0.004,0.02,0.008,0.028,0.013c0.226,0.105,0.466,0.198,0.71,0.281l0.14,0.044 c0.256,0.079,0.438,0.128,0.622,0.169l0.248,0.052c0.186,0.033,0.374,0.06,0.564,0.08l0.22,0.024 c0.259,0.018,0.521,0.027,0.786,0.017c0.264-0.011,0.523-0.038,0.782-0.077l0.15-0.027c0.271-0.052,0.452-0.091,0.635-0.141 c0.09-0.023,0.177-0.05,0.266-0.077c0.18-0.057,0.357-0.121,0.532-0.192l0.237-0.095c0.25-0.111,0.498-0.234,0.739-0.377 c1.392-0.824,2.434-2.063,3.011-3.583c0.992-1.787,4.237-17.791,5.888-26.36l-10.99-2.278l-5.045,14.952 c-0.039,0.116-0.13,0.209-0.246,0.25c-0.118,0.039-0.244,0.025-0.349-0.041l-16.482-10.586c-0.045-0.029-0.084-0.066-0.114-0.11 C132.41,130.592,126.868,127.947,120.249,127.766z"/></g><g id="change4_10"><path fill="#f1f1f1" d="M394.927,191.273c0,0,7.398-88.485,24.316-88.108c16.918,0.377,12.402,92.51,12.402,92.51L394.927,191.273z"/></g><g id="change2_80"><path d="M431.646,196.075c-0.016,0-0.031-0.001-0.048-0.003l-36.718-4.401c-0.214-0.026-0.369-0.216-0.351-0.431 c0.303-3.62,7.595-88.477,24.609-88.477c0.039,0,0.076,0.001,0.114,0.001c1.487,0.033,2.87,0.726,4.109,2.057 c5.196,5.58,8.234,22.581,9.032,50.531c0.592,20.761-0.34,40.148-0.35,40.342c-0.005,0.111-0.057,0.215-0.142,0.286 C431.831,196.042,431.739,196.075,431.646,196.075z M395.359,190.923l35.906,4.304c0.275-6.224,3.147-77.364-8.489-89.86 c-1.087-1.167-2.278-1.773-3.541-1.801c-0.034-0.001-0.068-0.002-0.103-0.002C403.408,103.563,395.92,184.59,395.359,190.923z"/></g><g id="change1_24"><path fill="#f1f1f1" d="M410.062,184.868c0,0,24.002-62.511,35.232-58.814c11.229,3.697-11.631,69.429-11.631,69.429 L410.062,184.868z"/></g><g id="change2_81"><path d="M433.662,195.883c-0.056,0-0.112-0.012-0.164-0.035l-23.601-10.615c-0.193-0.088-0.285-0.311-0.209-0.509 c0.984-2.566,24.26-62.83,35.729-59.05c0.958,0.315,1.722,1.039,2.271,2.15c5.761,11.654-12.854,65.503-13.649,67.79 c-0.037,0.105-0.116,0.191-0.22,0.235C433.77,195.871,433.716,195.883,433.662,195.883z M410.571,184.658l22.855,10.279 c1.753-5.124,18.9-55.925,13.546-66.759c-0.457-0.925-1.048-1.496-1.805-1.745c-3.047-0.989-9.226,3.001-21.341,27.812 C417.125,167.974,411.508,182.252,410.571,184.658z"/></g><g id="change1_25"><path fill="#f1f1f1" d="M386.39,197.864c0,0-17.095-65.074-1.928-70.766c15.167-5.692,35.805,60.941,35.805,60.941L386.39,197.864z"/></g><g id="change2_82"><path d="M386.391,198.265c-0.068,0-0.137-0.018-0.197-0.053c-0.094-0.053-0.162-0.142-0.189-0.246 c-0.043-0.163-4.308-16.485-6.661-33.295c-3.186-22.745-1.511-35.513,4.979-37.947c1.623-0.611,3.373-0.465,5.199,0.431 c6.043,2.962,13.121,14.1,21.037,33.105c5.876,14.106,10.05,27.526,10.091,27.66c0.032,0.103,0.021,0.213-0.029,0.308 c-0.052,0.095-0.138,0.165-0.241,0.194l-33.876,9.826C386.466,198.259,386.428,198.265,386.391,198.265z M386.347,127.156 c-0.6,0-1.182,0.104-1.744,0.315c-14.052,5.274,0.68,64.436,2.072,69.894l33.088-9.598c-1.54-4.858-17.195-53.328-30.595-59.896 C388.194,127.395,387.251,127.156,386.347,127.156z"/></g><g id="change4_11"><path fill="#f1f1f1" d="M424.505,243.894c13.001-5.576,22.108-18.49,22.108-33.532c0-8.37-2.822-16.08-7.563-22.235h-57.817 c-4.741,6.155-7.563,13.865-7.563,22.235c0,15.042,9.107,27.956,22.108,33.532H424.505z"/></g><g id="change2_83"><path d="M424.505,244.294h-28.726c-0.055,0-0.107-0.012-0.157-0.033c-13.578-5.823-22.352-19.129-22.352-33.898 c0-8.213,2.645-15.986,7.647-22.479c0.075-0.099,0.192-0.156,0.316-0.156h57.816c0.124,0,0.241,0.058,0.316,0.156 c5.002,6.492,7.646,14.266,7.646,22.479c0,14.77-8.773,28.075-22.352,33.898C424.612,244.282,424.56,244.294,424.505,244.294z M395.861,243.493h28.562c13.24-5.714,21.79-18.709,21.79-33.131c0-7.97-2.544-15.516-7.359-21.835h-57.422 c-4.816,6.32-7.36,13.866-7.36,21.835C374.071,224.784,382.621,237.779,395.861,243.493z"/></g><g id="change3_3"><path fill="#5c84f7" d="M374.609,218.613c2.638,11.402,10.622,20.757,21.17,25.281h28.726c10.548-4.524,18.532-13.878,21.17-25.281 H374.609z"/></g><g id="change2_84"><path d="M424.505,244.294h-28.726c-0.054,0-0.107-0.012-0.157-0.033c-10.768-4.617-18.769-14.172-21.402-25.558 c-0.027-0.118,0.001-0.243,0.076-0.339c0.076-0.096,0.191-0.151,0.313-0.151h71.065c0.122,0,0.237,0.056,0.313,0.151 c0.075,0.096,0.104,0.221,0.076,0.339c-2.634,11.386-10.635,20.94-21.402,25.558C424.612,244.282,424.56,244.294,424.505,244.294z M395.861,243.493h28.562c10.341-4.463,18.062-13.584,20.745-24.479h-70.052C377.8,229.909,385.521,239.03,395.861,243.493z"/></g><g id="change1_26"><path fill="#f1f1f1" d="M339.68,108.612l0.266-1.024c1.093-4.216-1.462-8.56-5.678-9.653c-4.216-1.093-6.211-7.598-7.304-3.382 l-1.578,6.095c-1.236,1.7-3.426,3.422-3.222,4.299s1.488,2.047,1.488,2.047c-1.786,7.047,0.854,11.233,5.07,12.326h0 c0.016,0.004,0.033,0.006,0.049,0.01v18.216h12.082v-28.934H339.68z"/></g><g id="change2_85"><path d="M340.854,137.946h-12.082c-0.221,0-0.4-0.18-0.4-0.4v-17.912c-3.791-1.134-6.994-4.965-5.164-12.51 c-0.387-0.379-1.249-1.294-1.434-2.086c-0.178-0.762,0.668-1.672,1.737-2.823c0.528-0.568,1.074-1.156,1.507-1.741l1.558-6.021 c0.269-1.033,0.614-1.551,1.123-1.679c0.759-0.195,1.46,0.575,2.435,1.634c1.101,1.195,2.471,2.682,4.234,3.14 c2.143,0.556,3.945,1.919,5.074,3.84c1.13,1.921,1.446,4.158,0.89,6.301l-0.136,0.523h0.658c0.221,0,0.4,0.18,0.4,0.4v28.934 C341.255,137.767,341.075,137.946,340.854,137.946z M329.173,137.146h11.281v-28.133h-0.774c-0.124,0-0.24-0.058-0.316-0.155 c-0.076-0.099-0.102-0.226-0.07-0.346l0.266-1.024c0.502-1.936,0.216-3.958-0.806-5.694s-2.649-2.969-4.586-3.472 c-1.991-0.516-3.512-2.166-4.621-3.371c-0.604-0.655-1.343-1.475-1.652-1.399c-0.046,0.012-0.287,0.119-0.542,1.104l-1.577,6.095 c-0.013,0.048-0.034,0.094-0.064,0.135c-0.468,0.644-1.05,1.27-1.612,1.876c-0.686,0.738-1.625,1.749-1.544,2.097 c0.144,0.618,1.036,1.539,1.368,1.842c0.109,0.1,0.154,0.251,0.118,0.395c-1.555,6.135,0.278,10.672,4.783,11.841 c0.176,0.045,0.35,0.214,0.35,0.396V137.146z"/></g><g id="change2_86"><path d="M340.89,118.015c-4.322-0.477-8.454-0.482-9.18-6.954c2.315-1.396,2.769-4.321,2.24-5.62 c-0.326-0.801-1.952-1.463-3.179,0.184c-0.691-2.137-0.488-4.202-0.009-6.304c-3.667-1.784-6.143-3.991-3.978-8.19 c3.273-4.857,16.744-1.141,18.722,8.892C351.641,104.202,345.443,111.572,340.89,118.015z"/></g><g id="change2_87"><path d="M340.89,118.415c-0.015,0-0.029-0.001-0.044-0.003l-0.804-0.085c-3.939-0.41-8.014-0.833-8.729-7.222 c-0.018-0.155,0.057-0.307,0.19-0.388c2.194-1.323,2.519-4.041,2.077-5.127c-0.099-0.242-0.435-0.517-0.885-0.574 c-0.562-0.081-1.142,0.227-1.604,0.847c-0.09,0.119-0.232,0.181-0.386,0.155c-0.147-0.024-0.27-0.129-0.315-0.271 c-0.734-2.274-0.478-4.399-0.087-6.208c-1.805-0.902-3.853-2.182-4.508-4.153c-0.438-1.313-0.23-2.766,0.633-4.439 c1.364-2.03,4.275-2.793,7.814-2.078c4.869,0.983,10.325,4.736,11.624,10.917c1.415,1.005,2.264,2.256,2.521,3.722 c0.675,3.833-2.685,8.498-5.935,13.009c-0.419,0.582-0.835,1.159-1.238,1.729C341.141,118.353,341.019,118.415,340.89,118.415z M332.137,111.263c0.714,5.513,4.089,5.863,7.988,6.269l0.574,0.061c0.361-0.51,0.732-1.024,1.106-1.544 c3.152-4.376,6.412-8.901,5.795-12.402c-0.23-1.31-0.988-2.386-2.319-3.292c-0.087-0.06-0.146-0.15-0.167-0.254 c-1.166-5.914-6.38-9.509-11.029-10.447c-3.157-0.633-5.831,0.015-6.969,1.701c-0.735,1.432-0.927,2.681-0.562,3.779 c0.465,1.398,1.816,2.579,4.383,3.827c0.167,0.081,0.257,0.267,0.215,0.448c-0.361,1.587-0.652,3.446-0.188,5.417 c0.714-0.622,1.423-0.654,1.833-0.603c0.688,0.088,1.3,0.517,1.523,1.067C334.938,106.805,334.386,109.746,332.137,111.263z"/></g><g id="change2_88"><path d="M353.963,169.539h-37.061l-10.424,28.043c-2.012,4.972-2.374,10.494-1.584,16.395l4.235,63.213h16.49l-3.641-64.988 l12.651-23.07l9.331,106.79h15.814L353.963,169.539z"/></g><g id="change2_89"><path d="M359.773,296.324H343.96c-0.207,0-0.381-0.159-0.398-0.365l-9.216-105.477l-11.962,21.812l3.634,64.874 c0.006,0.11-0.033,0.218-0.108,0.297c-0.076,0.08-0.181,0.126-0.291,0.126h-16.489c-0.211,0-0.385-0.164-0.399-0.374l-4.235-63.214 c-0.852-6.354-0.325-11.783,1.612-16.572l10.421-28.032c0.059-0.156,0.208-0.261,0.375-0.261h37.061 c0.214,0,0.39,0.169,0.399,0.382l5.811,126.385c0.005,0.109-0.035,0.216-0.11,0.295S359.883,296.324,359.773,296.324z M344.326,295.523h15.028l-5.773-125.584h-36.4l-10.328,27.782c-1.888,4.667-2.397,9.964-1.562,16.203l4.213,62.866h15.692 l-3.617-64.565c-0.004-0.075,0.013-0.149,0.049-0.215l12.651-23.069c0.085-0.155,0.262-0.237,0.433-0.199 c0.173,0.036,0.301,0.182,0.316,0.356L344.326,295.523z"/></g><g id="change1_27"><path fill="#f1f1f1" d="M282.392,98.734c0,0-4.076-4.164-2.717-6.94c1.359-2.776,6.029-4.684,6.029-4.684l-1.051-4.677 c-0.534-1.799,1.815-2.639,2.531-0.971l4.888,15.711L282.392,98.734z"/></g><g id="change2_90"><path d="M282.392,99.135c-0.106,0-0.21-0.043-0.286-0.121c-0.174-0.178-4.256-4.399-2.79-7.396c1.216-2.484,4.83-4.254,5.925-4.744 l-0.978-4.354c-0.343-1.15,0.308-1.98,1.061-2.253c0.74-0.271,1.758-0.06,2.229,1.036l4.902,15.75 c0.034,0.111,0.02,0.231-0.042,0.33c-0.061,0.099-0.162,0.165-0.276,0.184l-9.681,1.562 C282.434,99.133,282.413,99.135,282.392,99.135z M285.925,80.962c-0.113,0-0.226,0.021-0.329,0.058 c-0.394,0.143-0.776,0.568-0.559,1.299l1.057,4.703c0.042,0.19-0.059,0.384-0.239,0.458c-0.045,0.019-4.546,1.886-5.82,4.49 c-1.084,2.215,1.822,5.59,2.504,6.336l9.016-1.454l-4.751-15.271C286.612,81.143,286.263,80.962,285.925,80.962z"/></g><g id="change3_4"><path fill="#5c84f7" d="M370.292,157.036c-0.063-0.133-0.108-0.272-0.179-0.402l-12.495-27.718 c-0.075-0.183-0.157-0.36-0.242-0.536l-0.147-0.325c0,0-0.027-0.029-0.045-0.049c-2.155-4.017-6.916-6.09-11.473-6.09 c-2.642,0-12.378,0-12.378,0c-4.759,0.075-13.956,0.304-20.205-1.633l-13.423-4.191l-7.369-20.394l-11.303,2.737 c0,0,5.24,24.182,6.52,26.38c0.178,0.396,0.457,0.848,0.782,1.3c0.761,1.215,1.844,2.178,3.114,2.769l0,0l0.003,0.001 c0.367,0.17,0.75,0.304,1.143,0.411l23.19,8.338l-2.458,39.408l43.535,2.512l-0.586-8.429c5.204-1.822,10.11-3.637,10.987-4.289 c1.135-0.671,2.703-2.307,3.228-3.53C371.388,161.21,371.244,158.921,370.292,157.036z"/></g><g id="change2_91"><path d="M356.861,179.952c-0.008,0-0.016-0.001-0.023-0.001l-43.534-2.512c-0.105-0.006-0.205-0.055-0.275-0.134 c-0.071-0.08-0.107-0.185-0.101-0.29l2.439-39.108l-22.908-8.236c-0.41-0.109-0.806-0.252-1.177-0.425 c-1.348-0.627-2.482-1.636-3.285-2.92c-0.344-0.475-0.629-0.948-0.809-1.347c-1.277-2.191-6.332-25.471-6.546-26.46 c-0.046-0.213,0.085-0.423,0.297-0.474l11.303-2.736c0.201-0.047,0.4,0.062,0.47,0.253l7.302,20.207l13.234,4.132 c5.957,1.847,14.791,1.705,19.539,1.623l0.541-0.009h12.383c5.113,0,9.741,2.457,11.805,6.263c0.031,0.038,0.066,0.085,0.078,0.112 l0.147,0.325c0.084,0.175,0.169,0.358,0.247,0.55l12.489,27.704c0.035,0.062,0.073,0.152,0.111,0.244l0.063,0.148 c1.043,2.068,1.117,4.474,0.205,6.6c-0.581,1.354-2.255,3.044-3.393,3.716c-0.25,0.189-1.114,0.834-10.77,4.222l0.565,8.125 c0.008,0.114-0.034,0.227-0.115,0.309C357.07,179.909,356.968,179.952,356.861,179.952z M313.751,176.664l42.68,2.462l-0.555-7.976 c-0.012-0.18,0.097-0.346,0.268-0.405c8.108-2.839,10.392-3.869,10.879-4.232c1.065-0.632,2.595-2.189,3.101-3.367 c0.819-1.909,0.751-4.07-0.188-5.929c-0.001-0.003-0.002-0.006-0.004-0.008c-0.029-0.063-0.056-0.127-0.082-0.191 c-0.027-0.065-0.053-0.131-0.087-0.193l-12.508-27.743c-0.078-0.188-0.157-0.358-0.238-0.527l-0.127-0.282 c-0.024-0.028-0.049-0.061-0.058-0.076c-1.915-3.571-6.28-5.879-11.12-5.879l-12.911,0.009c-4.792,0.075-13.71,0.225-19.789-1.66 l-13.425-4.191c-0.119-0.037-0.215-0.128-0.257-0.246l-7.247-20.057l-10.575,2.561c1.835,8.445,5.42,24.212,6.392,25.882 c0.178,0.388,0.435,0.812,0.762,1.267c0.735,1.174,1.753,2.079,2.958,2.641c0.331,0.154,0.684,0.28,1.081,0.389l23.222,8.348 c0.167,0.06,0.274,0.224,0.264,0.4L313.751,176.664z"/></g><g id="change1_28"><path fill="#f1f1f1" d="M51.905,211.902c0,3.841-3.053,6.955-6.818,6.955s-6.818-3.114-6.818-6.955 c0-3.841,3.053-6.955,6.818-6.955S51.905,208.061,51.905,211.902z"/></g><g id="change2_92"><path d="M45.087,219.258c-3.979,0-7.218-3.3-7.218-7.355s3.238-7.355,7.218-7.355c3.98,0,7.219,3.3,7.219,7.355 S49.067,219.258,45.087,219.258z M45.087,205.348c-3.538,0-6.417,2.94-6.417,6.555s2.879,6.555,6.417,6.555 c3.539,0,6.418-2.94,6.418-6.555S48.626,205.348,45.087,205.348z"/></g><g id="change1_29"><path fill="#f1f1f1" d="M37.886 115.366H52.119V195.459H37.886z"/></g><g id="change2_93"><path d="M52.118,195.859H37.886c-0.221,0-0.4-0.18-0.4-0.4v-80.093c0-0.221,0.18-0.4,0.4-0.4h14.232c0.221,0,0.4,0.18,0.4,0.4 v80.093C52.519,195.68,52.339,195.859,52.118,195.859z M38.286,195.059h13.432v-79.292H38.286V195.059z"/></g><g id="change1_30"><path fill="#f1f1f1" d="M20.277,211.902c0,3.841-3.053,6.955-6.818,6.955s-6.818-3.114-6.818-6.955 c0-3.841,3.053-6.955,6.818-6.955S20.277,208.061,20.277,211.902z"/></g><g id="change2_94"><path d="M13.459,219.258c-3.979,0-7.218-3.3-7.218-7.355s3.238-7.355,7.218-7.355c3.98,0,7.219,3.3,7.219,7.355 S17.439,219.258,13.459,219.258z M13.459,205.348c-3.538,0-6.417,2.94-6.417,6.555s2.879,6.555,6.417,6.555 c3.539,0,6.418-2.94,6.418-6.555S16.998,205.348,13.459,205.348z"/></g><g id="change1_31"><path fill="#f1f1f1" d="M6.258 115.366H20.491V195.459H6.258z"/></g><g id="change2_95"><path d="M20.49,195.859H6.258c-0.221,0-0.4-0.18-0.4-0.4v-80.093c0-0.221,0.18-0.4,0.4-0.4H20.49c0.221,0,0.4,0.18,0.4,0.4v80.093 C20.891,195.68,20.711,195.859,20.49,195.859z M6.658,195.059H20.09v-79.292H6.658V195.059z"/></g><g id="change3_5"><path fill="#5c84f7" d="M356.275 171.123L354.908 139.087"/></g><g id="change2_96"><path d="M356.275,171.523c-0.213,0-0.391-0.168-0.399-0.384l-1.367-32.036c-0.01-0.221,0.162-0.407,0.383-0.416 c0.184-0.004,0.407,0.161,0.416,0.383l1.367,32.036c0.01,0.221-0.162,0.407-0.383,0.416 C356.287,171.522,356.281,171.523,356.275,171.523z"/></g><g id="change2_97"><circle r="8.085" cx="346.537" cy="100.921"/></g><g id="change2_98"><path d="M346.537,109.406c-4.679,0-8.485-3.807-8.485-8.485s3.807-8.486,8.485-8.486s8.485,3.808,8.485,8.486 S351.216,109.406,346.537,109.406z M346.537,93.235c-4.237,0-7.685,3.447-7.685,7.686c0,4.237,3.447,7.685,7.685,7.685 s7.685-3.447,7.685-7.685C354.222,96.683,350.774,93.235,346.537,93.235z"/></g><g id="change2_99"><path d="M197.095 293.431H309.56V294.23199999999997H197.095z"/></g><g id="change2_100"><path d="M197.095 301.104H309.56V301.905H197.095z"/></g><g id="change2_101"><path d="M402.489,188.464c-0.152,0-0.298-0.088-0.364-0.236c-0.158-0.351-15.799-35.307-15.104-52.366 c0.01-0.22,0.154-0.383,0.416-0.383c0.221,0.009,0.392,0.195,0.383,0.416c-0.687,16.872,14.877,51.655,15.034,52.005 c0.091,0.201,0.001,0.438-0.2,0.528C402.601,188.452,402.544,188.464,402.489,188.464z"/></g><g id="change2_102"><path d="M425.373,188.324c-0.056,0-0.112-0.012-0.167-0.037c-0.2-0.092-0.289-0.329-0.196-0.53 c0.132-0.288,13.257-29.043,15.595-47.465c0.027-0.22,0.229-0.382,0.447-0.346c0.219,0.027,0.374,0.228,0.346,0.447 c-2.353,18.543-15.528,47.408-15.661,47.697C425.669,188.237,425.524,188.324,425.373,188.324z"/></g><g id="change2_103"><path d="M412.676,166.558c-0.006,0-0.012-0.001-0.018-0.001c-0.221-0.01-0.392-0.196-0.382-0.417 c0.02-0.443,2.009-44.442,6.58-57.326c0.074-0.207,0.3-0.316,0.511-0.243c0.208,0.074,0.317,0.303,0.243,0.511 c-4.532,12.772-6.516,56.652-6.535,57.094C413.065,166.39,412.889,166.558,412.676,166.558z"/></g></g></svg>