<?xml version="1.0" encoding="UTF-8" standalone="no"?><svg xmlns="http://www.w3.org/2000/svg" xmlns:xlink="http://www.w3.org/1999/xlink" contentScriptType="text/ecmascript" fill="#000000" width="445.8" zoomAndPan="magnify" contentStyleType="text/css" viewBox="-0.0 0.0 445.8 335.1" height="335.1" preserveAspectRatio="xMidYMid meet" version="1"><g><g id="change1_45"><path fill="#f1f1f1" d="M182.502 0.3H367.459V137.56300000000002H182.502z"/></g><g id="change2_89"><path d="M367.459,137.862H182.502c-0.166,0-0.3-0.134-0.3-0.3V0.3c0-0.166,0.134-0.3,0.3-0.3h184.957c0.166,0,0.3,0.134,0.3,0.3 v137.263C367.759,137.728,367.625,137.862,367.459,137.862z M182.802,137.263h184.357V0.6H182.802V137.263z"/></g><g id="change3_17"><path fill="#f1f1f1" d="M192.591 7.787H357.37V130.075H192.591z"/></g><g id="change2_90"><path d="M357.37,130.375H192.591c-0.166,0-0.3-0.134-0.3-0.3V7.787c0-0.166,0.134-0.3,0.3-0.3H357.37c0.166,0,0.3,0.134,0.3,0.3 v122.288C357.67,130.24,357.536,130.375,357.37,130.375z M192.891,129.775h164.18V8.087h-164.18V129.775z"/></g><g id="change2_91"><path d="M206.022,46.499l-1.546,2.585l15.365,5.506c0,0,5.762-6.274,6.914-15.749L206.022,46.499z"/></g><g id="change2_92"><path d="M219.842,54.89c-0.034,0-0.068-0.005-0.102-0.018l-15.365-5.506c-0.084-0.03-0.15-0.097-0.181-0.181 s-0.021-0.178,0.024-0.255l1.546-2.585c0.035-0.059,0.09-0.104,0.154-0.127l20.734-7.659c0.096-0.037,0.206-0.019,0.29,0.046 c0.082,0.065,0.124,0.168,0.111,0.271c-1.151,9.461-6.934,15.853-6.992,15.917C220.005,54.856,219.924,54.89,219.842,54.89z M204.921,48.925l14.83,5.313c0.84-0.98,5.491-6.729,6.644-14.944l-20.169,7.45L204.921,48.925z"/></g><g id="change1_46"><path fill="#f1f1f1" d="M212.159,32.567c0,0-2.177,12.42-9.731,12.548l17.286,6.658c0,0,3.073-0.896,7.042-12.932L212.159,32.567z"/></g><g id="change2_93"><path d="M219.714,52.073c-0.037,0-0.073-0.006-0.107-0.02l-17.286-6.659c-0.135-0.051-0.213-0.191-0.188-0.332 c0.024-0.142,0.146-0.245,0.29-0.248c7.224-0.123,9.42-12.178,9.44-12.3c0.017-0.09,0.072-0.168,0.153-0.212 c0.079-0.045,0.176-0.049,0.261-0.012l14.598,6.274c0.144,0.061,0.216,0.222,0.167,0.369c-3.974,12.048-7.112,13.088-7.244,13.127 C219.77,52.069,219.742,52.073,219.714,52.073z M203.686,45.278l16.021,6.171c0.487-0.257,3.236-2.112,6.679-12.441l-14.005-6.019 c-0.195,0.924-0.793,3.438-1.983,5.933C208.663,42.559,206.36,44.73,203.686,45.278z"/></g><g id="change2_94"><path d="M218.384 35.242L219.33 33.463 222.4 35.043 221.798 36.71z"/></g><g id="change2_95"><path d="M221.798,37.009c-0.04,0-0.081-0.008-0.118-0.024l-3.414-1.467c-0.077-0.033-0.137-0.097-0.165-0.176 c-0.027-0.079-0.021-0.167,0.019-0.241l0.946-1.779c0.077-0.146,0.258-0.201,0.402-0.126l3.07,1.58 c0.134,0.069,0.195,0.227,0.145,0.369l-0.603,1.667c-0.028,0.078-0.087,0.14-0.163,0.173 C221.879,37.001,221.839,37.009,221.798,37.009z M218.802,35.095l2.822,1.213l0.404-1.119l-2.572-1.324L218.802,35.095z"/></g><g id="change2_96"><path d="M311.502,49.637l-1.546,2.585l15.365,5.506c0,0,5.762-6.274,6.914-15.749L311.502,49.637z"/></g><g id="change2_97"><path d="M325.321,58.027c-0.034,0-0.068-0.005-0.102-0.018l-15.365-5.506c-0.084-0.03-0.15-0.097-0.181-0.181 s-0.021-0.178,0.024-0.255l1.546-2.584c0.035-0.059,0.09-0.104,0.154-0.127l20.733-7.659c0.096-0.037,0.206-0.019,0.29,0.046 c0.082,0.065,0.124,0.168,0.111,0.271c-1.15,9.461-6.933,15.853-6.991,15.916C325.484,57.993,325.403,58.027,325.321,58.027z M310.401,52.062l14.829,5.313c0.84-0.98,5.491-6.729,6.643-14.944l-20.168,7.45L310.401,52.062z"/></g><g id="change1_47"><path fill="#f1f1f1" d="M317.638,35.704c0,0-2.177,12.42-9.731,12.548l17.286,6.658c0,0,3.073-0.896,7.042-12.932L317.638,35.704z"/></g><g id="change2_98"><path d="M325.193,55.21c-0.037,0-0.073-0.006-0.107-0.02L307.8,48.532c-0.135-0.051-0.213-0.191-0.188-0.332 c0.024-0.142,0.146-0.245,0.29-0.248c7.219-0.123,9.42-12.179,9.44-12.3c0.017-0.09,0.072-0.168,0.153-0.212 c0.08-0.044,0.177-0.049,0.261-0.012l14.597,6.274c0.144,0.061,0.216,0.222,0.167,0.369c-3.973,12.048-7.111,13.088-7.243,13.126 C325.25,55.206,325.222,55.21,325.193,55.21z M309.165,48.415l16.021,6.171c0.487-0.257,3.236-2.111,6.678-12.441l-14.004-6.02 c-0.195,0.924-0.793,3.438-1.983,5.934C314.143,45.696,311.841,47.867,309.165,48.415z"/></g><g id="change2_99"><path d="M323.863 38.379L324.809 36.6 327.879 38.18 327.277 39.847z"/></g><g id="change2_100"><path d="M327.277,40.146c-0.04,0-0.081-0.008-0.118-0.024l-3.414-1.467c-0.077-0.033-0.137-0.097-0.165-0.176 c-0.027-0.079-0.021-0.167,0.019-0.24l0.945-1.779c0.078-0.146,0.261-0.201,0.402-0.126l3.07,1.58 c0.134,0.069,0.195,0.227,0.145,0.369l-0.602,1.667c-0.028,0.078-0.087,0.14-0.163,0.173 C327.358,40.138,327.318,40.146,327.277,40.146z M324.281,38.232l2.822,1.213l0.403-1.119l-2.572-1.324L324.281,38.232z"/></g><g id="change2_101"><path d="M259.792 59.392L259.792 61.825 276.189 61.825 276.189 48.828z"/></g><g id="change2_102"><path d="M276.188,62.125h-16.396c-0.166,0-0.3-0.134-0.3-0.3v-2.433c0-0.102,0.052-0.197,0.138-0.252l16.396-10.563 c0.091-0.062,0.209-0.065,0.306-0.011c0.097,0.052,0.156,0.153,0.156,0.263v12.997C276.488,61.99,276.354,62.125,276.188,62.125z M260.092,61.525h15.797V49.378l-15.797,10.177V61.525z"/></g><g id="change1_48"><path fill="#f1f1f1" d="M259.471,44.155c0,0,1.985,13.829-4.033,15.237h17.926c0,0,3.969-4.482,2.497-15.237H259.471z"/></g><g id="change2_103"><path d="M273.364,59.691h-17.926c-0.152,0-0.28-0.114-0.298-0.266s0.081-0.292,0.229-0.326c5.682-1.33,3.824-14.767,3.805-14.902 c-0.013-0.086,0.014-0.173,0.07-0.239c0.057-0.066,0.14-0.104,0.227-0.104h16.39c0.15,0,0.277,0.11,0.297,0.259 c1.475,10.768-2.403,15.289-2.569,15.476C273.532,59.655,273.45,59.691,273.364,59.691z M256.885,59.092h16.336 c0.544-0.713,3.603-5.206,2.378-14.637h-15.785C260.063,46.471,261.05,56.333,256.885,59.092z"/></g><g id="change2_104"><path d="M269.907,44.155h-4.93v-1.559c0-0.235,0.191-0.426,0.426-0.426h4.077c0.235,0,0.426,0.191,0.426,0.426V44.155z"/></g><g id="change2_105"><path d="M269.907,44.455h-4.93c-0.166,0-0.3-0.134-0.3-0.3v-1.559c0-0.4,0.325-0.726,0.726-0.726h4.077 c0.4,0,0.727,0.326,0.727,0.726v1.559C270.207,44.32,270.073,44.455,269.907,44.455z M265.277,43.855h4.33v-1.259 c0-0.07-0.057-0.126-0.127-0.126h-4.077c-0.069,0-0.126,0.057-0.126,0.126V43.855z"/></g><g id="change2_106"><path d="M291.51 86.759L291.51 89.192 307.907 89.192 307.907 76.196z"/></g><g id="change2_107"><path d="M307.907,89.492H291.51c-0.166,0-0.3-0.134-0.3-0.3v-2.433c0-0.102,0.052-0.197,0.138-0.252l16.397-10.563 c0.091-0.061,0.209-0.065,0.306-0.011c0.097,0.052,0.156,0.153,0.156,0.263v12.996C308.207,89.357,308.073,89.492,307.907,89.492z M291.81,88.892h15.798V76.746L291.81,86.923V88.892z"/></g><g id="change1_49"><path fill="#f1f1f1" d="M291.19,71.522c0,0,1.985,13.829-4.033,15.237h17.926c0,0,3.969-4.482,2.497-15.237H291.19z"/></g><g id="change2_108"><path d="M305.083,87.059h-17.927c-0.152,0-0.28-0.114-0.298-0.266s0.081-0.292,0.229-0.326c5.683-1.33,3.825-14.767,3.806-14.903 c-0.013-0.086,0.014-0.173,0.07-0.239c0.057-0.066,0.14-0.104,0.227-0.104h16.39c0.15,0,0.277,0.11,0.297,0.259 c1.474,10.769-2.403,15.29-2.569,15.477C305.251,87.022,305.169,87.059,305.083,87.059z M288.603,86.459h16.337 c0.544-0.713,3.602-5.206,2.378-14.638h-15.785C291.782,73.838,292.769,83.7,288.603,86.459z"/></g><g id="change2_109"><path d="M301.626,71.522h-4.93v-1.559c0-0.235,0.191-0.426,0.426-0.426h4.077c0.235,0,0.426,0.191,0.426,0.426V71.522z"/></g><g id="change2_110"><path d="M301.626,71.822h-4.93c-0.166,0-0.3-0.134-0.3-0.3v-1.559c0-0.4,0.325-0.726,0.726-0.726h4.077 c0.4,0,0.727,0.325,0.727,0.726v1.559C301.926,71.688,301.792,71.822,301.626,71.822z M296.996,71.222h4.33v-1.259 c0-0.069-0.057-0.126-0.127-0.126h-4.077c-0.069,0-0.126,0.057-0.126,0.126V71.222z"/></g><g id="change2_111"><path d="M250.08 113.548L249.697 115.95 265.89 118.53 267.935 105.696z"/></g><g id="change2_112"><path d="M265.89,118.83c-0.016,0-0.031-0.001-0.047-0.003l-16.192-2.58c-0.079-0.013-0.149-0.056-0.196-0.12 s-0.065-0.145-0.053-0.224l0.383-2.402c0.016-0.101,0.082-0.186,0.175-0.227l17.855-7.852c0.101-0.045,0.217-0.03,0.305,0.037 c0.087,0.067,0.13,0.176,0.112,0.285l-2.045,12.834c-0.012,0.079-0.056,0.149-0.12,0.195 C266.015,118.811,265.952,118.83,265.89,118.83z M250.041,115.701l15.6,2.486l1.911-11.995l-17.201,7.565L250.041,115.701z"/></g><g id="change1_50"><path fill="#f1f1f1" d="M252.161,98.45c0,0-0.216,13.969-6.381,14.413l17.703,2.821c0,0,4.625-3.801,4.863-14.654L252.161,98.45z"/></g><g id="change2_113"><path d="M263.483,115.983c-0.016,0-0.031-0.001-0.047-0.003l-17.702-2.821c-0.15-0.024-0.26-0.157-0.253-0.309 c0.007-0.152,0.126-0.275,0.278-0.287c5.822-0.419,6.1-13.981,6.102-14.118c0.001-0.087,0.04-0.169,0.106-0.225 c0.067-0.056,0.156-0.08,0.24-0.067l16.186,2.579c0.148,0.024,0.256,0.153,0.253,0.303c-0.238,10.867-4.779,14.721-4.973,14.88 C263.62,115.96,263.553,115.983,263.483,115.983z M247.256,112.794l16.133,2.571c0.649-0.619,4.377-4.575,4.651-14.081 L252.452,98.8C252.381,100.831,251.804,110.725,247.256,112.794z"/></g><g id="change2_114"><path d="M262.467,100.092l-4.868-0.776l0.245-1.539c0.037-0.232,0.255-0.391,0.488-0.354l4.027,0.642 c0.232,0.037,0.391,0.255,0.354,0.488L262.467,100.092z"/></g><g id="change2_115"><path d="M262.467,100.392c-0.016,0-0.031-0.001-0.047-0.003l-4.868-0.776c-0.164-0.026-0.275-0.18-0.249-0.344l0.245-1.539 c0.062-0.396,0.442-0.659,0.831-0.603l4.026,0.642c0.192,0.031,0.36,0.134,0.474,0.291c0.114,0.157,0.16,0.349,0.129,0.541 l-0.245,1.54c-0.012,0.079-0.056,0.149-0.12,0.195C262.592,100.373,262.529,100.392,262.467,100.392z M257.942,99.067l4.275,0.682 l0.198-1.244c0.009-0.059-0.046-0.135-0.104-0.144l-4.026-0.642c-0.066-0.012-0.134,0.036-0.146,0.105L257.942,99.067z"/></g><g id="change2_116"><path d="M280.534,77.17c-0.019,0-0.037-0.002-0.056-0.005c-6.059-1.145-9.115-4.212-10.613-6.585 c-1.628-2.579-1.811-4.86-1.817-4.956c-0.013-0.165,0.111-0.309,0.276-0.321c0.183-0.022,0.31,0.112,0.321,0.277 c0.002,0.022,0.186,2.25,1.743,4.705c1.436,2.261,4.371,5.188,10.201,6.29c0.163,0.031,0.27,0.188,0.239,0.351 C280.802,77.069,280.676,77.17,280.534,77.17z"/></g><g id="change2_117"><path d="M277.942,79.44c-0.092,0-0.183-0.042-0.241-0.122c-0.099-0.133-0.07-0.321,0.062-0.419l2.851-2.106l-1.732-2.772 c-0.087-0.141-0.045-0.326,0.096-0.414c0.14-0.086,0.325-0.045,0.414,0.095l1.879,3.007c0.083,0.133,0.05,0.307-0.076,0.4 l-3.073,2.271C278.067,79.421,278.005,79.44,277.942,79.44z"/></g><g id="change2_118"><path d="M233.698,66.305c-0.046,0-0.093-0.011-0.137-0.033c-0.147-0.075-0.206-0.256-0.13-0.403c0.01-0.02,1.013-2.018,0.961-4.925 c-0.049-2.678-1.031-6.705-5.437-10.681c-0.123-0.111-0.133-0.301-0.021-0.424s0.3-0.133,0.424-0.021 c4.578,4.131,5.591,8.342,5.635,11.147c0.047,3.049-0.984,5.093-1.028,5.178C233.912,66.246,233.807,66.305,233.698,66.305z"/></g><g id="change2_119"><path d="M228.786,53.635c-0.164,0-0.298-0.132-0.3-0.296l-0.039-3.546c-0.002-0.157,0.117-0.288,0.273-0.302l3.806-0.339 c0.164-0.023,0.311,0.107,0.325,0.272s-0.107,0.311-0.272,0.326l-3.529,0.314l0.036,3.269c0.002,0.166-0.131,0.302-0.297,0.303 C228.788,53.635,228.787,53.635,228.786,53.635z"/></g><g id="change2_120"><path d="M281.304,112.49c-0.142,0-0.268-0.101-0.295-0.245c-0.03-0.163,0.076-0.32,0.239-0.351c5.83-1.101,8.766-4.028,10.201-6.29 c1.558-2.455,1.741-4.683,1.743-4.705c0.012-0.165,0.128-0.309,0.321-0.277c0.165,0.012,0.289,0.156,0.276,0.321 c-0.007,0.096-0.189,2.377-1.817,4.956c-1.498,2.372-4.555,5.44-10.613,6.585C281.341,112.488,281.322,112.49,281.304,112.49z"/></g><g id="change2_121"><path d="M283.895,114.76c-0.062,0-0.125-0.019-0.179-0.059l-3.073-2.271c-0.126-0.093-0.159-0.268-0.075-0.4l1.88-3.007 c0.088-0.141,0.271-0.183,0.413-0.095c0.141,0.088,0.183,0.273,0.095,0.414l-1.732,2.772l2.851,2.106 c0.133,0.099,0.161,0.286,0.062,0.419C284.078,114.718,283.987,114.76,283.895,114.76z"/></g><g id="change2_122"><path d="M244,33.763c-0.159,0-0.292-0.125-0.3-0.286c-0.008-0.166,0.12-0.306,0.286-0.313l52.696-2.433 c0.179,0.007,0.306,0.12,0.313,0.286c0.008,0.166-0.12,0.306-0.286,0.313l-52.696,2.433C244.009,33.763,244.005,33.763,244,33.763z"/></g><g id="change2_123"><path d="M248.268,27.916c-0.113,0-0.223-0.065-0.272-0.175c-0.069-0.151-0.003-0.329,0.147-0.398 c1.224-0.56,3.104-1.484,5.051-2.555c-0.712-1.82-0.199-4.542,1.273-6.374c1.396-1.735,3.373-2.34,5.419-1.668 c1.086,0.358,1.657,0.908,1.698,1.635c0.106,1.917-3.937,4.621-7.596,6.666c0.59,0.953,1.637,1.324,3.022,1.079 c2.353-0.417,4.311-1.215,5.749-2.051c-0.372-0.613-0.373-1.353-0.001-2.043c0.449-0.834,1.32-1.373,2.219-1.373 c0.934,0,1.08,0.52,1.1,0.743c0.062,0.714-0.833,1.792-2.395,2.813c0.613,0.481,1.909,0.951,4.638,0.713 c7.632-0.673,20.201-4.222,20.327-4.258c0.161-0.044,0.325,0.047,0.371,0.207c0.045,0.16-0.048,0.325-0.207,0.371 c-0.127,0.036-12.75,3.601-20.438,4.278c-3.033,0.268-4.51-0.311-5.227-0.979c-1.555,0.917-3.64,1.747-6.03,2.17 c-1.643,0.292-2.938-0.198-3.653-1.379c-2.402,1.315-4.539,2.309-5.07,2.552C248.352,27.907,248.31,27.916,248.268,27.916z M258.252,17.071c-1.647,0-2.748,1.011-3.317,1.719c-1.33,1.655-1.816,4.08-1.213,5.704c3.649-2.047,7.349-4.542,7.263-6.081 c-0.025-0.456-0.458-0.825-1.286-1.098C259.177,17.144,258.694,17.071,258.252,17.071z M264.978,21.257 c-0.67,0-1.35,0.425-1.691,1.058c-0.267,0.496-0.271,1.019-0.015,1.446c1.454-0.934,2.247-1.861,2.208-2.308 C265.464,21.283,265.158,21.257,264.978,21.257z"/></g></g><g><g id="change2_1"><path d="M382.862,110.461c0,0-3.347-5.711-1.184-10.6c2.163-4.889,8.023-8.029,14.791-5.029s8.616,10.852,13.953,14.302 c6.907,4.465,1.744,16.046-7.326,16.116C394.026,125.32,382.862,110.461,382.862,110.461z"/></g><g id="change2_2"><path d="M403.032,125.551c-9.104,0-19.952-14.299-20.411-14.91c-0.007-0.009-0.013-0.019-0.019-0.028 c-0.14-0.239-3.399-5.9-1.199-10.874c1.133-2.56,3.259-4.612,5.833-5.63c2.885-1.14,6.12-0.985,9.354,0.449 c3.855,1.709,6.128,4.937,8.325,8.057c1.729,2.456,3.362,4.776,5.67,6.268c2.889,1.868,3.991,5.12,2.95,8.7 c-1.107,3.808-4.846,7.925-10.437,7.968C403.077,125.551,403.054,125.551,403.032,125.551z M383.112,110.295 c0.403,0.532,11.238,14.656,19.921,14.656c0.021,0,0.04,0,0.062,0c5.283-0.041,8.816-3.935,9.864-7.536 c0.963-3.312-0.046-6.313-2.7-8.029c-2.404-1.555-4.07-3.921-5.835-6.426c-2.149-3.054-4.373-6.212-8.077-7.854 c-3.085-1.368-6.16-1.52-8.89-0.439c-2.429,0.961-4.436,2.898-5.505,5.315C379.927,104.561,382.932,109.978,383.112,110.295z"/></g><g id="change1_1"><path fill="#f1f1f1" d="M387.256,100.813c0,0-3.841,1.833-3.838,8.112c0,0-1.741,4.674-1.741,5.442s1.996,0,1.996,0 s-0.618,9.138,8.181,6.837l-0.48,6.419l1.814,4.814l5.163,0.394l5.295-5.975l2.016,0.671l-2.962-13.972 c0,0,2.527-1.594,1.217-5.205s-4.339,0.693-4.339,0.693S390.183,107.003,387.256,100.813z"/></g><g id="change2_3"><path d="M398.353,133.13c-0.008,0-0.016,0-0.022,0l-5.163-0.394c-0.116-0.009-0.217-0.084-0.258-0.193l-1.814-4.814 c-0.016-0.041-0.022-0.085-0.019-0.128l0.449-6.006c-2.489,0.57-4.467,0.271-5.877-0.895c-2.071-1.715-2.283-4.763-2.285-5.907 c-0.535,0.166-1.339,0.344-1.73,0.074c-0.165-0.113-0.255-0.29-0.255-0.499c0-0.775,1.49-4.822,1.74-5.496 c0.019-6.352,3.845-8.251,4.009-8.329c0.071-0.035,0.156-0.04,0.229-0.012c0.075,0.027,0.137,0.083,0.171,0.154 c2.605,5.51,10.597,7.692,11.928,8.021c0.435-0.576,1.819-2.263,3.174-2.085c0.684,0.091,1.212,0.639,1.571,1.627 c1.168,3.218-0.589,4.965-1.166,5.433l2.923,13.785c0.021,0.105-0.014,0.214-0.094,0.286c-0.081,0.072-0.193,0.093-0.295,0.061 l-1.828-0.609l-5.163,5.827C398.52,133.094,398.438,133.13,398.353,133.13z M393.402,132.152l4.824,0.368l5.196-5.863 c0.079-0.09,0.202-0.124,0.319-0.086l1.519,0.506l-2.854-13.459c-0.025-0.122,0.028-0.248,0.133-0.315 c0.095-0.061,2.304-1.521,1.096-4.849c-0.276-0.762-0.642-1.178-1.086-1.237c-0.966-0.136-2.302,1.399-2.726,2.001 c-0.068,0.099-0.188,0.148-0.309,0.12c-0.384-0.083-9.289-2.08-12.388-8.105c-0.842,0.53-3.412,2.57-3.41,7.694 c0,0.036-0.006,0.071-0.019,0.104c-0.666,1.788-1.722,4.818-1.722,5.337c0.137,0.121,0.907-0.019,1.589-0.28 c0.094-0.036,0.204-0.021,0.285,0.039c0.083,0.061,0.128,0.159,0.122,0.261c-0.003,0.04-0.235,3.955,2.06,5.852 c1.33,1.099,3.263,1.325,5.746,0.675c0.096-0.024,0.195-0.002,0.269,0.06c0.074,0.062,0.114,0.156,0.106,0.253l-0.476,6.353 L393.402,132.152z"/></g><g id="change4_1"><path fill="#5ac596" d="M281.594,173.066h39.641c0.815,0,1.521,0.562,1.701,1.353l6.824,29.912h26.103v3.284h-27.539h-3.595 h-36.047c-0.814,0-1.521-0.562-1.701-1.353l-7.089-31.073C279.644,174.102,280.474,173.066,281.594,173.066z"/></g><g id="change2_4"><path d="M355.863,207.916h-67.181c-0.961,0-1.78-0.652-1.994-1.587l-7.089-31.073c-0.138-0.606,0.006-1.233,0.394-1.72 c0.391-0.489,0.974-0.77,1.601-0.77h39.642c0.961,0,1.78,0.652,1.993,1.586l6.771,29.68h25.863c0.166,0,0.3,0.134,0.3,0.3v3.284 C356.163,207.782,356.029,207.916,355.863,207.916z M281.594,173.366c-0.443,0-0.855,0.198-1.132,0.544 c-0.273,0.343-0.374,0.785-0.276,1.212l7.089,31.074c0.15,0.659,0.729,1.12,1.408,1.12h66.881v-2.685h-25.803 c-0.14,0-0.262-0.097-0.293-0.233l-6.824-29.912c-0.15-0.66-0.729-1.12-1.408-1.12H281.594z"/></g><g id="change4_2"><path fill="#5ac596" d="M277.528,175.066l7.089,31.192c0.181,0.794,0.887,1.358,1.701,1.358h39.641c1.12,0,1.949-1.04,1.701-2.131 l-7.089-31.192c-0.181-0.794-0.887-1.358-1.701-1.358h-39.641C278.109,172.935,277.28,173.975,277.528,175.066z"/></g><g id="change2_5"><path d="M325.959,207.916h-39.641c-0.961,0-1.78-0.654-1.994-1.592l-7.089-31.191c-0.139-0.609,0.005-1.239,0.396-1.728 c0.39-0.489,0.973-0.77,1.599-0.77h39.641c0.962,0,1.782,0.654,1.994,1.591l7.09,31.191c0.138,0.609-0.006,1.24-0.396,1.729 C327.167,207.636,326.585,207.916,325.959,207.916z M279.229,173.235c-0.442,0-0.854,0.198-1.13,0.544 c-0.275,0.345-0.377,0.791-0.278,1.221c0,0,0,0,0,0l7.089,31.191c0.15,0.662,0.729,1.125,1.408,1.125h39.641 c0.442,0,0.854-0.198,1.13-0.544c0.275-0.346,0.378-0.791,0.279-1.222l-7.09-31.191c-0.149-0.662-0.729-1.125-1.408-1.125H279.229z"/></g><g id="change1_2"><ellipse rx="3.576" ry="4.768" fill="#f1f1f1" cx="301.767" transform="rotate(-12.973 301.783 189.402)" cy="189.395"/></g><g id="change2_6"><path d="M302.219,194.411c-0.81,0-1.625-0.32-2.353-0.934c-0.91-0.768-1.576-1.908-1.876-3.212 c-0.627-2.724,0.557-5.329,2.639-5.809c1.025-0.238,2.104,0.068,3.038,0.855c0.91,0.768,1.576,1.909,1.876,3.213l0,0l0,0 c0.301,1.304,0.201,2.621-0.281,3.709c-0.495,1.117-1.332,1.863-2.357,2.099C302.678,194.386,302.448,194.411,302.219,194.411z M301.311,184.979c-0.185,0-0.367,0.021-0.548,0.062c-1.76,0.405-2.742,2.688-2.189,5.09c0.271,1.178,0.868,2.203,1.679,2.888 c0.787,0.663,1.678,0.922,2.517,0.73c0.837-0.193,1.527-0.817,1.944-1.758c0.43-0.97,0.517-2.153,0.245-3.331l0,0 c-0.271-1.179-0.867-2.204-1.679-2.889C302.664,185.251,301.98,184.979,301.311,184.979z"/></g><g id="change1_3"><path fill="#f1f1f1" d="M361.959 212.973L359.504 212.973 355.647 212.973 353.193 212.973 386.154 332.894 388.608 332.894 392.465 332.894 394.92 332.894z"/></g><g id="change2_7"><path d="M394.92,333.194h-8.767c-0.135,0-0.254-0.09-0.289-0.221l-32.961-119.922c-0.025-0.09-0.006-0.187,0.051-0.261 s0.145-0.118,0.238-0.118h8.767c0.135,0,0.254,0.09,0.289,0.221l32.961,119.922c0.025,0.09,0.006,0.187-0.051,0.261 S395.014,333.194,394.92,333.194z M386.382,332.595h8.145L361.73,213.272h-8.145L386.382,332.595z"/></g><g id="change1_4"><path fill="#f1f1f1" d="M359.504 212.973L355.647 212.973 353.193 212.973 320.232 332.894 322.686 332.894 326.544 332.894 328.998 332.894 361.959 212.973z"/></g><g id="change2_8"><path d="M328.998,333.194h-8.767c-0.094,0-0.182-0.044-0.238-0.118s-0.076-0.171-0.051-0.261l32.961-119.922 c0.035-0.131,0.154-0.221,0.289-0.221h8.767c0.094,0,0.182,0.044,0.238,0.118s0.076,0.171,0.051,0.261l-32.961,119.922 C329.252,333.104,329.133,333.194,328.998,333.194z M320.625,332.595h8.145l32.796-119.322h-8.145L320.625,332.595z"/></g><g id="change1_5"><path fill="#f1f1f1" d="M158.656 212.973L156.202 212.973 152.345 212.973 149.89 212.973 182.851 332.894 185.306 332.894 189.163 332.894 191.617 332.894z"/></g><g id="change2_9"><path d="M191.617,333.194h-8.766c-0.135,0-0.254-0.09-0.289-0.221l-32.961-119.922c-0.025-0.09-0.006-0.187,0.051-0.261 s0.145-0.118,0.238-0.118h8.766c0.135,0,0.254,0.09,0.289,0.221l32.961,119.922c0.025,0.09,0.006,0.187-0.051,0.261 S191.711,333.194,191.617,333.194z M183.08,332.595h8.144l-32.796-119.322h-8.144L183.08,332.595z"/></g><g id="change1_6"><path fill="#f1f1f1" d="M156.202 212.973L152.345 212.973 149.89 212.973 116.929 332.894 119.384 332.894 123.241 332.894 125.696 332.894 158.656 212.973z"/></g><g id="change2_10"><path d="M125.695,333.194h-8.766c-0.094,0-0.182-0.044-0.238-0.118s-0.076-0.171-0.051-0.261l32.961-119.922 c0.035-0.131,0.154-0.221,0.289-0.221h8.766c0.094,0,0.182,0.044,0.238,0.118s0.076,0.171,0.051,0.261l-32.961,119.922 C125.949,333.104,125.83,333.194,125.695,333.194z M117.323,332.595h8.144l32.796-119.322h-8.144L117.323,332.595z"/></g><g id="change1_7"><path fill="#f1f1f1" d="M113.72 207.634L113.72 213.871 158.466 213.871 158.466 207.76z"/></g><g id="change2_11"><path d="M158.466,214.171H113.72c-0.166,0-0.3-0.134-0.3-0.3v-6.237c0-0.08,0.031-0.156,0.088-0.213 c0.057-0.056,0.133-0.087,0.212-0.087h0.001l44.746,0.126c0.165,0,0.299,0.135,0.299,0.3v6.111 C158.766,214.037,158.632,214.171,158.466,214.171z M114.019,213.571h44.146v-5.513l-44.146-0.124V213.571z"/></g><g id="change1_8"><path fill="#f1f1f1" d="M156.564 207.634L156.564 213.871 384.073 213.871 384.073 207.76z"/></g><g id="change2_12"><path d="M384.073,214.171H156.564c-0.166,0-0.3-0.134-0.3-0.3v-6.237c0-0.08,0.031-0.156,0.088-0.212 c0.056-0.057,0.133-0.088,0.212-0.088l0,0l227.509,0.126c0.166,0,0.3,0.134,0.3,0.3v6.111 C384.373,214.037,384.239,214.171,384.073,214.171z M156.864,213.571h226.909v-5.512l-226.909-0.126V213.571z"/></g><g id="change3_1"><circle fill="#f1f1f1" r="3.734" cx="16.349" cy="327.798"/></g><g id="change2_13"><path d="M16.349,331.832c-2.225,0-4.034-1.81-4.034-4.034s1.81-4.034,4.034-4.034s4.034,1.81,4.034,4.034 S18.573,331.832,16.349,331.832z M16.349,324.363c-1.894,0-3.435,1.541-3.435,3.435s1.541,3.435,3.435,3.435 s3.435-1.541,3.435-3.435S18.242,324.363,16.349,324.363z"/></g><g id="change3_2"><path fill="#f1f1f1" d="M40.065 268.642H44.349999999999994V314.608H40.065z"/></g><g id="change2_14"><path d="M44.35,314.907h-4.285c-0.166,0-0.3-0.134-0.3-0.3v-45.965c0-0.166,0.134-0.3,0.3-0.3h4.285c0.166,0,0.3,0.134,0.3,0.3 v45.965C44.649,314.773,44.516,314.907,44.35,314.907z M40.364,314.308h3.686v-45.365h-3.686V314.308z"/></g><g id="change3_3"><circle fill="#f1f1f1" r="3.734" cx="66.902" cy="327.798"/></g><g id="change2_15"><path d="M66.901,331.832c-2.225,0-4.034-1.81-4.034-4.034s1.81-4.034,4.034-4.034s4.034,1.81,4.034,4.034 S69.126,331.832,66.901,331.832z M66.901,324.363c-1.894,0-3.435,1.541-3.435,3.435s1.541,3.435,3.435,3.435 s3.435-1.541,3.435-3.435S68.795,324.363,66.901,324.363z"/></g><g id="change3_4"><path fill="#f1f1f1" d="M13.548,321.863l20.609-5.529v-0.073c0-4.429,3.591-8.02,8.02-8.02h0c4.429,0,8.019,3.59,8.019,8.02v0.402 l19.384,5.201c1.21,0.325,1.95,1.545,1.678,2.768c-0.275,1.236-1.483,2.03-2.727,1.791l-20.05-3.856h-6.489h-0.857h-6.489 l-20.05,3.856c-1.244,0.239-2.452-0.554-2.727-1.791C11.598,323.408,12.338,322.188,13.548,321.863z"/></g><g id="change2_16"><path d="M14.144,326.766c-1.215,0-2.291-0.835-2.566-2.069c-0.308-1.385,0.524-2.756,1.894-3.123l20.39-5.47 c0.121-4.553,3.805-8.162,8.316-8.162c4.587,0,8.319,3.732,8.319,8.319v0.171l19.163,5.142c1.369,0.367,2.201,1.739,1.893,3.123 c-0.312,1.405-1.662,2.284-3.076,2.021l-20.05-3.855l-13.778,0.005l-19.994,3.851C14.482,326.749,14.311,326.766,14.144,326.766z M42.177,308.541c-4.257,0-7.72,3.463-7.72,7.72c0,0.136-0.091,0.328-0.222,0.363l-20.608,5.529c0,0,0,0-0.001,0 c-1.058,0.283-1.7,1.343-1.463,2.412c0.241,1.086,1.288,1.773,2.377,1.562l20.051-3.855l13.892-0.005l20.106,3.86 c1.101,0.211,2.136-0.477,2.377-1.562c0.238-1.069-0.404-2.129-1.463-2.412l-19.385-5.201c-0.131-0.035-0.222-0.154-0.222-0.29 v-0.401C49.896,312.004,46.434,308.541,42.177,308.541z M13.549,321.863h0.008H13.549z"/></g><g id="change1_9"><path fill="#f1f1f1" d="M68.187,334.848h30.977c0,0-1.013-3.908-7.238-5.211c-2.588-0.542-7.382-0.434-9.119-5.356 c-1.311-3.713,0.907-11.001,0.907-11.001h-11.87L68.187,334.848z"/></g><g id="change2_17"><path d="M99.164,335.147H68.186c-0.088,0-0.172-0.039-0.229-0.106c-0.057-0.067-0.081-0.156-0.066-0.243l3.658-21.567 c0.024-0.145,0.149-0.25,0.296-0.25h11.869c0.095,0,0.185,0.045,0.241,0.121s0.073,0.175,0.046,0.266 c-0.022,0.072-2.174,7.236-0.911,10.814c1.413,4.003,4.97,4.543,7.567,4.937c0.482,0.073,0.932,0.142,1.33,0.225 c6.334,1.326,7.424,5.263,7.467,5.43c0.023,0.09,0.004,0.186-0.053,0.259S99.257,335.147,99.164,335.147z M68.542,334.548h30.188 c-0.441-0.981-2.047-3.609-6.865-4.617c-0.389-0.082-0.827-0.148-1.298-0.22c-2.747-0.416-6.51-0.987-8.043-5.33 c-1.168-3.311,0.347-9.221,0.791-10.801H72.098L68.542,334.548z"/></g><g id="change1_10"><path fill="#f1f1f1" d="M68.588 332.875L97.605 332.875"/></g><g id="change2_18"><path d="M97.605,333.176H68.588c-0.166,0-0.3-0.134-0.3-0.3s0.134-0.3,0.3-0.3h29.018c0.166,0,0.3,0.134,0.3,0.3 S97.771,333.176,97.605,333.176z"/></g><g id="change1_11"><path fill="#f1f1f1" d="M99.164,334.848h30.977c0,0-1.013-3.908-7.238-5.211c-2.588-0.542-7.382-0.434-9.119-5.356 c-1.311-3.713,0.907-11.001,0.907-11.001h-11.87L99.164,334.848z"/></g><g id="change2_19"><path d="M130.141,335.147H99.164c-0.088,0-0.172-0.039-0.229-0.106c-0.057-0.067-0.081-0.156-0.066-0.243l3.657-21.567 c0.024-0.145,0.149-0.25,0.296-0.25h11.869c0.095,0,0.185,0.045,0.241,0.121s0.073,0.175,0.046,0.266 c-0.022,0.072-2.174,7.236-0.911,10.814c1.413,4.003,4.97,4.543,7.567,4.937c0.482,0.073,0.932,0.142,1.33,0.225 c6.334,1.326,7.424,5.263,7.467,5.43c0.023,0.09,0.004,0.186-0.053,0.259S130.233,335.147,130.141,335.147z M99.519,334.548h30.187 c-0.441-0.981-2.047-3.609-6.865-4.617c-0.389-0.082-0.827-0.148-1.298-0.22c-2.747-0.416-6.51-0.987-8.043-5.33 c-1.168-3.311,0.347-9.221,0.791-10.801h-11.217L99.519,334.548z"/></g><g id="change1_12"><path fill="#f1f1f1" d="M99.564 332.875L128.582 332.875"/></g><g id="change2_20"><path d="M128.582,333.176H99.564c-0.166,0-0.3-0.134-0.3-0.3s0.134-0.3,0.3-0.3h29.018c0.166,0,0.3,0.134,0.3,0.3 S128.748,333.176,128.582,333.176z"/></g><g id="change1_13"><path fill="#f1f1f1" d="M132.123,334.848h30.977c0,0-1.013-3.908-7.238-5.211c-2.588-0.542-7.382-0.434-9.119-5.356 c-1.311-3.713,0.907-11.001,0.907-11.001h-11.87L132.123,334.848z"/></g><g id="change2_21"><path d="M163.1,335.147h-30.977c-0.088,0-0.172-0.039-0.229-0.106c-0.057-0.067-0.081-0.156-0.066-0.243l3.657-21.567 c0.024-0.145,0.149-0.25,0.296-0.25h11.869c0.095,0,0.185,0.045,0.241,0.121s0.073,0.175,0.046,0.266 c-0.022,0.072-2.174,7.236-0.911,10.814c1.413,4.003,4.971,4.543,7.567,4.937c0.483,0.073,0.933,0.142,1.331,0.225 c6.333,1.326,7.423,5.263,7.466,5.43c0.023,0.09,0.004,0.186-0.053,0.259S163.192,335.147,163.1,335.147z M132.478,334.548h30.187 c-0.441-0.981-2.047-3.609-6.864-4.617c-0.389-0.082-0.827-0.148-1.298-0.22c-2.747-0.416-6.511-0.987-8.044-5.33 c-1.168-3.311,0.347-9.221,0.791-10.801h-11.217L132.478,334.548z"/></g><g id="change1_14"><path fill="#f1f1f1" d="M132.523 332.875L161.541 332.875"/></g><g id="change2_22"><path d="M161.541,333.176h-29.018c-0.166,0-0.3-0.134-0.3-0.3s0.134-0.3,0.3-0.3h29.018c0.166,0,0.3,0.134,0.3,0.3 S161.707,333.176,161.541,333.176z"/></g><g id="change1_15"><path fill="#f1f1f1" d="M176.129,334.848h30.977c0,0-1.013-3.908-7.238-5.211c-2.588-0.542-7.382-0.434-9.119-5.356 c-1.311-3.713,0.907-11.001,0.907-11.001h-11.87L176.129,334.848z"/></g><g id="change2_23"><path d="M207.105,335.147h-30.977c-0.088,0-0.172-0.039-0.229-0.106c-0.057-0.067-0.081-0.156-0.066-0.243l3.657-21.567 c0.024-0.145,0.149-0.25,0.296-0.25h11.87c0.095,0,0.185,0.045,0.241,0.121s0.073,0.175,0.046,0.266 c-0.022,0.072-2.174,7.236-0.911,10.814c1.412,4.003,4.97,4.543,7.566,4.937c0.483,0.073,0.933,0.142,1.331,0.225 c6.334,1.326,7.423,5.263,7.466,5.43c0.023,0.09,0.004,0.186-0.053,0.259S207.198,335.147,207.105,335.147z M176.484,334.548 h30.187c-0.441-0.981-2.046-3.609-6.864-4.617c-0.389-0.082-0.827-0.148-1.298-0.22c-2.747-0.416-6.511-0.987-8.043-5.33 c-1.168-3.311,0.347-9.221,0.791-10.801h-11.218L176.484,334.548z"/></g><g id="change1_16"><path fill="#f1f1f1" d="M176.529 332.875L205.547 332.875"/></g><g id="change2_24"><path d="M205.547,333.176h-29.018c-0.166,0-0.3-0.134-0.3-0.3s0.134-0.3,0.3-0.3h29.018c0.166,0,0.3,0.134,0.3,0.3 S205.713,333.176,205.547,333.176z"/></g><g id="change1_17"><path fill="#f1f1f1" d="M408.384,334.848h-30.977c0,0,1.013-3.908,7.238-5.211c2.588-0.542,7.382-0.434,9.119-5.356 c1.311-3.713-0.907-11.001-0.907-11.001h11.87L408.384,334.848z"/></g><g id="change2_25"><path d="M408.384,335.147h-30.977c-0.093,0-0.181-0.043-0.237-0.116s-0.076-0.169-0.053-0.259c0.043-0.167,1.133-4.104,7.467-5.43 c0.398-0.083,0.848-0.151,1.33-0.225c2.598-0.394,6.154-0.934,7.567-4.937c1.263-3.578-0.889-10.742-0.911-10.814 c-0.027-0.091-0.011-0.189,0.046-0.266s0.146-0.121,0.241-0.121h11.869c0.146,0,0.271,0.105,0.296,0.25l3.657,21.567 c0.015,0.087-0.01,0.176-0.066,0.243C408.556,335.108,408.472,335.147,408.384,335.147z M377.842,334.548h30.187l-3.555-20.968 h-11.217c0.444,1.58,1.959,7.49,0.791,10.801c-1.533,4.343-5.296,4.914-8.043,5.33c-0.471,0.071-0.909,0.138-1.298,0.22 C379.889,330.938,378.283,333.566,377.842,334.548z"/></g><g id="change1_18"><path fill="#f1f1f1" d="M407.984 332.875L378.966 332.875"/></g><g id="change2_26"><path d="M407.983,333.176h-29.018c-0.166,0-0.3-0.134-0.3-0.3s0.134-0.3,0.3-0.3h29.018c0.166,0,0.3,0.134,0.3,0.3 S408.149,333.176,407.983,333.176z"/></g><g id="change1_19"><path fill="#f1f1f1" d="M434.946,334.848H403.97c0,0,1.013-3.908,7.238-5.211c2.588-0.542,7.382-0.434,9.119-5.356 c1.311-3.713-0.907-11.001-0.907-11.001h11.87L434.946,334.848z"/></g><g id="change2_27"><path d="M434.946,335.147H403.97c-0.093,0-0.181-0.043-0.237-0.116s-0.076-0.169-0.053-0.259c0.043-0.167,1.133-4.104,7.466-5.43 c0.398-0.083,0.848-0.151,1.331-0.225c2.597-0.394,6.154-0.934,7.566-4.937c1.263-3.578-0.889-10.742-0.911-10.814 c-0.027-0.091-0.011-0.189,0.046-0.266s0.146-0.121,0.241-0.121h11.87c0.146,0,0.271,0.105,0.296,0.25l3.657,21.567 c0.015,0.087-0.01,0.176-0.066,0.243C435.118,335.108,435.034,335.147,434.946,335.147z M404.404,334.548h30.187l-3.555-20.968 h-11.218c0.444,1.58,1.959,7.49,0.791,10.801c-1.532,4.343-5.296,4.914-8.043,5.33c-0.471,0.071-0.909,0.138-1.298,0.22 C406.451,330.938,404.846,333.566,404.404,334.548z"/></g><g id="change1_20"><path fill="#f1f1f1" d="M434.546 332.875L405.528 332.875"/></g><g id="change2_28"><path d="M434.546,333.176h-29.018c-0.166,0-0.3-0.134-0.3-0.3s0.134-0.3,0.3-0.3h29.018c0.166,0,0.3,0.134,0.3,0.3 S434.712,333.176,434.546,333.176z"/></g><g id="change1_21"><path fill="#f1f1f1" d="M58.43,146.051c0,0,1.107,3.06,1.538,5.712c0,0,1.896,4.395,1.617,4.744 c-0.279,0.349-1.659,0.982-1.659,0.982s0.232,8.972-6.798,8.809l0.372,2.943l0.272,5.446l-9.209,3.309l-5.233-3.859l0.843-5.007 l0.969-10.941c0,0-5.633-3.252-3.269-7.699s6.689-8.354,6.689-8.354h10.116L58.43,146.051z"/></g><g id="change2_29"><path d="M44.562,178.294c-0.063,0-0.126-0.02-0.178-0.059l-5.233-3.858c-0.092-0.067-0.137-0.18-0.118-0.292l0.844-5.007 l0.949-10.734c-0.937-0.603-5.451-3.797-3.218-7.997c2.36-4.442,6.709-8.396,6.753-8.436c0.056-0.05,0.127-0.077,0.201-0.077 h10.116c0.082,0,0.16,0.033,0.217,0.092l3.751,3.916c0.028,0.03,0.051,0.066,0.065,0.105c0.011,0.031,1.122,3.118,1.553,5.766 c1.946,4.49,1.672,4.833,1.555,4.98c-0.26,0.325-1.171,0.783-1.593,0.984c-0.007,0.936-0.18,4.865-2.509,7.2 c-1.106,1.109-2.535,1.687-4.25,1.719l0.329,2.604l0.274,5.468c0.007,0.132-0.074,0.253-0.198,0.297l-9.209,3.309 C44.631,178.288,44.597,178.294,44.562,178.294z M39.655,174.004l4.956,3.653l8.85-3.179l-0.262-5.224l-0.37-2.92 c-0.011-0.086,0.017-0.174,0.075-0.239c0.058-0.064,0.135-0.104,0.229-0.099c1.723,0.042,3.099-0.479,4.157-1.541 c2.42-2.424,2.336-6.916,2.335-6.961c-0.003-0.12,0.065-0.23,0.175-0.281c0.514-0.235,1.288-0.641,1.514-0.857 c-0.006-0.458-0.83-2.643-1.621-4.477c-0.408-2.458-1.37-5.232-1.524-5.669l-3.618-3.777H44.68 c-0.612,0.569-4.411,4.186-6.542,8.195c-2.202,4.144,3.1,7.267,3.154,7.298c0.101,0.058,0.159,0.17,0.148,0.286l-0.969,10.941 L39.655,174.004z"/></g><g id="change1_22"><path fill="#f1f1f1" d="M173.046,104.856c0,0,1.253,5.692,1.235,8.765c0,0,2.074,3.723,1.712,4.467 c-0.362,0.744-1.921,0.414-1.921,0.414s0.369,7.863-8.431,6.562l-0.409,4.856l-7.564,5.378l-7.897-7.961l1.581-13.993l7.907-8.744 L173.046,104.856z"/></g><g id="change2_30"><path d="M157.668,135.597c-0.077,0-0.155-0.03-0.213-0.088l-7.896-7.96c-0.064-0.064-0.096-0.155-0.085-0.245l1.581-13.993 c0.007-0.062,0.033-0.121,0.075-0.167l7.907-8.744c0.058-0.064,0.124-0.094,0.229-0.099l13.786,0.256 c0.139,0.002,0.257,0.1,0.287,0.235c0.051,0.231,1.24,5.666,1.242,8.752c0.664,1.198,2.063,3.893,1.682,4.676 c-0.339,0.698-1.342,0.693-1.89,0.632c-0.028,0.925-0.286,3.389-2.135,5.061c-1.476,1.335-3.605,1.833-6.324,1.491l-0.383,4.541 c-0.007,0.088-0.053,0.168-0.125,0.219l-7.564,5.378C157.789,135.579,157.728,135.597,157.668,135.597z M150.086,127.227 l7.615,7.678l7.244-5.15l0.397-4.717c0.007-0.083,0.048-0.158,0.112-0.21c0.065-0.051,0.146-0.074,0.23-0.062 c2.688,0.397,4.755-0.039,6.146-1.295c2.056-1.856,1.943-4.925,1.941-4.956c-0.004-0.093,0.035-0.182,0.105-0.242 s0.168-0.086,0.256-0.065c0.435,0.091,1.394,0.149,1.589-0.251c0.156-0.332-0.624-2.251-1.704-4.19 c-0.025-0.045-0.039-0.096-0.038-0.148c0.016-2.657-0.947-7.373-1.179-8.468l-13.412-0.249l-7.751,8.571L150.086,127.227z"/></g><g id="change1_23"><path fill="#f1f1f1" d="M273.172,189.863v-2.606h1.808v-2.074h-43.555c-3.143,0-5.69,2.548-5.69,5.69l0,0 c0,3.143,2.548,5.69,5.69,5.69h43.555v-2.074h-1.808v-2.606V189.863z"/></g><g id="change2_31"><path d="M274.98,196.864h-43.556c-3.303,0-5.99-2.688-5.99-5.99s2.688-5.99,5.99-5.99h43.556c0.166,0,0.3,0.134,0.3,0.3v2.074 c0,0.166-0.134,0.3-0.3,0.3h-1.509v6.633h1.509c0.166,0,0.3,0.134,0.3,0.3v2.074C275.28,196.73,275.146,196.864,274.98,196.864z M231.425,185.483c-2.973,0-5.391,2.418-5.391,5.391s2.418,5.391,5.391,5.391h43.256v-1.475h-1.509c-0.166,0-0.3-0.134-0.3-0.3 v-7.232c0-0.166,0.134-0.3,0.3-0.3h1.509v-1.475H231.425z"/></g><g id="change4_3"><path fill="#5ac596" d="M267.428,200.923v-2.606h1.808v-2.074h-43.555c-3.143,0-5.69,2.548-5.69,5.69v0 c0,3.143,2.548,5.69,5.69,5.69h43.555v-2.074h-1.808v-2.606V200.923z"/></g><g id="change2_32"><path d="M269.236,207.924h-43.555c-3.303,0-5.99-2.688-5.99-5.99s2.688-5.99,5.99-5.99h43.555c0.166,0,0.3,0.134,0.3,0.3v2.074 c0,0.166-0.134,0.3-0.3,0.3h-1.508v6.633h1.508c0.166,0,0.3,0.134,0.3,0.3v2.074C269.536,207.79,269.402,207.924,269.236,207.924z M225.682,196.543c-2.973,0-5.391,2.418-5.391,5.391s2.418,5.391,5.391,5.391h43.255v-1.475h-1.508c-0.166,0-0.3-0.134-0.3-0.3 v-7.232c0-0.166,0.134-0.3,0.3-0.3h1.508v-1.475H225.682z"/></g><g id="change3_5"><path fill="#f1f1f1" d="M267.854,198.317v7.233h-25.793c-1.997,0-3.616-1.619-3.616-3.616c0-0.584,0.138-1.136,0.385-1.624 c0.595-1.182,1.818-1.992,3.231-1.992H267.854z"/></g><g id="change2_33"><path d="M267.853,205.85h-25.792c-2.159,0-3.916-1.757-3.916-3.916c0-0.62,0.14-1.213,0.417-1.76 c0.669-1.33,2.01-2.156,3.499-2.156h25.792c0.166,0,0.3,0.134,0.3,0.3v7.232C268.153,205.716,268.02,205.85,267.853,205.85z M242.061,198.617c-1.261,0-2.396,0.7-2.964,1.827c-0.233,0.463-0.353,0.964-0.353,1.489c0,1.828,1.488,3.316,3.316,3.316h25.492 v-6.633H242.061z"/></g><g id="change3_6"><path fill="#f1f1f1" d="M273.597,187.257v7.233h-25.793c-1.997,0-3.616-1.619-3.616-3.616c0-0.584,0.138-1.136,0.385-1.624 c0.595-1.182,1.818-1.992,3.231-1.992H273.597z"/></g><g id="change2_34"><path d="M273.598,194.79h-25.793c-2.159,0-3.916-1.757-3.916-3.916c0-0.61,0.144-1.219,0.417-1.759 c0.669-1.331,2.01-2.157,3.499-2.157h25.793c0.166,0,0.3,0.134,0.3,0.3v7.232C273.897,194.656,273.764,194.79,273.598,194.79z M247.805,187.558c-1.261,0-2.396,0.7-2.964,1.827c-0.23,0.457-0.353,0.972-0.353,1.489c0,1.828,1.488,3.316,3.316,3.316h25.493 v-6.633H247.805z"/></g><g id="change1_24"><path fill="#f1f1f1" d="M22.694 260.413L5.585 199.209 47.37 199.209 64.479 260.413z"/></g><g id="change2_35"><path d="M64.479,260.713H22.694c-0.135,0-0.253-0.09-0.289-0.219L5.296,199.29c-0.025-0.091-0.007-0.188,0.05-0.263 c0.057-0.074,0.146-0.118,0.239-0.118H47.37c0.135,0,0.253,0.09,0.289,0.219l17.109,61.204c0.025,0.091,0.007,0.188-0.05,0.263 C64.662,260.669,64.573,260.713,64.479,260.713z M22.922,260.113h41.162l-16.941-60.604H5.98L22.922,260.113z"/></g><g id="change3_7"><path fill="#f1f1f1" d="M37.275,265.821v11.329c0,2.85,2.31,5.16,5.16,5.16h0c2.85,0,5.16-2.31,5.16-5.16v-11.329H37.275z"/></g><g id="change2_36"><path d="M42.435,282.61c-3.01,0-5.459-2.449-5.459-5.46v-11.329c0-0.166,0.134-0.3,0.3-0.3h10.319c0.166,0,0.3,0.134,0.3,0.3 v11.329C47.894,280.161,45.445,282.61,42.435,282.61z M37.575,266.121v11.029c0,2.68,2.18,4.86,4.859,4.86s4.86-2.181,4.86-4.86 v-11.029H37.575z"/></g><g id="change3_8"><path fill="#f1f1f1" d="M26.254,262.176v0.908c0,2.1,1.703,3.803,3.803,3.803h29.971c2.1,0,3.803-1.703,3.803-3.803v-0.908H26.254z"/></g><g id="change2_37"><path d="M60.028,267.187H30.058c-2.263,0-4.103-1.84-4.103-4.103v-0.908c0-0.166,0.134-0.3,0.3-0.3h37.576 c0.166,0,0.3,0.134,0.3,0.3v0.908C64.131,265.347,62.291,267.187,60.028,267.187z M26.555,262.476v0.608 c0,1.932,1.571,3.503,3.503,3.503h29.971c1.932,0,3.503-1.571,3.503-3.503v-0.608H26.555z"/></g><g id="change3_9"><path fill="#f1f1f1" d="M42.867,256.863v6.809h28.441c1.88,0,3.404-1.524,3.404-3.404l0,0c0-1.88-1.524-3.404-3.404-3.404H42.867z"/></g><g id="change2_38"><path d="M71.308,263.971h-28.44c-0.166,0-0.3-0.134-0.3-0.3v-6.809c0-0.166,0.134-0.3,0.3-0.3h28.44 c2.043,0,3.704,1.661,3.704,3.704S73.351,263.971,71.308,263.971z M43.167,263.371h28.141c1.712,0,3.104-1.393,3.104-3.104 s-1.393-3.104-3.104-3.104H43.167V263.371z"/></g><g id="change3_10"><path fill="#f1f1f1" d="M42.294,256.863H22.043c-0.114,0-0.221,0.023-0.332,0.033L5.585,199.209H0.3l18.506,62.114l0.016-0.004 c0.446,1.361,1.711,2.351,3.221,2.351h20.251c1.88,0,3.404-1.524,3.404-3.404C45.698,258.387,44.174,256.863,42.294,256.863z"/></g><g id="change2_39"><path d="M42.294,263.971H22.043c-1.566,0-2.952-0.988-3.477-2.469c-0.021-0.027-0.038-0.058-0.048-0.092L0.013,199.295 c-0.027-0.091-0.01-0.189,0.047-0.266c0.057-0.075,0.146-0.12,0.24-0.12h5.285c0.135,0,0.253,0.09,0.289,0.219l16.057,57.439 c0.037-0.003,0.074-0.005,0.112-0.005h20.251c2.043,0,3.704,1.661,3.704,3.704S44.337,263.971,42.294,263.971z M19.067,261.15 c0.017,0.022,0.03,0.049,0.039,0.076c0.42,1.283,1.6,2.145,2.937,2.145h20.251c1.712,0,3.104-1.393,3.104-3.104 s-1.393-3.104-3.104-3.104H22.043c-0.063,0-0.124,0.01-0.185,0.018l-0.116,0.015c-0.151,0.024-0.28-0.075-0.32-0.217L5.357,199.509 H0.702L19.067,261.15z"/></g><g id="change2_40"><path d="M42.528,153.447c0,0-0.663-5.3-4.655-2.958c0,0-2.741-2.589,0.033-4.438c0,0-2.958-6.287,3.698-6.842 c0,0-0.925-4.438,16.826-4.068c0,0,2.589,0.37,2.404,4.438c0,0-0.37,2.404-2.404,2.958c0,0,2.404,2.219,0,3.513 c-2.404,1.294-9.245-1.294-9.245-1.294s1.849,1.109,1.294,1.849s-6.102-0.925-6.102-0.925l-0.37,8.136L42.528,153.447z"/></g><g id="change2_41"><path d="M44.008,154.116c-0.024,0-0.049-0.003-0.072-0.009l-1.479-0.37c-0.12-0.03-0.21-0.131-0.226-0.253 c-0.003-0.024-0.322-2.432-1.71-3.114c-0.671-0.33-1.509-0.203-2.496,0.376c-0.115,0.069-0.261,0.051-0.357-0.041 c-0.058-0.055-1.422-1.362-1.294-2.869c0.061-0.725,0.451-1.36,1.16-1.892c-0.303-0.749-1.115-3.124-0.062-4.946 c0.672-1.163,1.961-1.856,3.834-2.063c0.03-0.26,0.146-0.647,0.508-1.083c1.251-1.506,5.159-3.252,16.623-3.012 c0.065,0.007,2.893,0.46,2.698,4.751c-0.019,0.128-0.371,2.284-2.173,3.075c0.378,0.448,0.932,1.267,0.823,2.118 c-0.079,0.625-0.486,1.139-1.212,1.53c-1.803,0.971-5.801-0.07-7.993-0.764c0.141,0.185,0.248,0.381,0.287,0.579 c0.047,0.239-0.004,0.466-0.146,0.656c-0.561,0.746-3.885-0.073-6.061-0.708l-0.352,7.753c-0.004,0.09-0.049,0.173-0.12,0.227 C44.135,154.096,44.071,154.116,44.008,154.116z M42.794,153.204l0.931,0.232l0.353-7.77c0.004-0.092,0.051-0.178,0.126-0.231 c0.077-0.054,0.172-0.069,0.26-0.042c2.807,0.842,5.452,1.31,5.782,1.026c0.035-0.048,0.047-0.102,0.032-0.174 c-0.081-0.414-0.875-1.008-1.247-1.231c-0.133-0.08-0.184-0.248-0.115-0.388c0.066-0.14,0.229-0.206,0.376-0.15 c0.067,0.025,6.74,2.524,8.996,1.311c0.545-0.293,0.849-0.655,0.902-1.075c0.119-0.937-0.953-1.943-0.964-1.954 c-0.079-0.074-0.113-0.186-0.087-0.292c0.025-0.106,0.107-0.189,0.212-0.218c1.817-0.496,2.184-2.693,2.187-2.715 c0.166-3.692-2.057-4.08-2.151-4.095c-11.689-0.245-15.089,1.623-16.075,2.756c-0.473,0.543-0.415,0.944-0.412,0.96 c0.014,0.083-0.008,0.17-0.06,0.236c-0.051,0.066-0.127,0.111-0.21,0.118c-1.813,0.151-3.037,0.754-3.638,1.791 c-1.082,1.871,0.173,4.597,0.186,4.625c0.063,0.134,0.019,0.295-0.105,0.377c-0.679,0.453-1.049,0.987-1.101,1.587 c-0.082,0.953,0.637,1.868,0.958,2.226c1.09-0.584,2.049-0.679,2.858-0.28C42.213,150.536,42.678,152.548,42.794,153.204z"/></g><g id="change3_11"><path fill="#f1f1f1" d="M95.516 218.383L71.305 211.286 64.947 174.627 60.87 174.136 60.035 229.976 92.177 229.976z"/></g><g id="change2_42"><path d="M92.177,230.275H60.035c-0.08,0-0.157-0.032-0.214-0.089c-0.057-0.058-0.087-0.135-0.086-0.216l0.835-55.839 c0.001-0.085,0.038-0.166,0.103-0.222c0.063-0.055,0.14-0.082,0.233-0.072l4.077,0.491c0.131,0.016,0.236,0.116,0.26,0.247 l6.326,36.475l24.03,7.044c0.159,0.047,0.25,0.213,0.204,0.371l-3.339,11.593C92.428,230.188,92.311,230.275,92.177,230.275z M60.34,229.676h31.611l3.193-11.089l-23.923-7.013c-0.11-0.032-0.192-0.124-0.212-0.236l-6.32-36.44l-3.524-0.424L60.34,229.676z"/></g><g id="change1_25"><path fill="#f1f1f1" d="M84.574,229.173H58.648l1.387-6.397h9.387l2.404-1.094c0.835-0.377,1.781-0.428,2.653-0.138l6.727,2.243 L84.574,229.173z"/></g><g id="change2_43"><path d="M84.574,229.473H58.647c-0.091,0-0.177-0.041-0.233-0.111s-0.079-0.163-0.06-0.252l1.388-6.396 c0.029-0.138,0.151-0.236,0.293-0.236h9.321l2.346-1.068c0.908-0.409,1.927-0.465,2.872-0.148l6.728,2.242 c0.066,0.021,0.123,0.066,0.159,0.125l3.367,5.387c0.059,0.093,0.062,0.209,0.009,0.305S84.684,229.473,84.574,229.473z M59.019,228.873h25.014l-3.023-4.836l-6.625-2.209c-0.801-0.265-1.664-0.222-2.436,0.127l-2.403,1.095 c-0.039,0.018-0.081,0.026-0.124,0.026h-9.145L59.019,228.873z"/></g><g id="change3_12"><path fill="#f1f1f1" d="M67.197,219.217l-2.162,11.094l-0.636,3.259l-0.62,3.178H26.223l0.232-5.741l0.175-4.404l0.01-0.222 l-6.33-1.259c-2.542-0.505-4.256-2.896-3.919-5.465l5.502-41.6c0.347-2.623,2.249-4.774,4.812-5.438l13.468-3.492 c11.273,10.435,13.327,0.111,13.327,0.111l9.216,2.808c1.63,0.495,2.734,2.003,2.721,3.707l-0.391,42.627L67.197,219.217z"/></g><g id="change2_44"><path d="M63.779,237.049H26.223c-0.082,0-0.16-0.033-0.217-0.092c-0.057-0.06-0.086-0.139-0.083-0.22l0.406-10.111l-6.077-1.209 c-2.688-0.533-4.514-3.08-4.159-5.798l5.502-41.601c0.365-2.759,2.341-4.992,5.034-5.689l13.469-3.492 c0.096-0.025,0.203,0.001,0.279,0.07c3.98,3.685,7.202,5.159,9.582,4.393c2.557-0.827,3.239-4.087,3.246-4.12 c0.017-0.083,0.067-0.155,0.14-0.199c0.074-0.044,0.159-0.054,0.242-0.03l9.216,2.808c1.741,0.529,2.947,2.172,2.933,3.996 l-0.389,42.42l1.958,0.761c0.136,0.052,0.214,0.194,0.187,0.337l-3.417,17.532C64.046,236.947,63.923,237.049,63.779,237.049z M26.535,236.449h36.997l3.321-17.044l-1.917-0.744c-0.116-0.045-0.192-0.157-0.191-0.282l0.391-42.627 c0.013-1.56-1.019-2.965-2.508-3.417l-8.913-2.716c-0.25,0.911-1.154,3.468-3.567,4.251c-2.574,0.835-5.958-0.648-10.058-4.41 l-13.311,3.451c-2.455,0.635-4.257,2.671-4.589,5.186l-5.502,41.601c-0.314,2.405,1.302,4.659,3.681,5.132l6.33,1.259 c0.146,0.028,0.248,0.16,0.241,0.309l-0.186,4.624L26.535,236.449z"/></g><g id="change2_45"><path d="M98.856,322.85l17.961-0.321l2.114-81.519c0.296-6.319-4.747-11.603-11.072-11.603l-28.475,0.641l12.348,21.649 L98.856,322.85z"/></g><g id="change2_46"><path d="M98.856,323.15c-0.154,0-0.283-0.116-0.299-0.27l-7.118-71.089l-12.316-21.595c-0.052-0.092-0.053-0.204,0-0.296 c0.052-0.092,0.148-0.15,0.254-0.152l28.475-0.642c3.149,0,6.075,1.252,8.244,3.525s3.282,5.254,3.135,8.392l-2.113,81.513 c-0.004,0.16-0.134,0.289-0.295,0.292l-17.961,0.321C98.86,323.15,98.858,323.15,98.856,323.15z M79.894,230.338l12.099,21.212 c0.021,0.036,0.033,0.077,0.038,0.118l7.097,70.878l17.398-0.312l2.105-81.231c0.14-2.979-0.915-5.803-2.97-7.956 s-4.826-3.34-7.803-3.34L79.894,230.338z"/></g><g id="change2_47"><path d="M99.671,242.349l-13.711,80.18H67.678l3.849-64.417H42.501c-20.366-1.283-16.197-25.658-16.197-25.658l2.139-0.122 l61.927-3.496C97.24,229.039,101.935,235.861,99.671,242.349z"/></g><g id="change2_48"><path d="M85.96,322.829H67.678c-0.083,0-0.162-0.034-0.219-0.094c-0.057-0.061-0.086-0.142-0.081-0.224l3.83-64.099H42.501 c-5.452-0.343-9.656-2.35-12.517-5.966c-6.019-7.607-3.997-19.92-3.977-20.044c0.023-0.138,0.14-0.241,0.279-0.249l64.066-3.617 c3.396,0.1,6.428,1.75,8.34,4.529c1.908,2.771,2.369,6.181,1.27,9.357L86.256,322.58C86.231,322.724,86.106,322.829,85.96,322.829z M67.996,322.229h17.711l13.668-79.932c0.003-0.017,0.007-0.032,0.013-0.048c1.048-3.001,0.614-6.225-1.188-8.844 c-1.803-2.62-4.66-4.176-7.838-4.27l-63.797,3.604c-0.245,1.725-1.508,12.514,3.892,19.337c2.75,3.476,6.809,5.405,12.063,5.736 h29.007c0.083,0,0.162,0.034,0.219,0.094c0.057,0.061,0.086,0.142,0.081,0.224L67.996,322.229z"/></g><g id="change4_4"><path fill="#5ac596" d="M124.065,196.644H84.424c-0.815,0-1.521,0.562-1.701,1.353l-6.824,29.912H49.796v3.284h27.539h3.595h36.047 c0.814,0,1.521-0.562,1.701-1.353l7.089-31.073C126.015,197.68,125.185,196.644,124.065,196.644z"/></g><g id="change2_49"><path d="M116.977,231.493H49.796c-0.166,0-0.3-0.134-0.3-0.3v-3.284c0-0.166,0.134-0.3,0.3-0.3h25.863l6.771-29.679 c0.214-0.934,1.033-1.586,1.994-1.586h39.642c0.627,0,1.21,0.28,1.601,0.77c0.388,0.486,0.531,1.113,0.394,1.72l-7.089,31.073 C118.757,230.841,117.937,231.493,116.977,231.493z M50.096,230.894h66.881c0.679,0,1.258-0.461,1.409-1.119l7.088-31.073 c0.098-0.428-0.003-0.87-0.277-1.213c-0.275-0.346-0.688-0.544-1.131-0.544H84.424c-0.679,0-1.258,0.461-1.409,1.119l-6.823,29.912 c-0.031,0.137-0.153,0.233-0.293,0.233H50.096V230.894z"/></g><g id="change4_5"><path fill="#5ac596" d="M128.131,198.644l-7.089,31.192c-0.181,0.794-0.887,1.358-1.701,1.358H79.7c-1.12,0-1.949-1.04-1.701-2.131 l7.089-31.192c0.181-0.794,0.887-1.358,1.701-1.358h39.641C127.55,196.513,128.379,197.552,128.131,198.644z"/></g><g id="change2_50"><path d="M119.341,231.493H79.699c-0.625,0-1.208-0.28-1.598-0.769c-0.391-0.489-0.534-1.119-0.396-1.729l7.089-31.191 c0.214-0.938,1.034-1.592,1.995-1.592h39.641c0.625,0,1.208,0.28,1.598,0.769c0.391,0.489,0.535,1.119,0.396,1.729l0,0 l-7.089,31.191C121.121,230.839,120.302,231.493,119.341,231.493z M86.789,196.812c-0.68,0-1.259,0.463-1.409,1.125l-7.089,31.191 c-0.099,0.431,0.004,0.876,0.279,1.221c0.275,0.346,0.688,0.544,1.129,0.544h39.642c0.679,0,1.258-0.462,1.408-1.124l7.089-31.191 c0.099-0.432-0.004-0.877-0.279-1.223c-0.275-0.345-0.688-0.543-1.129-0.543H86.789z M128.131,198.645h0.008H128.131z"/></g><g id="change1_26"><ellipse rx="4.768" ry="3.576" fill="#f1f1f1" cx="103.892" transform="rotate(-77.027 103.887 212.966)" cy="212.973"/></g><g id="change2_51"><path d="M103.44,217.989c-0.229,0-0.459-0.025-0.686-0.078c-2.083-0.479-3.267-3.085-2.64-5.809l0,0 c0.629-2.724,2.85-4.543,4.915-4.067c2.082,0.479,3.266,3.085,2.639,5.808c-0.3,1.304-0.966,2.444-1.876,3.213 C105.065,217.669,104.25,217.989,103.44,217.989z M100.699,212.237c-0.553,2.4,0.43,4.684,2.19,5.09 c0.839,0.189,1.729-0.067,2.517-0.73c0.811-0.685,1.407-1.71,1.679-2.889c0.553-2.4-0.43-4.683-2.189-5.089 C103.136,208.226,101.253,209.838,100.699,212.237L100.699,212.237z"/></g><g id="change1_27"><path fill="#f1f1f1" d="M145.084,158.802l-2.448,11.364l-2.266,10.522c-18.182,6.734-16.162-5.051-16.162-5.051l2.131-8.731 l1.236-5.074L145.084,158.802z"/></g><g id="change2_52"><path d="M130.989,183.07c-2.157,0-3.854-0.508-5.079-1.524c-2.613-2.17-2.024-5.806-1.998-5.959l3.372-13.825 c0.027-0.116,0.122-0.205,0.24-0.225l17.509-3.03c0.1-0.016,0.198,0.017,0.268,0.088c0.068,0.072,0.098,0.173,0.076,0.271 l-4.714,21.886c-0.021,0.1-0.093,0.183-0.188,0.218C136.692,182.369,133.523,183.07,130.989,183.07z M127.82,162.094l-3.321,13.614 c-0.001,0.014-0.549,3.435,1.799,5.38c2.431,2.016,7.204,1.8,13.813-0.625l4.586-21.29L127.82,162.094z"/></g><g id="change2_53"><path d="M135.586,201.342c0,0-1.177,7.49,0.286,20.77c1.522,13.817,3.873,29.489,3.873,29.489l-6.692,70.928H149.7l10.941-68.838 l4.702-55.113L135.586,201.342z"/></g><g id="change2_54"><path d="M149.7,322.829h-16.647c-0.084,0-0.165-0.035-0.222-0.098s-0.085-0.146-0.077-0.23l6.692-70.928 c-0.021-0.084-2.367-15.763-3.872-29.428c-1.451-13.167-0.297-20.774-0.284-20.85c0.021-0.136,0.132-0.239,0.269-0.252 l29.757-2.765c0.088-0.009,0.177,0.024,0.238,0.086c0.063,0.062,0.096,0.149,0.088,0.238l-4.702,55.113l-10.943,68.859 C149.974,322.722,149.848,322.829,149.7,322.829z M133.383,322.229h16.062l10.9-68.585l4.669-54.734l-29.163,2.709 c-0.177,1.357-0.981,8.649,0.319,20.46c1.505,13.654,3.849,29.321,3.872,29.478L133.383,322.229z"/></g><g id="change1_28"><path fill="#f1f1f1" d="M197.994,95.125c0,0-4.996,22.718-16.454,32.329c0,0,10.041,3.388,24.395,14.424 c0,0,16.254-23.481,16.254-33.919C222.189,107.959,213.873,97.008,197.994,95.125z"/></g><g id="change2_55"><path d="M205.936,142.178c-0.065,0-0.13-0.021-0.183-0.062c-14.152-10.88-24.209-14.344-24.309-14.377 c-0.103-0.035-0.179-0.122-0.199-0.229c-0.02-0.107,0.019-0.216,0.103-0.286c11.247-9.434,16.304-31.938,16.354-32.164 c0.032-0.15,0.179-0.251,0.328-0.233c15.822,1.875,24.315,12.84,24.399,12.95c0.039,0.052,0.061,0.116,0.061,0.182 c0,10.412-15.642,33.128-16.307,34.09c-0.047,0.067-0.119,0.113-0.201,0.125C205.967,142.177,205.951,142.178,205.936,142.178z M182.124,127.349c2.172,0.828,11.399,4.653,23.743,14.098c1.762-2.589,15.921-23.698,16.021-33.385 c-0.785-0.979-8.974-10.76-23.663-12.607C197.623,98.009,192.593,118.179,182.124,127.349z"/></g><g id="change1_29"><path fill="#f1f1f1" d="M201.239,138.35c0,0-8.791,2.051-11.993,1.774l-2.771,5.498l-3.128,6.212l-5.569-9.65l3.424-3.593 l3.33-3.492c0,0,1.63-5.306,4.97-6.633c2.857-1.137,4.036-4.297,6.883-5.213c0.643-0.207,1.197,0.516,0.862,1.103 c-1.032,1.805-3.032,5.052-5.328,7.454L201.239,138.35z"/></g><g id="change2_56"><path d="M183.347,152.135c-0.107,0-0.206-0.057-0.26-0.15l-5.569-9.65c-0.066-0.115-0.049-0.261,0.043-0.357l6.707-7.034 c0.213-0.662,1.859-5.458,5.124-6.755c1.328-0.529,2.309-1.548,3.257-2.533c1.037-1.079,2.11-2.193,3.645-2.687 c0.411-0.133,0.837-0.003,1.112,0.337c0.28,0.346,0.321,0.817,0.103,1.2c-0.969,1.695-2.896,4.841-5.132,7.258l9.035,6.34 c0.098,0.068,0.146,0.187,0.123,0.303s-0.111,0.208-0.227,0.235c-0.354,0.083-8.519,1.981-11.884,1.795l-5.81,11.533 c-0.049,0.099-0.148,0.162-0.259,0.165C183.352,152.135,183.35,152.135,183.347,152.135z M178.149,142.229l5.18,8.975l5.649-11.215 c0.055-0.109,0.177-0.176,0.293-0.164c2.607,0.219,9.144-1.154,11.241-1.619l-8.765-6.149c-0.072-0.05-0.118-0.129-0.127-0.216 s0.021-0.173,0.082-0.236c2.293-2.4,4.294-5.664,5.283-7.396c0.115-0.202,0.051-0.403-0.047-0.524 c-0.045-0.055-0.205-0.228-0.463-0.144c-1.391,0.447-2.364,1.459-3.396,2.532c-0.992,1.031-2.019,2.097-3.468,2.674 c-3.166,1.257-4.778,6.391-4.794,6.443c-0.014,0.044-0.038,0.085-0.07,0.119L178.149,142.229z"/></g><g id="change1_30"><path fill="#f1f1f1" d="M230.27 207.594L209.586 207.732 185.546 182.496 179.239 171.9 174.646 164.179 186.384 153.704 190.337 163.105 194.492 172.991 215.176 202.203 221.883 203.042z"/></g><g id="change2_57"><path d="M209.587,208.031c-0.082,0-0.16-0.033-0.217-0.093l-24.041-25.235l-10.94-18.371c-0.073-0.124-0.049-0.282,0.058-0.377 l11.737-10.475c0.072-0.065,0.171-0.089,0.267-0.069c0.094,0.021,0.173,0.087,0.21,0.176l8.108,19.287l20.575,29.047l6.576,0.822 c0.037,0.005,0.073,0.017,0.106,0.034l8.388,4.552c0.12,0.065,0.181,0.204,0.147,0.337s-0.152,0.226-0.289,0.227l-20.684,0.138 C209.588,208.031,209.588,208.031,209.587,208.031z M175.03,164.238l10.773,18.105l23.911,25.088l19.388-0.129l-7.313-3.969 l-6.65-0.832c-0.084-0.011-0.159-0.056-0.208-0.124l-20.684-29.213l-7.977-18.957L175.03,164.238z"/></g><g id="change2_58"><path d="M139.082 190.633L164.861 253.691 175.445 322.529 194.17 322.529 186.802 250.557 173.481 189.436z"/></g><g id="change2_59"><path d="M194.171,322.829h-18.726c-0.148,0-0.274-0.107-0.297-0.254l-10.584-68.838l-25.76-62.991 c-0.037-0.091-0.028-0.193,0.025-0.276c0.054-0.082,0.144-0.134,0.241-0.137l34.399-1.197c0.17-0.008,0.272,0.095,0.304,0.236 l13.321,61.121l7.374,72.006c0.008,0.084-0.02,0.168-0.076,0.231C194.337,322.793,194.256,322.829,194.171,322.829z M175.703,322.229h18.136l-7.335-71.643l-13.263-60.843l-33.719,1.174l25.616,62.66L175.703,322.229z"/></g><g id="change4_6"><path fill="#5ac596" d="M176.064,174.9l2.667,29.398c0,0-6.492,5.596-19.071,5.596c-8.108,0-27.159-6.155-27.159-6.155 c0.01-0.057,0.017-0.111,0.027-0.168c2.771-17.566,3.36-36.997,3.128-38.371c0,0-5.387-0.673-8.94-1.067l5.34-22.037 c0.704-2.815,2.559-5.206,5.118-6.576c4.761-2.542,11.603-5.296,11.603-5.296l1.818-1.515c7.869,2.727,14.637,1.212,14.637,1.212 l1.737,1.168l4.68,1.465c2.71,0.852,5.125,2.455,6.96,4.626l11.348,22.956l-12.516,10.119l-2.141-3.758L176.064,174.9z"/></g><g id="change2_60"><path d="M159.659,210.193c-8.062,0-27.06-6.108-27.25-6.17c-0.143-0.046-0.229-0.189-0.204-0.336l0.026-0.168 c2.707-17.153,3.28-35.608,3.148-38.052c-1.084-0.135-5.61-0.695-8.697-1.037c-0.086-0.01-0.163-0.056-0.213-0.126 c-0.049-0.071-0.065-0.159-0.046-0.243l5.341-22.038c0.725-2.898,2.645-5.365,5.269-6.77c4.522-2.415,10.992-5.051,11.588-5.292 l1.782-1.485c0.08-0.067,0.19-0.086,0.291-0.053c7.689,2.667,14.405,1.217,14.473,1.203c0.079-0.016,0.165-0.001,0.232,0.044 l1.701,1.144l4.639,1.452c2.771,0.871,5.227,2.502,7.1,4.718l11.387,23.017c0.062,0.125,0.029,0.278-0.08,0.366l-12.516,10.119 c-0.068,0.056-0.156,0.079-0.244,0.062c-0.087-0.017-0.161-0.07-0.205-0.146l-1.457-2.556l0.639,7.027c0,0,0,0,0,0l2.667,29.398 c0.009,0.097-0.029,0.191-0.103,0.255C178.86,204.582,172.206,210.193,159.659,210.193z M132.837,203.53 c2.249,0.715,19.349,6.063,26.822,6.063c11.407,0,17.827-4.696,18.758-5.429l-3.416-37.642c-0.013-0.141,0.074-0.271,0.209-0.313 c0.129-0.042,0.279,0.014,0.351,0.138l1.967,3.451l12.055-9.746l-11.241-22.741c-1.76-2.068-4.118-3.636-6.781-4.473l-4.68-1.465 c-0.027-0.008-0.054-0.021-0.077-0.037l-1.634-1.099c-0.975,0.188-7.314,1.254-14.511-1.192l-1.688,1.407 c-0.024,0.02-0.052,0.036-0.08,0.048c-0.068,0.027-6.882,2.778-11.573,5.283c-2.476,1.325-4.286,3.652-4.969,6.384l-5.26,21.705 c3.51,0.394,8.554,1.023,8.605,1.03c0.132,0.017,0.236,0.117,0.259,0.248C136.204,166.645,135.549,186.294,132.837,203.53z"/></g><g id="change2_61"><path d="M161.131,130.514c0,0-14.173,3.963-19.499-4.147c-1.492-2.272-4.137-6.91,0.623-10.854 c1.578-1.307,5.022-3.931,4.894-6.574c-0.099-2.047,0.983-5.115,3.125-7.576c0,0,5.833-8.574,19.728-1.478 c0,0,4.516-0.752,5.704,2.649c0,0,1.387,4.317-1.94,6.118l-0.72-3.796c0,0-4.868,8.211-9.359,9.951c0,0-1.716-2.46-3.389-1.537 c-0.716,0.395-1.05,1.248-0.937,2.058c0.178,1.272,0.887,3.317,3.564,3.916c0,0-0.188,1.941-1.295,4.439 C160.924,125.279,160.054,127.134,161.131,130.514z"/></g><g id="change2_62"><path d="M153.566,131.758c-4.335,0-9.429-1.03-12.186-5.228c-1.124-1.711-4.545-6.918,0.683-11.249l0.343-0.282 c1.592-1.304,4.555-3.731,4.443-6.047c-0.094-1.94,0.859-5.101,3.198-7.787c0.038-0.06,6.097-8.647,20.007-1.591 c0.698-0.086,4.78-0.441,5.936,2.859c0.017,0.053,1.425,4.583-2.081,6.481c-0.084,0.046-0.185,0.049-0.271,0.007 c-0.086-0.041-0.148-0.121-0.166-0.215l-0.576-3.037c-1.273,2.013-5.271,7.932-9.1,9.415c-0.128,0.049-0.274,0.005-0.354-0.108 c-0.016-0.022-1.585-2.23-2.998-1.446c-0.571,0.315-0.887,1.021-0.784,1.754c0.192,1.375,0.927,3.126,3.332,3.665 c0.147,0.033,0.248,0.171,0.233,0.322c-0.008,0.082-0.206,2.018-1.319,4.532l-0.038,0.085c-0.69,1.558-1.473,3.322-0.45,6.534 c0.024,0.077,0.017,0.162-0.022,0.233c-0.038,0.072-0.104,0.125-0.183,0.146C161.142,130.822,157.698,131.758,153.566,131.758z M159.858,97.392c-6.417,0-9.296,4.08-9.336,4.139c-2.252,2.589-3.161,5.572-3.073,7.393c0.126,2.617-2.872,5.073-4.663,6.541 l-0.34,0.279c-4.314,3.575-2.389,7.681-0.563,10.458c4.722,7.191,16.815,4.601,18.869,4.099c-0.947-3.241-0.109-5.129,0.566-6.655 l0.038-0.085c0.844-1.904,1.146-3.491,1.236-4.091c-2.664-0.721-3.354-2.862-3.527-4.101c-0.137-0.978,0.301-1.927,1.089-2.362 c1.604-0.885,3.157,0.833,3.634,1.435c4.286-1.852,8.952-9.659,9-9.738c0.064-0.108,0.187-0.165,0.31-0.143 c0.123,0.021,0.22,0.117,0.243,0.239l0.64,3.372c2.611-1.762,1.492-5.387,1.44-5.547c-1.088-3.112-5.195-2.473-5.37-2.444 c-0.059,0.011-0.128,0-0.186-0.029C165.873,98.112,162.553,97.392,159.858,97.392z"/></g><g id="change2_63"><path d="M378.191,179.223l-0.369,21.281l0.295,24.032l13.167,98.461h18.192c0-0.561-3.275-40.278-5.207-64.596l-0.003-0.006 c-1.556-19.606-2.481-63.947-2.481-63.947l0.072-3.933L378.191,179.223z"/></g><g id="change2_64"><path d="M389.251,189.063l1.606,9.156l5.141,29.323c0.144,0.825,0.326,1.644,0.546,2.453l20.785,92.696h17.881l-14.042-96.419 l-0.097-37.45v-0.05L389.251,189.063z"/></g><g id="change1_31"><path fill="#f1f1f1" d="M381.361,149.539c0,0-4.478,6.051-9.61,11.401c-4.737,4.939-10.03,9.276-12.862,7.69 c-8.047-4.508-19.249-24.829-19.249-24.829c-1.377-2.717-5.283-4.034-5.283-4.034c-8.387-4.071-12.926-12.438-12.926-12.438 c0.933-1.135,2.128-0.973,3.088-0.522c0.852,0.397,1.542,1.074,2.034,1.875c1.993,3.246,8.387,5.293,8.589,5.354 c-0.057-0.104-0.997-1.781-3.02-4.886c-2.088-3.209,0.801-3.003,0.801-3.003c1.623,2.364,6.906,6.397,6.906,6.397 c4.535,2.374,6.502,7.896,6.502,7.896l13.576,12.825l3.576-4.04l7.02-7.926L381.361,149.539z"/></g><g id="change2_65"><path d="M360.235,169.26c-0.557,0-1.055-0.123-1.493-0.368c-8.029-4.499-18.906-24.113-19.365-24.946 c-1.311-2.583-5.078-3.882-5.116-3.895c-8.413-4.08-13.049-12.495-13.095-12.579c-0.059-0.107-0.046-0.239,0.032-0.333 c0.863-1.05,2.054-1.259,3.447-0.603c0.861,0.401,1.609,1.09,2.162,1.989c1.546,2.519,5.912,4.321,7.671,4.965 c-0.453-0.77-1.305-2.175-2.609-4.175c-0.784-1.206-0.997-2.132-0.631-2.753c0.469-0.792,1.655-0.716,1.705-0.713 c0.091,0.006,0.174,0.054,0.226,0.129c1.577,2.297,6.789,6.289,6.841,6.329c4.324,2.258,6.324,7.285,6.578,7.964l13.298,12.564 l10.392-11.734c0.104-0.118,0.28-0.135,0.406-0.04l10.858,8.239c0.131,0.099,0.157,0.285,0.06,0.417 c-0.045,0.061-4.549,6.127-9.634,11.43C366.794,166.542,362.859,169.26,360.235,169.26z M321.797,127.368 c0.72,1.238,5.17,8.479,12.69,12.129c0.129,0.041,4.003,1.374,5.42,4.168c0.106,0.193,11.248,20.288,19.128,24.703 c2.202,1.232,6.523-1.406,12.499-7.636c4.49-4.683,8.525-9.964,9.407-11.135l-10.399-7.891l-10.412,11.758 c-0.054,0.061-0.13,0.097-0.211,0.101c-0.083,0.003-0.161-0.025-0.22-0.082l-13.575-12.825c-0.034-0.033-0.061-0.073-0.076-0.118 c-0.02-0.054-1.984-5.441-6.358-7.73c-0.256-0.189-5.204-3.979-6.925-6.366c-0.3,0.008-0.815,0.09-1.01,0.423 c-0.233,0.397-0.014,1.15,0.617,2.12c2.116,3.246,3.024,4.891,3.032,4.906c0.058,0.107,0.046,0.238-0.031,0.333 c-0.075,0.093-0.203,0.132-0.318,0.098c-0.066-0.02-6.664-2.074-8.759-5.485c-0.491-0.799-1.149-1.408-1.905-1.76 C323.332,126.581,322.46,126.679,321.797,127.368z"/></g><g id="change4_7"><path fill="#5ac596" d="M422.86,199.809l0.007,0.071c0,0-0.626,0.047-1.717,0.118c-1.047,0.071-2.522,0.165-4.276,0.266 c-0.017,0.003-0.037,0.003-0.057,0.003c-6.33,0.37-16.256,0.838-22.906,0.623c-12.566-0.404-17.509-5.051-17.509-5.051l0.34-3.808 l2.115-23.63l1.138-12.724l-4.293,3.505l-12.179-11.97l9.896-10.727c1.606-1.741,3.505-3.182,5.613-4.259l12.512-6.397 c3.04,9.741,13.475-1.347,13.475-1.347l16.007,6.522c3.269,1.455,5.849,4.125,7.192,7.445l6.448,15.953l-15.266,0.407l0.522,6.795 L422.86,199.809z"/></g><g id="change2_66"><path d="M397.643,201.244c-1.321,0-2.583-0.017-3.743-0.055c-12.534-0.402-17.499-4.938-17.704-5.131 c-0.067-0.063-0.102-0.153-0.094-0.245l3.529-39.453l-3.741,3.054c-0.115,0.098-0.29,0.09-0.399-0.019l-12.179-11.97 c-0.116-0.113-0.12-0.298-0.011-0.417l9.896-10.728c1.635-1.771,3.551-3.226,5.696-4.323l12.513-6.397 c0.078-0.041,0.171-0.043,0.253-0.009s0.144,0.103,0.17,0.187c0.662,2.121,1.733,3.365,3.186,3.7 c4.019,0.921,9.728-5.102,9.784-5.163c0.086-0.091,0.215-0.121,0.332-0.072l16.007,6.522c3.367,1.498,5.977,4.199,7.357,7.609 l6.447,15.954c0.037,0.091,0.026,0.194-0.027,0.277c-0.054,0.082-0.145,0.133-0.243,0.135l-14.95,0.399l3.443,44.75 c0.008,0.081-0.018,0.161-0.069,0.223s-0.127,0.1-0.207,0.105c0,0-0.627,0.047-1.72,0.119c-1.048,0.07-2.523,0.165-4.278,0.266 C412.179,200.839,404.169,201.244,397.643,201.244z M376.713,195.713c0.784,0.651,5.905,4.515,17.206,4.877 c6.864,0.219,17.28-0.295,22.879-0.623c1.811-0.104,3.284-0.198,4.331-0.269c0.646-0.042,1.128-0.075,1.414-0.096l-3.443-44.771 c-0.007-0.082,0.021-0.163,0.076-0.224s0.133-0.097,0.215-0.099l14.833-0.396l-6.285-15.552c-1.321-3.266-3.82-5.852-7.036-7.283 l-15.81-6.441c-0.951,0.975-6.193,6.111-10.213,5.188c-1.592-0.367-2.772-1.634-3.513-3.769l-12.2,6.238 c-2.082,1.064-3.942,2.476-5.528,4.196l-9.699,10.514l11.779,11.578l4.085-3.335c0.094-0.076,0.225-0.089,0.33-0.033 c0.106,0.057,0.169,0.171,0.158,0.292L376.713,195.713z"/></g><g id="change3_13"><path fill="#f1f1f1" d="M402.041 148.012H425.429V188.483H402.041z"/></g><g id="change2_67"><path d="M425.428,188.782h-23.387c-0.166,0-0.3-0.134-0.3-0.3v-40.47c0-0.166,0.134-0.3,0.3-0.3h23.387c0.166,0,0.3,0.134,0.3,0.3 v40.47C425.728,188.648,425.594,188.782,425.428,188.782z M402.341,188.183h22.787v-39.871h-22.787V188.183z"/></g><g id="change2_68"><path d="M422.866,199.88c0,0-0.626,0.047-1.717,0.118c0.579-0.054,1.152-0.118,1.71-0.189L422.866,199.88z"/></g><g id="change1_32"><path fill="#f1f1f1" d="M160.936,244.388c-0.118,0-0.23-0.07-0.277-0.187l-13.324-32.592c-0.063-0.153,0.011-0.328,0.164-0.391 c0.151-0.065,0.328,0.011,0.391,0.164l13.324,32.592c0.063,0.153-0.011,0.328-0.164,0.391 C161.012,244.381,160.974,244.388,160.936,244.388z"/></g><g id="change2_69"><path d="M49.796,228.209c-0.006,0-0.013,0-0.02,0l-23.155-1.527c-0.166-0.012-0.291-0.154-0.28-0.319 c0.012-0.165,0.125-0.287,0.319-0.28l23.155,1.527c0.166,0.012,0.291,0.154,0.28,0.319 C50.085,228.088,49.953,228.209,49.796,228.209z"/></g><g id="change2_70"><path d="M55.861,217.013c-0.018,0-0.036-0.001-0.056-0.005l-20.037-3.757c-0.144-0.027-0.247-0.154-0.244-0.302l0.418-19.201 c0.004-0.163,0.137-0.293,0.3-0.293c0.002,0,0.004,0,0.007,0c0.165,0.004,0.297,0.141,0.293,0.307l-0.412,18.946l19.787,3.71 c0.162,0.03,0.27,0.188,0.239,0.351C56.129,216.912,56.003,217.013,55.861,217.013z"/></g><g id="change1_33"><path fill="#f1f1f1" d="M94.488,271.22c-0.018,0-0.035-0.001-0.054-0.005c-0.163-0.029-0.271-0.186-0.241-0.349l5.183-28.571 c0.981-5.412-0.447-7.652-0.461-7.674c-0.092-0.138-0.055-0.324,0.083-0.416c0.135-0.092,0.321-0.057,0.415,0.081 c0.064,0.097,1.584,2.43,0.553,8.116l-5.183,28.571C94.757,271.118,94.631,271.22,94.488,271.22z"/></g><g id="change2_71"><path d="M210.036,126.865c-0.064,0-0.129-0.021-0.184-0.062c-3.409-2.638-16.092-9.732-16.22-9.804 c-0.145-0.081-0.196-0.263-0.115-0.408c0.081-0.145,0.264-0.195,0.408-0.115c0.522,0.292,12.849,7.187,16.294,9.853 c0.131,0.102,0.155,0.29,0.054,0.421C210.214,126.825,210.126,126.865,210.036,126.865z"/></g><g id="change2_72"><path d="M212.057,121.814c-0.062,0-0.125-0.019-0.178-0.059c-4.377-3.232-15.776-9.409-15.891-9.471 c-0.146-0.079-0.2-0.261-0.121-0.406c0.079-0.146,0.263-0.201,0.406-0.121c0.115,0.062,11.551,6.259,15.961,9.516 c0.134,0.098,0.162,0.286,0.063,0.419C212.239,121.772,212.148,121.814,212.057,121.814z"/></g><g id="change2_73"><path d="M214.997,116.649c-0.062,0-0.125-0.019-0.179-0.059c-4.375-3.232-15.775-9.41-15.89-9.472 c-0.146-0.079-0.2-0.261-0.121-0.406c0.078-0.147,0.264-0.2,0.406-0.121c0.115,0.062,11.552,6.259,15.962,9.517 c0.133,0.098,0.161,0.286,0.062,0.419C215.18,116.607,215.089,116.649,214.997,116.649z"/></g><g id="change2_74"><path d="M207.998,106.118c-0.051,0-0.103-0.013-0.15-0.04c-3.803-2.2-7.259-4.071-7.293-4.09c-0.146-0.079-0.2-0.261-0.121-0.406 c0.078-0.146,0.264-0.201,0.406-0.121c0.035,0.019,3.498,1.894,7.309,4.098c0.144,0.083,0.192,0.267,0.109,0.41 C208.202,106.064,208.102,106.118,207.998,106.118z"/></g><g id="change1_34"><path fill="#f1f1f1" d="M443.465,183.159c2.031-7.825-9.506-28.745-9.506-28.745l-8.531,0.294l0.203,14.264l2.756,5.707 c0,0,0.012,0.015,0.019,0.023c-1.392-0.041-2.305,0.012-2.305,0.012c-7.745-0.408-12.229-3.964-12.229-3.964 c0.408-1.63-3.261-7.337-3.261-7.337l-4.076-4.892c-1.427,2.242,0.815,5.707,0.815,5.707c-3.873,0.611-5.503-1.019-5.503-1.019 v-1.834c-4.28,0-3.465,3.261-3.465,3.261c-1.019,1.019,0,2.853,0,2.853c-1.223,0.611-0.204,3.057-0.204,3.057 c-2.446,2.853,9.579,6.93,9.579,6.93l13.452,7.541c11.821,6.522,19.363,2.65,19.363,2.65 C443.028,186.232,443.551,184.515,443.465,183.159C443.465,183.159,443.465,183.159,443.465,183.159z"/></g><g id="change2_75"><path d="M434.429,189.126c-3.339,0-7.889-0.826-13.364-3.848l-13.454-7.542c-0.328-0.106-9.233-3.154-10.003-5.959 c-0.124-0.452-0.045-0.892,0.229-1.282c-0.204-0.558-0.762-2.349,0.159-3.113c-0.249-0.556-0.719-1.906,0.062-2.839 c-0.062-0.393-0.139-1.412,0.521-2.257c0.628-0.804,1.727-1.212,3.267-1.212c0.166,0,0.3,0.134,0.3,0.3v1.696 c0.358,0.283,1.837,1.26,4.716,0.922c-0.559-1.008-1.814-3.695-0.581-5.633c0.051-0.081,0.138-0.132,0.233-0.138 c0.103-0.004,0.188,0.034,0.25,0.107l4.076,4.892c0.39,0.602,3.503,5.507,3.354,7.396c0.806,0.579,5.107,3.439,11.921,3.798 c0.005-0.002,0.703-0.039,1.799-0.023l-2.554-5.289c-0.019-0.039-0.029-0.083-0.029-0.126l-0.203-14.264 c-0.003-0.164,0.126-0.298,0.289-0.304l8.531-0.294c0.144-0.019,0.22,0.056,0.273,0.155c0.473,0.857,11.528,21.036,9.545,28.919 c0.071,1.321-0.408,3.199-3.044,4.736C440.547,188.015,438.301,189.126,434.429,189.126z M401.547,161.679 c-1.183,0.046-2.02,0.373-2.49,0.971c-0.641,0.816-0.386,1.901-0.384,1.912c0.025,0.102-0.005,0.21-0.079,0.284 c-0.846,0.845,0.041,2.479,0.051,2.496c0.039,0.072,0.048,0.156,0.023,0.234s-0.079,0.143-0.152,0.18 c-0.943,0.471-0.07,2.651-0.061,2.673c0.043,0.104,0.024,0.225-0.05,0.311c-0.237,0.278-0.308,0.557-0.22,0.878 c0.569,2.075,7.172,4.725,9.668,5.572l13.502,7.563c11.524,6.358,19.004,2.681,19.079,2.645c1.915-1.118,2.839-2.54,2.73-4.22 c-0.002-0.032,0.001-0.065,0.01-0.096c1.885-7.264-8.328-26.403-9.391-28.364l-8.053,0.278l0.198,13.903l2.728,5.647 c0.068,0.092,0.073,0.203,0.021,0.305c-0.054,0.102-0.185,0.151-0.281,0.148c-1.365-0.04-2.271,0.011-2.279,0.011 c-7.784-0.408-12.246-3.881-12.433-4.029c-0.092-0.073-0.133-0.193-0.104-0.308c0.276-1.104-1.775-4.852-3.222-7.103l-3.768-4.518 c-0.869,2.055,0.99,4.977,1.011,5.008c0.055,0.085,0.063,0.193,0.021,0.286c-0.041,0.092-0.126,0.158-0.227,0.174 c-3.984,0.63-5.69-1.033-5.762-1.104c-0.057-0.056-0.088-0.132-0.088-0.212V161.679z"/></g><g id="change1_35"><path fill="#f1f1f1" d="M398.381,164.634c0,0,1.966,1.728,4.236,2.834"/></g><g id="change2_76"><path d="M402.618,167.769c-0.044,0-0.089-0.01-0.131-0.031c-2.282-1.111-4.222-2.807-4.304-2.879 c-0.124-0.109-0.137-0.299-0.027-0.423c0.11-0.125,0.3-0.137,0.424-0.027c0.02,0.017,1.963,1.715,4.169,2.79 c0.149,0.072,0.211,0.252,0.139,0.401C402.836,167.707,402.729,167.769,402.618,167.769z"/></g><g id="change1_36"><path fill="#f1f1f1" d="M398.381,167.353c0,0,1.922,1.69,4.16,2.797"/></g><g id="change2_77"><path d="M402.541,170.45c-0.045,0-0.09-0.01-0.133-0.031c-2.248-1.112-4.145-2.77-4.225-2.84c-0.124-0.109-0.137-0.299-0.027-0.423 c0.11-0.125,0.298-0.136,0.424-0.027c0.019,0.017,1.919,1.677,4.094,2.752c0.148,0.074,0.21,0.253,0.136,0.402 C402.758,170.388,402.651,170.45,402.541,170.45z"/></g><g id="change1_37"><path fill="#f1f1f1" d="M398.21,170.62c0,0,1.895,1.666,4.113,2.774"/></g><g id="change2_78"><path d="M402.323,173.694c-0.045,0-0.091-0.01-0.134-0.032c-2.228-1.112-4.099-2.748-4.178-2.817 c-0.124-0.109-0.137-0.299-0.027-0.423c0.109-0.124,0.299-0.137,0.424-0.027c0.019,0.016,1.894,1.654,4.049,2.73 c0.148,0.074,0.209,0.254,0.135,0.402C402.539,173.633,402.434,173.694,402.323,173.694z"/></g><g id="change1_38"><path fill="#f1f1f1" d="M403.97,261.22c-0.136,0-0.259-0.092-0.292-0.229l-7.426-30.926l-3.651-20.163 c-0.03-0.163,0.078-0.319,0.241-0.349c0.17-0.033,0.319,0.079,0.349,0.241l3.648,20.146l7.423,30.909 c0.038,0.161-0.061,0.323-0.222,0.362C404.017,261.217,403.992,261.22,403.97,261.22z"/></g><g id="change1_39"><path fill="#f1f1f1" d="M8.42,81.988h63.289c1.892,0,3.425,1.534,3.425,3.425v26.824c0,1.892-1.533,3.425-3.425,3.425h-4.603 l-0.26,8.704c-0.032,1.072-1.329,1.587-2.087,0.828l-9.532-9.532H8.42c-1.892,0-3.425-1.533-3.425-3.425V85.413 C4.995,83.521,6.529,81.988,8.42,81.988z"/></g><g id="change2_79"><path d="M65.616,125.855c-0.394,0-0.774-0.155-1.068-0.449l-9.444-9.444H8.42c-2.054,0-3.725-1.671-3.725-3.725V85.413 c0-2.054,1.671-3.725,3.725-3.725h63.289c2.055,0,3.726,1.671,3.726,3.725v26.824c0,2.054-1.671,3.725-3.726,3.725h-4.312 l-0.251,8.413c-0.019,0.618-0.387,1.143-0.961,1.371C65.999,125.819,65.806,125.855,65.616,125.855z M8.42,82.288 c-1.723,0-3.125,1.402-3.125,3.125v26.824c0,1.723,1.402,3.125,3.125,3.125h46.808c0.079,0,0.156,0.031,0.212,0.088l9.532,9.532 c0.316,0.316,0.721,0.312,0.993,0.205c0.272-0.108,0.568-0.383,0.582-0.831l0.26-8.704c0.005-0.162,0.138-0.291,0.3-0.291h4.603 c1.724,0,3.126-1.402,3.126-3.125V85.413c0-1.723-1.402-3.125-3.126-3.125H8.42z"/></g><g id="change1_40"><path fill="#f1f1f1" d="M40.53 90.546L12.251 90.546"/></g><g id="change2_80"><path d="M40.53,90.846H12.251c-0.166,0-0.3-0.134-0.3-0.3s0.134-0.3,0.3-0.3H40.53c0.166,0,0.3,0.134,0.3,0.3 S40.696,90.846,40.53,90.846z"/></g><g id="change1_41"><path fill="#f1f1f1" d="M67.693 97.43L12.251 97.43"/></g><g id="change2_81"><path d="M67.692,97.729H12.251c-0.166,0-0.3-0.134-0.3-0.3s0.134-0.3,0.3-0.3h55.441c0.166,0,0.3,0.134,0.3,0.3 S67.858,97.729,67.692,97.729z"/></g><g id="change1_42"><path fill="#f1f1f1" d="M67.693 105.43L12.251 105.43"/></g><g id="change2_82"><path d="M67.692,105.729H12.251c-0.166,0-0.3-0.134-0.3-0.3s0.134-0.3,0.3-0.3h55.441c0.166,0,0.3,0.134,0.3,0.3 S67.858,105.729,67.692,105.729z"/></g><g id="change1_43"><path fill="#f1f1f1" d="M435.379,42.414H392.09c-1.892,0-3.425,1.534-3.425,3.425v26.824c0,1.892,1.533,3.425,3.425,3.425h4.603 l0.26,8.704c0.032,1.072,1.329,1.587,2.087,0.828l9.532-9.532h26.807c1.892,0,3.425-1.533,3.425-3.425V45.839 C438.804,43.948,437.271,42.414,435.379,42.414z"/></g><g id="change2_83"><path d="M398.183,86.282c-0.189,0-0.383-0.036-0.57-0.111c-0.573-0.228-0.941-0.752-0.96-1.37l-0.251-8.413h-4.312 c-2.054,0-3.725-1.671-3.725-3.725V45.839c0-2.054,1.671-3.725,3.725-3.725h43.289c2.054,0,3.725,1.671,3.725,3.725v26.824 c0,2.054-1.671,3.725-3.725,3.725h-26.684l-9.443,9.444C398.958,86.126,398.576,86.282,398.183,86.282z M392.09,42.714 c-1.723,0-3.125,1.402-3.125,3.125v26.824c0,1.723,1.402,3.125,3.125,3.125h4.603c0.162,0,0.295,0.129,0.3,0.291l0.26,8.704 c0.014,0.447,0.31,0.722,0.582,0.83c0.271,0.109,0.676,0.111,0.994-0.206l9.531-9.531c0.056-0.057,0.133-0.088,0.212-0.088h26.808 c1.723,0,3.125-1.402,3.125-3.125V45.839c0-1.723-1.402-3.125-3.125-3.125H392.09z"/></g><g id="change3_14"><circle fill="#f1f1f1" r="3.558" cx="401.665" cy="59.464"/></g><g id="change2_84"><path d="M401.665,63.322c-2.128,0-3.858-1.73-3.858-3.858s1.73-3.858,3.858-3.858c2.127,0,3.857,1.73,3.857,3.858 S403.792,63.322,401.665,63.322z M401.665,56.206c-1.797,0-3.259,1.462-3.259,3.258s1.462,3.258,3.259,3.258 c1.796,0,3.258-1.462,3.258-3.258S403.461,56.206,401.665,56.206z"/></g><g id="change3_15"><circle fill="#f1f1f1" r="3.558" cx="414.083" cy="59.464"/></g><g id="change2_85"><path d="M414.083,63.322c-2.127,0-3.857-1.73-3.857-3.858s1.73-3.858,3.857-3.858c2.128,0,3.858,1.73,3.858,3.858 S416.211,63.322,414.083,63.322z M414.083,56.206c-1.796,0-3.258,1.462-3.258,3.258s1.462,3.258,3.258,3.258 c1.797,0,3.259-1.462,3.259-3.258S415.88,56.206,414.083,56.206z"/></g><g id="change3_16"><circle fill="#f1f1f1" r="3.558" cx="425.804" cy="59.464"/></g><g id="change2_86"><path d="M425.804,63.322c-2.127,0-3.857-1.73-3.857-3.858s1.73-3.858,3.857-3.858c2.128,0,3.858,1.73,3.858,3.858 S427.932,63.322,425.804,63.322z M425.804,56.206c-1.796,0-3.258,1.462-3.258,3.258s1.462,3.258,3.258,3.258 c1.797,0,3.259-1.462,3.259-3.258S427.601,56.206,425.804,56.206z"/></g><g id="change1_44"><path fill="#f1f1f1" d="M251.953,185.097L251.953,185.097c-3.715,0-6.727-3.012-6.727-6.727v-9.832h13.454v9.832 C258.68,182.085,255.668,185.097,251.953,185.097z"/></g><g id="change2_87"><path d="M251.953,185.397c-3.875,0-7.027-3.152-7.027-7.027v-9.832c0-0.166,0.134-0.3,0.3-0.3h13.454c0.166,0,0.3,0.134,0.3,0.3 v9.832C258.979,182.245,255.827,185.397,251.953,185.397z M245.525,168.838v9.532c0,3.544,2.884,6.428,6.428,6.428 s6.427-2.884,6.427-6.428v-9.532H245.525z"/></g><g id="change2_125"><path d="M252.114,165.653c-0.017,0-0.035-0.001-0.053-0.004c-0.163-0.029-0.271-0.185-0.242-0.348 c0.006-0.037,0.64-3.706-0.59-5.84c-1.569-2.724,0.962-5.237,0.988-5.262c0.117-0.116,0.307-0.113,0.424,0.005 c0.115,0.119,0.113,0.309-0.005,0.424c-0.092,0.089-2.222,2.216-0.888,4.532c1.339,2.326,0.688,6.086,0.66,6.246 C252.384,165.551,252.257,165.653,252.114,165.653z"/></g><g id="change2_88"><path d="M248.78,165.445c-0.05,0-0.101-0.013-0.147-0.039c-0.145-0.082-0.194-0.265-0.113-0.409 c0.008-0.014,0.742-1.344,0.096-2.635c-0.751-1.505-0.76-2.989-0.76-3.052c0-0.166,0.134-0.3,0.3-0.3l0,0 c0.165,0,0.3,0.134,0.3,0.299c0,0.014,0.011,1.411,0.697,2.784c0.792,1.584-0.074,3.135-0.111,3.201 C248.985,165.391,248.885,165.445,248.78,165.445z"/></g><g id="change2_124"><path d="M255.031,165.445c-0.05,0-0.102-0.013-0.148-0.04c-0.144-0.082-0.193-0.265-0.112-0.409 c0.008-0.013,0.743-1.343,0.097-2.635c-0.752-1.504-0.761-2.989-0.761-3.052c0-0.166,0.134-0.3,0.3-0.3l0,0 c0.165,0,0.3,0.134,0.3,0.299c0,0.014,0.011,1.411,0.698,2.784c0.792,1.584-0.075,3.135-0.112,3.201 C255.236,165.391,255.136,165.445,255.031,165.445z"/></g></g></svg>