<?xml version="1.0" encoding="UTF-8" standalone="no"?><svg xmlns="http://www.w3.org/2000/svg" xmlns:xlink="http://www.w3.org/1999/xlink" contentScriptType="text/ecmascript" fill="#3a3a3a" width="471.2" zoomAndPan="magnify" contentStyleType="text/css" viewBox="0.0 0.0 471.2 340.3" height="340.3" preserveAspectRatio="xMidYMid meet" version="1"><g><g id="change1_1"><path fill="#f1f1f1" d="M0.444 0.444H347.63V243.60899999999998H0.444z"/></g><g id="change2_1"><path d="M347.629,244.053H0.444c-0.245,0-0.444-0.199-0.444-0.444V0.444C0,0.199,0.199,0,0.444,0h347.185 c0.245,0,0.444,0.199,0.444,0.444v243.165C348.073,243.853,347.874,244.053,347.629,244.053z M0.888,243.165h346.298V0.888H0.888 V243.165z"/></g><g id="change3_1"><path fill="#f1f1f1" d="M0.444 0.444H347.63V24.759999999999998H0.444z"/></g><g id="change2_2"><path d="M347.629,25.204H0.444C0.199,25.204,0,25.005,0,24.761V0.444C0,0.199,0.199,0,0.444,0h347.185 c0.245,0,0.444,0.199,0.444,0.444v24.317C348.073,25.005,347.874,25.204,347.629,25.204z M0.888,24.317h346.298V0.888H0.888V24.317 z"/></g><g id="change1_2"><circle fill="#f1f1f1" r="4.053" cx="15.754" transform="rotate(-76.626 15.754 13.052)" cy="13.053"/></g><g id="change2_3"><path d="M15.754,17.549c-2.479,0-4.496-2.018-4.496-4.496c0-2.48,2.018-4.498,4.496-4.498s4.496,2.018,4.496,4.498 C20.25,15.532,18.232,17.549,15.754,17.549z M15.754,9.443c-1.991,0-3.609,1.619-3.609,3.61s1.618,3.609,3.609,3.609 s3.609-1.618,3.609-3.609S17.744,9.443,15.754,9.443z"/></g><g id="change4_1"><circle fill="#5c84f7" r="4.053" cx="31.515" transform="rotate(-76.626 31.515 13.052)" cy="13.053"/></g><g id="change2_4"><path d="M31.515,17.549c-2.479,0-4.496-2.018-4.496-4.496c0-2.48,2.018-4.498,4.496-4.498s4.496,2.018,4.496,4.498 C36.011,15.532,33.994,17.549,31.515,17.549z M31.515,9.443c-1.991,0-3.609,1.619-3.609,3.61s1.618,3.609,3.609,3.609 s3.609-1.618,3.609-3.609S33.506,9.443,31.515,9.443z"/></g><g id="change1_3"><circle fill="#f1f1f1" r="4.053" cx="47.275" transform="rotate(-76.626 47.276 13.052)" cy="13.053"/></g><g id="change2_5"><path d="M47.275,17.549c-2.479,0-4.496-2.018-4.496-4.496c0-2.48,2.018-4.498,4.496-4.498s4.496,2.018,4.496,4.498 C51.772,15.532,49.754,17.549,47.275,17.549z M47.275,9.443c-1.991,0-3.609,1.619-3.609,3.61s1.618,3.609,3.609,3.609 c1.991,0,3.609-1.618,3.609-3.609S49.266,9.443,47.275,9.443z"/></g><g id="change2_6"><path d="M282.247,71.811h-6.65c-0.245,0-0.444-0.199-0.444-0.444s0.199-0.444,0.444-0.444h6.65c0.245,0,0.444,0.199,0.444,0.444 S282.492,71.811,282.247,71.811z"/></g><g id="change2_7"><path d="M261.726,71.811h-13.869c-0.245,0-0.444-0.199-0.444-0.444s0.199-0.444,0.444-0.444h13.869 c0.245,0,0.444,0.199,0.444,0.444S261.971,71.811,261.726,71.811z M233.987,71.811h-13.869c-0.245,0-0.444-0.199-0.444-0.444 s0.199-0.444,0.444-0.444h13.869c0.245,0,0.444,0.199,0.444,0.444S234.232,71.811,233.987,71.811z M206.248,71.811h-13.869 c-0.245,0-0.444-0.199-0.444-0.444s0.199-0.444,0.444-0.444h13.869c0.245,0,0.444,0.199,0.444,0.444S206.492,71.811,206.248,71.811 z M178.508,71.811h-13.869c-0.245,0-0.444-0.199-0.444-0.444s0.199-0.444,0.444-0.444h13.869c0.245,0,0.444,0.199,0.444,0.444 S178.753,71.811,178.508,71.811z M150.77,71.811h-13.87c-0.245,0-0.444-0.199-0.444-0.444s0.199-0.444,0.444-0.444h13.87 c0.245,0,0.444,0.199,0.444,0.444S151.014,71.811,150.77,71.811z M123.03,71.811h-13.87c-0.245,0-0.444-0.199-0.444-0.444 s0.199-0.444,0.444-0.444h13.87c0.245,0,0.444,0.199,0.444,0.444S123.275,71.811,123.03,71.811z M95.291,71.811H81.42 c-0.245,0-0.444-0.199-0.444-0.444s0.199-0.444,0.444-0.444h13.87c0.245,0,0.444,0.199,0.444,0.444S95.535,71.811,95.291,71.811z M67.551,71.811h-13.87c-0.245,0-0.444-0.199-0.444-0.444s0.199-0.444,0.444-0.444h13.87c0.245,0,0.444,0.199,0.444,0.444 S67.796,71.811,67.551,71.811z"/></g><g id="change2_8"><path d="M33.161,78.461c-0.245,0-0.444-0.199-0.444-0.444v-6.65c0-0.245,0.199-0.444,0.444-0.444h6.65 c0.245,0,0.444,0.199,0.444,0.444s-0.199,0.444-0.444,0.444h-6.207v6.207C33.605,78.262,33.406,78.461,33.161,78.461z"/></g><g id="change2_9"><path d="M33.161,182.791c-0.245,0-0.444-0.199-0.444-0.444v-13.041c0-0.245,0.199-0.444,0.444-0.444s0.444,0.199,0.444,0.444 v13.041C33.605,182.592,33.406,182.791,33.161,182.791z M33.161,156.709c-0.245,0-0.444-0.199-0.444-0.444v-13.041 c0-0.245,0.199-0.444,0.444-0.444s0.444,0.199,0.444,0.444v13.041C33.605,156.51,33.406,156.709,33.161,156.709z M33.161,130.626 c-0.245,0-0.444-0.199-0.444-0.444v-13.041c0-0.245,0.199-0.444,0.444-0.444s0.444,0.199,0.444,0.444v13.041 C33.605,130.426,33.406,130.626,33.161,130.626z M33.161,104.543c-0.245,0-0.444-0.199-0.444-0.444V91.058 c0-0.245,0.199-0.444,0.444-0.444s0.444,0.199,0.444,0.444V104.1C33.605,104.344,33.406,104.543,33.161,104.543z"/></g><g id="change2_10"><path d="M39.812,202.484h-6.65c-0.245,0-0.444-0.199-0.444-0.444v-6.65c0-0.245,0.199-0.444,0.444-0.444s0.444,0.199,0.444,0.444 v6.207h6.207c0.245,0,0.444,0.199,0.444,0.444S40.056,202.484,39.812,202.484z"/></g><g id="change2_11"><path d="M71.479,202.484H55.646c-0.245,0-0.444-0.199-0.444-0.444s0.199-0.444,0.444-0.444h15.834c0.245,0,0.444,0.199,0.444,0.444 S71.724,202.484,71.479,202.484z"/></g><g id="change2_12"><path d="M93.964,202.484h-6.65c-0.245,0-0.444-0.199-0.444-0.444s0.199-0.444,0.444-0.444h6.65c0.245,0,0.444,0.199,0.444,0.444 S94.208,202.484,93.964,202.484z"/></g><g id="change3_2"><path fill="#f1f1f1" d="M54.221 295.867L53.985 306.322 53.734 317.271 53.223 339.674 39.699 339.674 39.699 295.867z"/></g><g id="change2_13"><path d="M53.223,340.118H39.699c-0.245,0-0.444-0.199-0.444-0.444v-43.807c0-0.245,0.199-0.444,0.444-0.444h14.522 c0.119,0,0.234,0.049,0.317,0.134c0.083,0.084,0.129,0.2,0.126,0.319l-0.998,43.807C53.66,339.926,53.465,340.118,53.223,340.118z M40.143,339.231H52.79l0.977-42.919H40.143V339.231z"/></g><g id="change3_3"><path fill="#f1f1f1" d="M165.473 296.156L165.473 339.674 151.945 339.674 151.724 330.008 151.184 306.322 150.951 296.156z"/></g><g id="change2_14"><path d="M165.473,340.118h-13.528c-0.241,0-0.437-0.193-0.443-0.434l-0.995-43.519c-0.003-0.119,0.042-0.234,0.126-0.319 c0.083-0.086,0.198-0.134,0.317-0.134h14.523c0.245,0,0.444,0.199,0.444,0.444v43.519 C165.917,339.919,165.718,340.118,165.473,340.118z M152.378,339.231h12.651v-42.632h-13.626L152.378,339.231z"/></g><g id="change3_4"><path fill="#f1f1f1" d="M448.396 296.156L448.396 339.674 434.868 339.674 434.647 330.008 434.107 306.322 433.874 296.156z"/></g><g id="change2_15"><path d="M448.396,340.118h-13.527c-0.241,0-0.437-0.193-0.443-0.434l-0.995-43.519c-0.003-0.119,0.042-0.234,0.126-0.319 s0.198-0.134,0.317-0.134h14.522c0.245,0,0.444,0.199,0.444,0.444v43.519C448.84,339.919,448.641,340.118,448.396,340.118z M435.302,339.231h12.65v-42.632h-13.625L435.302,339.231z"/></g><g id="change1_4"><path fill="#f1f1f1" d="M26.336 291.218H462.04900000000004V306.32300000000004H26.336z"/></g><g id="change2_16"><path d="M462.049,306.766H26.337c-0.245,0-0.444-0.199-0.444-0.444v-15.105c0-0.245,0.199-0.444,0.444-0.444h435.712 c0.245,0,0.444,0.199,0.444,0.444v15.105C462.493,306.567,462.293,306.766,462.049,306.766z M26.78,305.879h434.825v-14.218H26.78 V305.879z"/></g><g id="change3_5"><path fill="#f1f1f1" d="M142.707 245.678L135.981 291.079 169.051 291.079 175.776 245.678z"/></g><g id="change2_17"><path d="M169.051,291.523h-33.069c-0.129,0-0.251-0.056-0.336-0.154c-0.084-0.099-0.122-0.227-0.103-0.355l6.725-45.4 c0.032-0.218,0.219-0.379,0.438-0.379h33.069c0.129,0,0.251,0.056,0.336,0.154c0.084,0.098,0.122,0.227,0.103,0.355l-6.725,45.4 C169.457,291.361,169.271,291.523,169.051,291.523z M136.496,290.635h32.173l6.593-44.513h-32.173L136.496,290.635z"/></g><g id="change3_6"><path fill="#f1f1f1" d="M67.339,145.32l6.789,99.898c0.289,4.255,3.825,7.559,8.09,7.559h156.228c4.695,0,8.409-3.975,8.09-8.659 l-6.789-99.898c-0.289-4.255-3.825-7.559-8.09-7.559H75.429C70.735,136.661,67.021,140.636,67.339,145.32z"/></g><g id="change2_18"><path d="M238.447,253.222H82.218c-4.481,0-8.229-3.503-8.533-7.973l-6.789-99.898c-0.162-2.39,0.649-4.67,2.284-6.42 c1.636-1.749,3.855-2.714,6.249-2.714h156.228c4.481,0,8.229,3.503,8.533,7.973l6.789,99.898c0.162,2.39-0.649,4.67-2.284,6.42 C243.06,252.257,240.841,253.222,238.447,253.222z M67.782,145.29l6.789,99.898c0.272,4.007,3.632,7.146,7.647,7.146h156.228 c2.146,0,4.135-0.864,5.6-2.431c1.466-1.57,2.193-3.612,2.047-5.754l-6.789-99.898c-0.272-4.007-3.632-7.146-7.647-7.146H75.429 c-2.146,0-4.135,0.864-5.601,2.431C68.363,141.106,67.636,143.148,67.782,145.29z"/></g><g id="change3_7"><path fill="#f1f1f1" d="M92.262 284.353H129.535V291.079H92.262z"/></g><g id="change2_19"><path d="M129.536,291.523H92.262c-0.245,0-0.444-0.199-0.444-0.444v-6.726c0-0.245,0.199-0.444,0.444-0.444h37.274 c0.245,0,0.444,0.199,0.444,0.444v6.726C129.979,291.323,129.78,291.523,129.536,291.523z M92.706,290.635h36.386v-5.839H92.706 V290.635z"/></g><g id="change1_5"><path fill="#f1f1f1" d="M253.265,244.12l-0.751-11.053l-6.042-88.845c-0.286-4.26-3.822-7.561-8.088-7.561H82.157 c-4.697,0-8.408,3.974-8.094,8.66l5.969,87.746l0.824,12.152c0.286,4.254,3.823,7.561,8.088,7.561h58.876l-4.678,31.573h-15.569 v6.726h14.573h33.07h51.846v-6.726h-50.85l4.677-31.573h64.282C249.869,252.78,253.579,248.8,253.265,244.12z"/></g><g id="change2_20"><path d="M227.062,291.523h-99.488c-0.245,0-0.444-0.199-0.444-0.444v-6.726c0-0.245,0.199-0.444,0.444-0.444h15.188l4.546-30.685 H88.944c-4.482,0-8.23-3.504-8.532-7.975l-6.792-99.898c-0.16-2.392,0.653-4.673,2.289-6.423c1.634-1.747,3.853-2.71,6.247-2.71 h156.227c4.483,0,8.231,3.503,8.531,7.975l6.793,99.896c0,0,0,0,0,0.001c0.16,2.39-0.654,4.671-2.29,6.422 c-1.636,1.748-3.853,2.711-6.246,2.711h-63.9l-4.545,30.685h50.335c0.245,0,0.444,0.199,0.444,0.444v6.726 C227.505,291.323,227.306,291.523,227.062,291.523z M128.017,290.635h98.601v-5.839h-50.406c-0.129,0-0.251-0.056-0.336-0.154 c-0.084-0.099-0.122-0.227-0.103-0.355l4.677-31.572c0.032-0.218,0.219-0.379,0.438-0.379h64.282c2.144,0,4.132-0.863,5.597-2.43 c1.468-1.57,2.197-3.613,2.053-5.756l-6.793-99.898c-0.268-4.008-3.627-7.147-7.645-7.147H82.157c-2.145,0-4.134,0.863-5.599,2.429 c-1.467,1.568-2.195,3.613-2.051,5.757l6.792,99.896c0.27,4.009,3.628,7.148,7.646,7.148h58.877c0.129,0,0.251,0.056,0.336,0.154 c0.084,0.099,0.122,0.227,0.103,0.355l-4.678,31.572c-0.032,0.218-0.219,0.379-0.438,0.379h-15.126V290.635z"/></g><g id="change3_8"><path fill="#f1f1f1" d="M88.424,232.464l-5.395-79.947c-0.284-4.03,3.07-7.448,7.314-7.448h141.189 c3.855,0,7.051,2.839,7.309,6.503l5.461,80.892H88.424z"/></g><g id="change2_21"><path d="M244.303,232.908H88.424c-0.234,0-0.426-0.181-0.443-0.413l-5.395-79.947c-0.141-2.004,0.551-3.935,1.949-5.434 c1.473-1.581,3.59-2.489,5.808-2.489h141.189c4.073,0,7.479,3.038,7.751,6.916l5.461,80.893c0.008,0.123-0.035,0.244-0.119,0.333 C244.543,232.857,244.425,232.908,244.303,232.908z M88.838,232.02h154.99l-5.429-80.418c-0.239-3.415-3.256-6.09-6.866-6.09 H90.344c-1.972,0-3.853,0.803-5.16,2.206c-1.229,1.317-1.837,3.01-1.712,4.767L88.838,232.02z"/></g><g id="change3_9"><path fill="#f1f1f1" d="M232.098 155.049L146.16 155.049 150.423 213.964 236.362 213.964z"/></g><g id="change2_22"><path d="M236.362,214.408h-85.939c-0.233,0-0.425-0.18-0.443-0.411l-4.264-58.916c-0.009-0.123,0.035-0.245,0.118-0.334 c0.084-0.09,0.201-0.142,0.325-0.142h85.939c0.233,0,0.425,0.18,0.443,0.411l4.264,58.916c0.009,0.123-0.035,0.245-0.118,0.334 C236.602,214.356,236.485,214.408,236.362,214.408z M150.836,213.52h85.05l-4.2-58.028h-85.05L150.836,213.52z"/></g><g id="change4_2"><path fill="#5c84f7" d="M92.381 155.424L93.132 169.691 141.164 169.691 140.414 155.424z"/></g><g id="change2_23"><path d="M141.164,170.134H93.131c-0.236,0-0.431-0.185-0.443-0.42l-0.75-14.266c-0.006-0.122,0.038-0.24,0.121-0.329 c0.083-0.088,0.2-0.139,0.321-0.139h48.033c0.236,0,0.431,0.185,0.443,0.42l0.75,14.266c0.006,0.122-0.038,0.24-0.121,0.329 C141.402,170.083,141.285,170.134,141.164,170.134z M93.552,169.247h47.144l-0.704-13.379H92.849L93.552,169.247z"/></g><g id="change4_3"><path fill="#5c84f7" d="M93.507 174.562L93.882 179.44 141.915 179.44 141.539 174.562z"/></g><g id="change2_24"><path d="M141.914,179.884H93.883c-0.232,0-0.424-0.179-0.442-0.41l-0.376-4.877c-0.01-0.122,0.032-0.245,0.116-0.334 c0.084-0.091,0.202-0.143,0.326-0.143h48.033c0.232,0,0.424,0.179,0.442,0.41l0.375,4.877c0.01,0.122-0.032,0.245-0.116,0.334 C142.156,179.832,142.038,179.884,141.914,179.884z M94.293,178.996h47.143l-0.306-3.99H93.985L94.293,178.996z"/></g><g id="change4_4"><path fill="#5c84f7" d="M94.257 184.319L94.633 189.197 142.665 189.197 142.29 184.319z"/></g><g id="change2_25"><path d="M142.666,189.641H94.633c-0.232,0-0.424-0.179-0.442-0.41l-0.376-4.879c-0.01-0.122,0.032-0.245,0.116-0.334 c0.084-0.091,0.202-0.143,0.326-0.143h48.033c0.232,0,0.424,0.179,0.442,0.41l0.376,4.879c0.01,0.122-0.032,0.245-0.116,0.334 C142.907,189.589,142.789,189.641,142.666,189.641z M95.043,188.753h47.144l-0.307-3.991H94.735L95.043,188.753z"/></g><g id="change4_5"><path fill="#5c84f7" d="M95.008 194.075L95.383 198.954 143.416 198.954 143.04 194.075z"/></g><g id="change2_26"><path d="M143.416,199.398H95.383c-0.232,0-0.424-0.179-0.442-0.41l-0.375-4.879c-0.01-0.122,0.032-0.245,0.116-0.334 c0.084-0.091,0.202-0.143,0.326-0.143h48.032c0.232,0,0.424,0.179,0.442,0.41l0.376,4.879c0.01,0.122-0.032,0.245-0.116,0.334 C143.657,199.346,143.539,199.398,143.416,199.398z M95.793,198.51h47.144l-0.307-3.991H95.487L95.793,198.51z"/></g><g id="change4_6"><path fill="#5c84f7" d="M95.936 204.592L96.311 209.471 144.344 209.471 143.968 204.592z"/></g><g id="change2_27"><path d="M144.343,209.915H96.311c-0.232,0-0.424-0.179-0.442-0.41l-0.376-4.879c-0.01-0.122,0.032-0.245,0.116-0.334 c0.084-0.091,0.202-0.143,0.326-0.143h48.033c0.232,0,0.424,0.179,0.442,0.41l0.375,4.879c0.01,0.122-0.032,0.245-0.116,0.334 C144.585,209.863,144.467,209.915,144.343,209.915z M96.722,209.027h47.143l-0.306-3.991H96.414L96.722,209.027z"/></g><g id="change1_6"><path fill="#f1f1f1" d="M296.261,143.147c0,0-0.619,7.424,0.928,14.074c0,0-1.237,5.722-1.237,8.97s4.021,1.237,4.021,1.237 s4.335,15.774,21.346,7.423l4.144,32.434l33.627-7.492l-29.807-73.57l-32.434,4.144L296.261,143.147z"/></g><g id="change2_28"><path d="M325.462,207.729c-0.091,0-0.18-0.028-0.254-0.081c-0.103-0.071-0.17-0.183-0.185-0.306l-4.066-31.825 c-5.342,2.499-9.992,2.89-13.833,1.16c-4.867-2.192-6.885-7.073-7.423-8.643c-0.772,0.31-2.277,0.764-3.282,0.145 c-0.604-0.373-0.91-1.042-0.91-1.988c0-3.063,1.059-8.172,1.226-8.967c-1.493-6.515-0.94-13.811-0.917-14.105l0.588-12.773 c0.01-0.215,0.173-0.392,0.386-0.419l32.434-4.144c0.209-0.035,0.392,0.087,0.468,0.273l29.807,73.57 c0.049,0.121,0.042,0.258-0.018,0.372c-0.061,0.116-0.169,0.199-0.297,0.227l-33.627,7.493 C325.527,207.725,325.495,207.729,325.462,207.729z M321.319,174.408c0.073,0,0.145,0.018,0.21,0.053 c0.127,0.068,0.212,0.193,0.229,0.334l4.082,31.952l32.642-7.274L329,126.706l-31.726,4.054l-0.57,12.408 c0,0.005,0,0.011-0.001,0.016c-0.005,0.074-0.593,7.434,0.919,13.936c0.015,0.064,0.015,0.13,0.001,0.195 c-0.012,0.056-1.226,5.714-1.226,8.876c0,0.627,0.159,1.03,0.488,1.234c0.769,0.476,2.385-0.14,2.891-0.393 c0.117-0.06,0.255-0.063,0.379-0.009c0.12,0.054,0.211,0.159,0.247,0.287c0.017,0.062,1.758,6.163,7.094,8.562 c3.722,1.671,8.307,1.193,13.628-1.419C321.184,174.423,321.252,174.408,321.319,174.408z M296.26,143.147h0.011H296.26z"/></g><g id="change2_29"><path d="M325.414,185.445c0,0,36.16,3.931,44.655-15.01c2.379-5.305,6.39-16.001-5.004-22.713 c-3.777-2.225-12.682-6.562-12.571-12.223c0,0,15.965,4.862,19.242-10.762c0,0,2.768-15.681-15.177-16.637 c0,0-9.793-0.053-13.241,12.458c0,0-15.233-16.127-42.171,3.581c0,0-9.793-0.053-11.149,7.533c0,0-1.464,9.589,6.177,12.264 l0.232-8.262c0,0,13.071,15.69,23.148,17.838c0,0,3.139-6.504,7.349-4.064c1.187,0.688,1.887,1.975,1.953,3.346 c0.13,2.693-0.496,7.561-6.185,9.831c0,0,1.057,4.036,4.243,8.936C328.951,174.693,331.355,178.367,325.414,185.445z"/></g><g id="change2_30"><path d="M333.149,186.221c-4.597,0-7.729-0.33-7.782-0.337c-0.163-0.017-0.303-0.123-0.364-0.275 c-0.061-0.153-0.034-0.325,0.071-0.45c5.722-6.817,3.466-10.285,1.476-13.345c-3.195-4.916-4.264-8.909-4.307-9.077 c-0.057-0.216,0.056-0.442,0.264-0.524c5.431-2.167,6.031-6.819,5.906-9.399c-0.062-1.275-0.709-2.391-1.732-2.984 c-0.868-0.501-1.717-0.617-2.591-0.347c-2.429,0.744-4.12,4.187-4.136,4.221c-0.089,0.184-0.292,0.284-0.491,0.241 c-8.84-1.885-19.696-13.731-22.644-17.11l-0.2,7.113c-0.003,0.142-0.075,0.273-0.192,0.353c-0.117,0.081-0.265,0.098-0.397,0.054 c-7.896-2.766-6.484-12.65-6.469-12.75c1.312-7.343,10.167-7.869,11.438-7.906c13.995-10.198,24.811-10.621,31.431-9.175 c5.765,1.26,9.365,4.048,10.667,5.21c3.66-11.96,13.317-12.079,13.464-12.079c0.001,0,0.001,0,0.001,0 c5.821,0.31,10.114,2.168,12.78,5.524c3.951,4.972,2.878,11.364,2.831,11.634c-0.971,4.631-3.125,7.955-6.406,9.896 c-4.95,2.929-10.915,1.833-12.807,1.374c0.437,4.513,6.955,8.204,10.914,10.445c0.521,0.296,0.999,0.566,1.416,0.812 c12.36,7.282,6.959,19.32,5.184,23.277c-3.54,7.891-12.48,13.031-25.857,14.865C340.441,186.054,336.423,186.221,333.149,186.221z M326.287,185.076c5.413,0.425,35.82,2.03,43.377-14.824c2.942-6.555,5.642-15.983-4.824-22.149 c-0.412-0.244-0.887-0.512-1.403-0.804c-4.297-2.433-11.49-6.507-11.386-11.809c0.003-0.139,0.071-0.268,0.183-0.35 c0.113-0.083,0.258-0.108,0.39-0.066c0.07,0.021,7.194,2.126,12.697-1.132c3.056-1.809,5.068-4.937,5.983-9.297 c0.009-0.048,1.045-6.267-2.66-10.922c-2.501-3.143-6.575-4.887-12.107-5.182c0,0,0,0-0.001,0c-0.382,0-9.48,0.13-12.789,12.134 c-0.042,0.154-0.165,0.273-0.32,0.312c-0.155,0.039-0.318-0.009-0.43-0.124c-0.149-0.159-15.301-15.597-41.587,3.635 c-0.077,0.055-0.181,0.11-0.264,0.086h-0.001c-0.163,0-9.44,0.068-10.708,7.167c-0.053,0.355-1.244,8.767,5.315,11.546l0.214-7.634 c0.004-0.185,0.123-0.346,0.298-0.407c0.173-0.061,0.367-0.006,0.486,0.135c0.128,0.154,12.803,15.256,22.571,17.613 c0.509-0.936,2.155-3.646,4.509-4.369c1.113-0.34,2.22-0.197,3.297,0.429c1.285,0.745,2.098,2.13,2.174,3.707 c0.134,2.756-0.492,7.679-6.089,10.11c0.34,1.095,1.516,4.5,4.075,8.438C329.283,174.388,331.745,178.173,326.287,185.076z"/></g><g id="change4_7"><path fill="#5c84f7" d="M349.041,134.085c0,0-6.228-4.3-5.438-11.433c0,0-4.527,3.624-1.978,8.548 C341.624,131.2,343.833,134.539,349.041,134.085z"/></g><g id="change2_31"><path d="M348.069,134.571c-4.689,0-6.725-2.99-6.815-3.126c-2.708-5.227,2.024-9.1,2.072-9.139c0.141-0.111,0.337-0.128,0.49-0.042 c0.158,0.087,0.247,0.259,0.227,0.437c-0.75,6.776,5.19,10.978,5.25,11.019c0.154,0.106,0.224,0.298,0.176,0.478 c-0.049,0.181-0.203,0.312-0.39,0.328C348.73,134.557,348.392,134.571,348.069,134.571z M343.09,123.777 c-1.104,1.255-2.782,3.916-1.072,7.22c0.055,0.078,1.789,2.588,5.814,2.684C346.187,132.228,343.029,128.778,343.09,123.777z"/></g><g id="change1_7"><path fill="#f1f1f1" d="M231.659,213.641c0,0-43.835-7.566-52.755-24.172c0,0-8.451,18.665-11.119,24.905 c-0.254,0.594-0.716,2.139-0.716,2.139s-5.518,17.566,60.134,34.886L231.659,213.641z"/></g><g id="change2_32"><path d="M227.202,251.843c-0.038,0-0.076-0.005-0.113-0.015c-41.519-10.953-55.068-22.011-59.121-29.359 c-2.038-3.693-1.353-5.993-1.323-6.09c0.017-0.057,0.47-1.57,0.731-2.18c2.64-6.172,11.04-24.726,11.124-24.913 c0.069-0.154,0.22-0.254,0.389-0.26c0.186-0.028,0.325,0.084,0.406,0.233c8.715,16.226,52.003,23.87,52.439,23.944 c0.232,0.04,0.392,0.255,0.365,0.489l-4.456,37.758c-0.015,0.128-0.084,0.242-0.192,0.315 C227.378,251.816,227.29,251.843,227.202,251.843z M178.951,190.442c-1.639,3.623-8.435,18.674-10.758,24.106 c-0.242,0.564-0.694,2.076-0.699,2.091c-0.007,0.024-0.596,2.11,1.302,5.492c7.609,13.565,39.393,23.762,58.027,28.708 l4.347-36.836c-2.115-0.389-12.023-2.298-22.681-5.8C192.943,203.095,183.013,197.123,178.951,190.442z"/></g><g id="change2_33"><path d="M183.656,169.691l-4.456,37.758c0,0-8.624,1.375-11.844,8.173l4.456-37.758C171.811,177.864,173.7,172.105,183.656,169.691 z"/></g><g id="change2_34"><path d="M167.355,216.066c-0.04,0-0.082-0.006-0.122-0.017c-0.209-0.061-0.343-0.263-0.318-0.478l4.456-37.758 c0.1-0.331,2.101-6.107,12.181-8.552c0.142-0.037,0.29,0.002,0.399,0.099c0.108,0.096,0.162,0.24,0.146,0.384l-4.456,37.758 c-0.024,0.197-0.174,0.354-0.37,0.385c-0.084,0.014-8.435,1.423-11.515,7.926C167.68,215.97,167.522,216.066,167.355,216.066z M183.14,170.279c-9.068,2.411-10.889,7.669-10.908,7.723l-4.189,35.568c3.358-4.751,9.272-6.201,10.755-6.498L183.14,170.279z"/></g><g id="change1_8"><path fill="#f1f1f1" d="M219.968,261.996l-11.821,13.322l-23.266-23.266l-4.503-11.258l-0.938-8.068l16.324,8.443 c0,0,0.751,1.501,2.814,1.313c0,0,2.252-1.501,1.876-7.505c0,0-4.691-8.818-0.938-12.946l9.381,12.383 c0,0,3.377,9.757,2.627,19.138l4.698,4.698L219.968,261.996z"/></g><g id="change2_35"><path d="M208.147,275.762c-0.117,0-0.231-0.047-0.314-0.13l-23.266-23.266c-0.042-0.043-0.076-0.093-0.097-0.149l-4.503-11.258 c-0.015-0.036-0.025-0.075-0.029-0.114l-0.938-8.067c-0.018-0.162,0.054-0.323,0.188-0.416c0.134-0.093,0.309-0.104,0.456-0.029 l16.324,8.443c0.083,0.043,0.152,0.111,0.193,0.196c0.024,0.045,0.621,1.171,2.247,1.079c0.36-0.331,1.896-2.044,1.61-6.951 c-0.513-0.995-4.585-9.233-0.829-13.366c0.089-0.099,0.202-0.152,0.347-0.145c0.132,0.005,0.254,0.07,0.333,0.175l9.381,12.384 c0.029,0.037,0.051,0.078,0.066,0.122c0.034,0.097,3.35,9.809,2.666,19.114l8.299,8.298c0.166,0.167,0.173,0.433,0.017,0.608 l-11.82,13.323c-0.081,0.091-0.196,0.145-0.318,0.148C208.156,275.762,208.152,275.762,208.147,275.762z M185.259,251.804 l22.869,22.869l11.23-12.658l-8.147-8.147c-0.091-0.092-0.139-0.22-0.128-0.35c0.701-8.781-2.294-18.026-2.583-18.892 l-8.995-11.874c-2.852,4.014,1.297,11.937,1.341,12.019c0.029,0.055,0.047,0.117,0.051,0.18c0.386,6.188-1.972,7.835-2.073,7.902 c-0.062,0.041-0.132,0.066-0.206,0.073c-1.96,0.191-2.908-1.004-3.172-1.42l-15.47-8l0.836,7.18L185.259,251.804z"/></g><g id="change4_8"><path fill="#5c84f7" d="M203.081,275.693l16.136-16.324l37.525,16.324l39.965-62.48c0,0,12.008-16.511,59.665-23.266 c0,0,25.142-0.751,30.771,46.156l3.002,103.57H280.947l3.377-27.018c0,0-11.815,13.335-20.264,9.006 C246.298,312.562,203.081,275.693,203.081,275.693z"/></g><g id="change2_36"><path d="M390.146,340.118h-109.2c-0.127,0-0.248-0.055-0.332-0.15s-0.123-0.222-0.107-0.349l3.208-25.667 c-3.008,3.083-12.512,11.863-19.857,8.104c-17.605-9.02-60.631-45.657-61.064-46.026c-0.093-0.08-0.149-0.196-0.155-0.319 c-0.005-0.122,0.041-0.242,0.128-0.33l16.136-16.323c0.129-0.129,0.327-0.165,0.491-0.095l37.179,16.173l39.761-62.162 c0.51-0.701,12.677-16.76,59.978-23.466c0.255-0.002,25.66-0.219,31.273,46.543l3.005,103.61c0.004,0.12-0.041,0.236-0.124,0.321 C390.381,340.07,390.266,340.118,390.146,340.118z M281.448,339.231h108.241l-2.989-103.113 c-2.881-23.99-10.984-35.156-17.276-40.291c-6.799-5.55-12.999-5.432-13.039-5.436c-24.502,3.477-39.36,9.592-47.502,14.112 c-8.772,4.868-11.789,8.932-11.818,8.972l-39.949,62.458c-0.118,0.183-0.352,0.252-0.55,0.168l-37.248-16.202l-15.586,15.767 c4.227,3.586,43.876,37.071,60.53,45.602c8.044,4.127,19.614-8.774,19.729-8.905c0.129-0.145,0.338-0.192,0.515-0.109 c0.176,0.08,0.281,0.266,0.257,0.459L281.448,339.231z"/></g><g id="change2_37"><path d="M307.416,254.351l-25.531,85.511H385.83l24.038-80.511c1.673-5.605-2.525-11.239-8.374-11.239h-85.706 C311.926,248.112,308.521,250.649,307.416,254.351z"/></g><g id="change2_38"><path d="M385.83,340.306H281.885c-0.14,0-0.272-0.067-0.355-0.179c-0.084-0.113-0.109-0.258-0.069-0.392l25.531-85.511 c1.152-3.86,4.77-6.556,8.798-6.556h85.705c2.929,0,5.613,1.348,7.364,3.697c1.75,2.35,2.273,5.306,1.434,8.113l-24.038,80.511 C386.2,340.177,386.026,340.306,385.83,340.306z M282.48,339.418H385.5l23.943-80.194c0.757-2.536,0.284-5.208-1.297-7.329 c-1.581-2.123-4.006-3.339-6.653-3.339H315.79c-3.639,0-6.908,2.435-7.949,5.922l0,0L282.48,339.418z M307.416,254.351h0.011 H307.416z"/></g><g id="change1_9"><path fill="#f1f1f1" d="M322.051,254.351l-25.531,85.511h103.946l24.038-80.511c1.673-5.605-2.525-11.239-8.374-11.239h-85.706 C326.561,248.112,323.156,250.649,322.051,254.351z"/></g><g id="change2_39"><path d="M400.465,340.306H296.52c-0.14,0-0.272-0.067-0.355-0.179c-0.084-0.113-0.11-0.258-0.069-0.392l25.53-85.511 c1.152-3.86,4.77-6.556,8.798-6.556h85.706c2.929,0,5.613,1.348,7.364,3.698c1.749,2.349,2.273,5.306,1.434,8.112l-24.039,80.511 C400.834,340.177,400.661,340.306,400.465,340.306z M297.115,339.418h103.019l23.944-80.194c0.757-2.535,0.284-5.206-1.297-7.329 c-1.581-2.123-4.006-3.339-6.653-3.339h-85.706c-3.639,0-6.908,2.435-7.949,5.922L297.115,339.418z M322.05,254.351h0.011H322.05z"/></g><g id="change4_9"><circle fill="#5c84f7" r="19.044" cx="33.466" transform="rotate(-23.205 33.47 154.078)" cy="154.06"/></g><g id="change2_40"><path d="M33.466,173.548c-0.006,0-0.011,0-0.016,0c-5.205-0.005-10.098-2.037-13.775-5.721s-5.7-8.579-5.696-13.784 c0.005-5.205,2.036-10.098,5.721-13.775c3.679-3.673,8.567-5.696,13.765-5.696c0.006,0,0.013,0,0.018,0 c5.205,0.004,10.098,2.036,13.775,5.72c3.677,3.685,5.7,8.579,5.696,13.785C52.943,164.816,44.202,173.548,33.466,173.548z M33.464,135.461c-4.962,0-9.627,1.93-13.14,5.436c-3.516,3.509-5.454,8.179-5.459,13.147c-0.005,4.968,1.926,9.641,5.436,13.157 c3.509,3.517,8.179,5.455,13.147,5.46c0.005,0,0.011,0,0.016,0c10.248,0,18.592-8.333,18.6-18.583h0.444h-0.444 c0.005-4.969-1.926-9.642-5.436-13.158c-3.509-3.517-8.179-5.455-13.147-5.459C33.476,135.461,33.471,135.461,33.464,135.461z"/></g><g id="change1_10"><path fill="#f1f1f1" d="M31.569,161.096c-0.289,0.277-0.746,0.272-1.029-0.011l-7.366-7.379c-0.654-0.655-0.653-1.717,0.002-2.372 l0,0c0.655-0.654,1.717-0.653,2.372,0.002l5.551,5.561l10.311-9.904c0.668-0.642,1.729-0.62,2.371,0.048h0 c0.642,0.668,0.62,1.729-0.048,2.371L31.569,161.096z"/></g><g id="change2_41"><path d="M31.06,161.741c-0.303,0-0.606-0.114-0.835-0.342l-7.366-7.38c-0.825-0.828-0.824-2.172,0.003-2.998 c0.4-0.399,0.932-0.62,1.498-0.62c0,0,0.001,0,0.002,0c0.566,0.001,1.099,0.222,1.498,0.623l5.244,5.252l9.996-9.602 c0.409-0.394,0.923-0.646,1.512-0.591c0.566,0.011,1.094,0.242,1.486,0.651c0.811,0.844,0.783,2.189-0.06,2.998l-12.164,11.684 c0,0,0,0.001-0.001,0.001C31.649,161.633,31.355,161.741,31.06,161.741z M31.569,161.096h0.011H31.569z M24.361,151.287 c-0.329,0-0.639,0.129-0.872,0.362c-0.481,0.481-0.482,1.263-0.001,1.745l7.366,7.379c0.115,0.115,0.294,0.114,0.409,0.003 l12.163-11.684c0.238-0.228,0.372-0.535,0.379-0.865c0.006-0.329-0.116-0.642-0.344-0.879c-0.227-0.238-0.535-0.372-0.865-0.379 c-0.386-0.014-0.642,0.116-0.879,0.343l-10.31,9.904c-0.176,0.169-0.451,0.165-0.621-0.007l-5.552-5.56 c-0.233-0.233-0.542-0.362-0.871-0.363H24.361z"/></g><g id="change4_10"><circle fill="#5c84f7" r="19.044" cx="284.018" transform="rotate(-23.205 284.05 73.026)" cy="73.018"/></g><g id="change2_42"><path d="M284.017,92.506c-0.007,0-0.011,0-0.016,0c-10.745-0.011-19.479-8.76-19.471-19.504c0.005-5.205,2.037-10.098,5.721-13.775 c3.679-3.673,8.567-5.696,13.765-5.696c0.007,0,0.013,0,0.018,0c5.205,0.004,10.098,2.036,13.775,5.72 c3.677,3.685,5.7,8.579,5.696,13.785C303.495,83.774,294.755,92.506,284.017,92.506z M284.016,54.418 c-4.962,0-9.627,1.93-13.139,5.436c-3.517,3.509-5.455,8.179-5.46,13.147c-0.009,10.256,8.328,18.608,18.583,18.617 c0.005,0,0.011,0,0.016,0c10.25,0.001,18.593-8.333,18.6-18.583l0,0c0.005-4.969-1.926-9.642-5.436-13.158 c-3.509-3.517-8.179-5.455-13.147-5.459C284.028,54.418,284.022,54.418,284.016,54.418z"/></g><g id="change1_11"><path fill="#f1f1f1" d="M282.121,80.053c-0.289,0.277-0.746,0.272-1.029-0.011l-7.366-7.379c-0.654-0.655-0.653-1.717,0.002-2.372 l0,0c0.655-0.654,1.717-0.653,2.372,0.002l5.551,5.561l10.311-9.904c0.668-0.642,1.729-0.62,2.371,0.048h0 c0.642,0.668,0.62,1.729-0.048,2.371L282.121,80.053z"/></g><g id="change2_43"><path d="M281.612,80.7c-0.303,0-0.606-0.116-0.833-0.344l-7.367-7.379c-0.825-0.828-0.824-2.172,0.003-2.998 c0.4-0.399,0.932-0.62,1.498-0.62c0,0,0.001,0,0.002,0c0.566,0.001,1.099,0.222,1.498,0.623l5.244,5.252l9.996-9.602 c0.409-0.394,0.922-0.644,1.512-0.591c0.566,0.011,1.094,0.242,1.486,0.651c0.811,0.844,0.783,2.189-0.06,2.998l-12.164,11.684 c0,0,0,0.001-0.001,0.001C282.201,80.59,281.906,80.7,281.612,80.7z M282.121,80.053h0.011H282.121z M274.913,70.244 c-0.329,0-0.639,0.129-0.872,0.362c-0.481,0.481-0.482,1.263-0.001,1.745l7.367,7.379c0.114,0.114,0.292,0.115,0.408,0.003 l12.163-11.684c0.238-0.228,0.372-0.535,0.379-0.865c0.007-0.329-0.116-0.642-0.344-0.879c-0.227-0.238-0.535-0.372-0.865-0.379 c-0.364-0.029-0.642,0.116-0.879,0.343l-10.31,9.904c-0.175,0.169-0.45,0.165-0.621-0.007l-5.552-5.56 c-0.233-0.233-0.542-0.362-0.871-0.363H274.913z"/></g><g id="change2_44"><path d="M470.719,340.32H0.548c-0.245,0-0.444-0.199-0.444-0.444s0.199-0.444,0.444-0.444h470.171c0.245,0,0.444,0.199,0.444,0.444 S470.964,340.32,470.719,340.32z"/></g><g id="change1_12"><path fill="#f1f1f1" d="M204.333,38.284l-85.814,0.007c-2.039-0.122-3.776,1.464-3.84,3.506l-0.337,10.802l-9.209-0.199 c-2.354-0.051-4.267,1.888-4.184,4.241l1.805,51.069c0.216,6.118,5.068,11.058,11.181,11.385l82.381-0.834 c5.409,0.289,9.982-3.96,10.09-9.376l1.335-66.909C207.78,40.03,206.276,38.401,204.333,38.284z"/></g><g id="change2_45"><path d="M113.94,119.538c-6.414-0.343-11.401-5.421-11.627-11.814l-1.805-51.069c-0.045-1.261,0.419-2.451,1.305-3.349 c0.885-0.898,2.036-1.364,3.331-1.351l8.771,0.191l0.323-10.363c0.035-1.108,0.504-2.131,1.324-2.878 c0.818-0.747,1.873-1.13,2.986-1.056l85.787-0.008c0.009,0,0.017,0.001,0.026,0.001c2.189,0.131,3.869,1.949,3.825,4.141 l-1.335,66.909c-0.055,2.741-1.192,5.277-3.2,7.143s-4.628,2.813-7.358,2.667L113.94,119.538z M105.041,52.841 c-0.984,0-1.904,0.384-2.598,1.088c-0.713,0.723-1.087,1.681-1.051,2.696l1.805,51.069c0.21,5.93,4.836,10.64,10.762,10.957 l82.352-0.836c2.523,0.144,4.906-0.728,6.736-2.43c1.83-1.701,2.865-4.013,2.915-6.511l1.335-66.909 c0.035-1.71-1.272-3.129-2.977-3.238l-85.801,0.006c-0.893-0.052-1.722,0.24-2.362,0.825c-0.641,0.585-1.009,1.384-1.036,2.251 l-0.336,10.802c-0.006,0.239-0.203,0.43-0.443,0.43c-0.003,0-0.006,0-0.01-0.001l-9.21-0.2 C105.096,52.841,105.069,52.841,105.041,52.841z"/></g><g id="change3_10"><path fill="#f1f1f1" d="M100.95,56.64l1.805,51.069c0.081,2.287,0.81,4.409,2.011,6.188c9.245,2.133,9.485-12.236,9.485-12.236 l0.092-49.063l-9.209-0.2C102.78,52.348,100.867,54.287,100.95,56.64z"/></g><g id="change2_46"><path d="M106.558,114.588c-0.606,0-1.239-0.076-1.9-0.228c-0.117-0.027-0.22-0.097-0.287-0.197 c-1.287-1.907-2.01-4.133-2.091-6.436l-1.805-51.069c-0.045-1.271,0.422-2.469,1.314-3.374c0.893-0.905,2.1-1.382,3.354-1.361 l9.211,0.2c0.259,0.005,0.465,0.218,0.464,0.476l-0.093,49.062c-0.005,0.347-0.186,8.392-4.313,11.62 C109.301,114.152,108.009,114.588,106.558,114.588z M105.055,113.473c1.863,0.39,3.472,0.074,4.77-0.94 c3.77-2.946,3.948-10.802,3.95-10.881l0.092-48.589l-8.745-0.191c-0.983,0.019-1.948,0.363-2.656,1.078 c-0.707,0.717-1.077,1.666-1.041,2.671l0,0l1.805,51.069C103.304,109.755,103.934,111.749,105.055,113.473z"/></g><g id="change3_11"><path fill="#f1f1f1" d="M107.609 84.638L114.283 84.787 114.288 82.106 107.669 81.959z"/></g><g id="change2_47"><path d="M114.283,85.262c-0.003,0-0.006,0-0.011,0l-6.673-0.148c-0.262-0.005-0.471-0.223-0.464-0.486l0.06-2.68 c0.002-0.126,0.055-0.246,0.146-0.333c0.091-0.087,0.209-0.114,0.34-0.131l6.618,0.147c0.259,0.005,0.465,0.218,0.464,0.476 l-0.004,2.681c0,0.128-0.052,0.25-0.143,0.339C114.527,85.214,114.408,85.262,114.283,85.262z M108.096,84.174l5.712,0.127 l0.003-1.73l-5.677-0.127L108.096,84.174z"/></g><g id="change3_12"><path fill="#f1f1f1" d="M107.474 90.721L114.271 90.872 114.276 88.191 107.534 88.041z"/></g><g id="change2_48"><path d="M114.271,91.347c-0.003,0-0.008,0-0.011,0l-6.797-0.152c-0.262-0.005-0.471-0.223-0.464-0.486l0.06-2.679 c0.005-0.259,0.218-0.464,0.475-0.464c0.003,0,0.007,0,0.011,0l6.742,0.149c0.259,0.005,0.465,0.218,0.464,0.476l-0.005,2.681 c0,0.128-0.052,0.25-0.143,0.339C114.515,91.3,114.396,91.347,114.271,91.347z M107.961,90.256l5.836,0.13l0.003-1.73l-5.802-0.129 L107.961,90.256z"/></g><g id="change3_13"><path fill="#f1f1f1" d="M107.745 78.53L114.294 78.675 114.299 75.994 107.805 75.85z"/></g><g id="change2_49"><path d="M114.294,79.151c-0.003,0-0.008,0-0.011,0l-6.549-0.146c-0.262-0.005-0.471-0.223-0.464-0.486l0.06-2.679 c0.005-0.259,0.218-0.464,0.475-0.464c0.003,0,0.007,0,0.011,0l6.495,0.144c0.259,0.005,0.465,0.218,0.464,0.476l-0.005,2.681 c0,0.128-0.052,0.25-0.143,0.339C114.537,79.103,114.418,79.151,114.294,79.151z M108.231,78.065l5.589,0.124l0.003-1.73 l-5.554-0.123L108.231,78.065z"/></g><g id="change3_14"><path fill="#f1f1f1" d="M108.017 66.312L114.317 66.452 114.322 63.772 108.077 63.633z"/></g><g id="change2_50"><path d="M114.317,66.928c-0.003,0-0.008,0-0.011,0l-6.3-0.141c-0.262-0.005-0.471-0.223-0.464-0.486l0.06-2.679 c0.005-0.259,0.218-0.464,0.475-0.464c0.003,0,0.007,0,0.011,0l6.246,0.139c0.259,0.005,0.465,0.218,0.464,0.476l-0.005,2.681 c0,0.128-0.052,0.25-0.143,0.339C114.56,66.88,114.441,66.928,114.317,66.928z M108.503,65.848l5.34,0.119l0.003-1.73l-5.305-0.118 L108.503,65.848z"/></g><g id="change3_15"><path fill="#f1f1f1" d="M107.338 96.83L114.26 96.984 114.265 94.303 107.398 94.15z"/></g><g id="change2_51"><path d="M114.259,97.459c-0.003,0-0.007,0-0.011,0l-6.921-0.154c-0.126-0.002-0.246-0.055-0.332-0.146 c-0.088-0.092-0.135-0.213-0.132-0.34l0.06-2.68c0.002-0.126,0.055-0.246,0.146-0.333c0.091-0.087,0.229-0.126,0.34-0.131 l6.867,0.153c0.259,0.005,0.465,0.218,0.464,0.476l-0.005,2.681c0,0.128-0.052,0.25-0.143,0.339 C114.503,97.411,114.384,97.459,114.259,97.459z M107.824,96.366l5.961,0.132l0.003-1.73l-5.926-0.132L107.824,96.366z"/></g><g id="change3_16"><path fill="#f1f1f1" d="M107.881 72.421L114.306 72.564 114.311 69.883 107.941 69.741z"/></g><g id="change2_52"><path d="M114.306,73.039c-0.003,0-0.006,0-0.011,0l-6.424-0.143c-0.262-0.005-0.471-0.223-0.464-0.486l0.06-2.68 c0.002-0.126,0.055-0.246,0.146-0.333c0.091-0.087,0.231-0.118,0.34-0.131l6.37,0.142c0.259,0.005,0.465,0.218,0.464,0.476 l-0.005,2.681c0,0.128-0.052,0.25-0.143,0.339C114.549,72.992,114.43,73.039,114.306,73.039z M108.368,71.957l5.464,0.121 l0.003-1.73l-5.429-0.121L108.368,71.957z"/></g><g id="change4_11"><path fill="#5c84f7" d="M173.386,61.101l-50.65-0.636c-0.191-0.003-0.347,0.15-0.35,0.34l-0.214,17.097 c-0.003,0.19,0.15,0.347,0.34,0.349l50.65,0.637c0.191,0.002,0.347-0.15,0.35-0.341l0.043-3.396l0.172-13.701 C173.73,61.26,173.576,61.103,173.386,61.101z"/></g><g id="change2_53"><path d="M173.166,79.364c-0.003,0-0.006,0-0.01,0l-50.651-0.636c-0.219-0.002-0.423-0.091-0.577-0.248 c-0.154-0.158-0.236-0.366-0.232-0.585l0.214-17.096c0.002-0.219,0.09-0.424,0.248-0.577c0.158-0.155,0.392-0.242,0.585-0.232 l50.648,0.635c0.452,0.004,0.816,0.378,0.811,0.83l-0.214,17.097C173.98,79.003,173.612,79.364,173.166,79.364z M122.649,77.778 l50.389,0.633l0.211-16.836l-50.389-0.632L122.649,77.778z M173.381,61.576h0.011H173.381z M173.38,61.576c0,0,0,0,0.001,0 C173.381,61.576,173.381,61.576,173.38,61.576L173.38,61.576z M122.729,60.941L122.729,60.941L122.729,60.941L122.729,60.941z"/></g><g id="change1_13"><path fill="#f1f1f1" d="M121.948,81.829l-0.211,16.81c-0.004,0.27,0.212,0.492,0.483,0.495l60.923,0.765l0.246-17.787 l-60.946-0.766C122.174,81.343,121.952,81.56,121.948,81.829z"/></g><g id="change2_54"><path d="M183.144,100.342c-0.002,0-0.003,0-0.005,0l-60.924-0.765c-0.25-0.003-0.484-0.104-0.657-0.283 c-0.174-0.179-0.267-0.415-0.264-0.664l0.211-16.808c0.007-0.514,0.417-0.935,0.944-0.921l60.946,0.766 c0.118,0.002,0.231,0.05,0.312,0.134c0.082,0.084,0.128,0.198,0.127,0.316l-0.246,17.787 C183.584,100.148,183.387,100.342,183.144,100.342z M122.438,81.79l-0.045,0.044l-0.211,16.81l60.525,0.805l0.234-16.9 L122.438,81.79z M121.949,81.829h0.011H121.949z"/></g><g id="change1_14"><path fill="#f1f1f1" d="M199.487,82.314l-13.686-0.172l-0.255,17.787l13.717,0.172c0.269,0.003,0.492-0.212,0.495-0.483 l0.211-16.81C199.974,82.54,199.758,82.317,199.487,82.314z"/></g><g id="change2_55"><path d="M199.271,100.546c-0.004,0-0.008,0-0.012,0l-13.718-0.172c-0.118-0.002-0.231-0.05-0.312-0.134 c-0.082-0.084-0.128-0.198-0.127-0.316l0.254-17.788c0.004-0.245,0.162-0.42,0.449-0.437l13.685,0.172 c0.249,0.003,0.482,0.103,0.656,0.281s0.268,0.413,0.266,0.662l-0.211,16.81c-0.003,0.249-0.104,0.482-0.283,0.656 C199.745,100.452,199.515,100.546,199.271,100.546z M185.996,99.493l13.274,0.166l0.257-16.855l-0.045-0.045l-13.242-0.167 L185.996,99.493z"/></g><g id="change2_56"><path d="M199.993,62.649l-23.447-0.295c-0.223-0.003-0.407,0.176-0.409,0.399c-0.003,0.223,0.176,0.406,0.399,0.409l23.447,0.295 c0.223,0.003,0.407-0.176,0.409-0.399C200.395,62.835,200.216,62.651,199.993,62.649z"/></g><g id="change2_57"><path d="M199.963,65.074l-23.447-0.295c-0.223-0.003-0.407,0.176-0.409,0.399c-0.003,0.223,0.176,0.407,0.399,0.409l23.447,0.295 c0.223,0.003,0.407-0.176,0.409-0.399S200.186,65.077,199.963,65.074z"/></g><g id="change2_58"><path d="M199.932,67.5l-23.447-0.295c-0.223-0.003-0.407,0.176-0.409,0.399c-0.003,0.223,0.176,0.407,0.399,0.409l23.447,0.295 c0.223,0.003,0.407-0.176,0.409-0.399C200.334,67.686,200.155,67.502,199.932,67.5z"/></g><g id="change2_59"><path d="M199.902,69.925l-23.447-0.295c-0.223-0.003-0.407,0.176-0.409,0.399c-0.003,0.223,0.176,0.407,0.399,0.409l23.447,0.295 c0.223,0.003,0.407-0.176,0.409-0.399C200.304,70.111,200.125,69.928,199.902,69.925z"/></g><g id="change2_60"><path d="M199.871,72.351l-23.447-0.295c-0.223-0.003-0.407,0.176-0.409,0.399c-0.003,0.223,0.176,0.406,0.399,0.409l23.447,0.295 c0.223,0.003,0.407-0.176,0.409-0.399C200.273,72.537,200.094,72.354,199.871,72.351z"/></g><g id="change2_61"><path d="M199.841,74.776l-23.447-0.295c-0.223-0.003-0.407,0.176-0.409,0.399c-0.003,0.223,0.176,0.407,0.399,0.409l23.447,0.295 c0.223,0.003,0.407-0.176,0.409-0.399C200.243,74.962,200.064,74.779,199.841,74.776z"/></g><g id="change2_62"><path d="M199.81,77.202l-23.447-0.295c-0.223-0.003-0.407,0.176-0.409,0.399c-0.003,0.223,0.176,0.407,0.399,0.409L199.8,78.01 c0.223,0.003,0.407-0.176,0.409-0.399C200.212,77.388,200.033,77.205,199.81,77.202z"/></g><g id="change1_15"><path fill="#f1f1f1" d="M146.737,75.666l-9.631-5.905l-14.935,8.141c-0.003,0.19,0.15,0.347,0.34,0.349l50.65,0.637 c0.191,0.002,0.347-0.15,0.35-0.341l0.043-3.396l-9.8-10.226L146.737,75.666z"/></g><g id="change2_63"><path d="M173.166,79.332c-0.003,0-0.006,0-0.01,0l-50.65-0.636c-0.21-0.003-0.408-0.088-0.555-0.239 c-0.147-0.152-0.226-0.351-0.223-0.562c0.003-0.159,0.092-0.305,0.232-0.382l14.934-8.141c0.139-0.075,0.31-0.07,0.444,0.012 l9.396,5.761l16.784-10.593c0.181-0.114,0.411-0.083,0.557,0.068l9.8,10.226c0.08,0.083,0.124,0.196,0.123,0.312l-0.042,3.396 C173.949,78.985,173.595,79.332,173.166,79.332z M123.253,77.818l49.818,0.626l0.038-3.116l-9.424-9.833l-16.712,10.546 c-0.143,0.092-0.324,0.091-0.469,0.003l-9.412-5.77L123.253,77.818z"/></g><g id="change1_16"><path fill="#f1f1f1" d="M147.592,63.886c-1.473,0.091-2.593,1.358-2.502,2.831c0.091,1.473,1.358,2.593,2.831,2.502 c1.473-0.091,2.593-1.358,2.502-2.831C150.333,64.916,149.065,63.795,147.592,63.886z"/></g><g id="change2_64"><path d="M147.755,69.667c-1.631,0-3.006-1.273-3.108-2.923c-0.106-1.715,1.204-3.195,2.918-3.301l0,0 c0.831-0.053,1.63,0.224,2.254,0.775c0.623,0.551,0.995,1.312,1.047,2.143c0.051,0.83-0.224,1.63-0.775,2.254 c-0.551,0.623-1.312,0.995-2.142,1.047C147.884,69.666,147.819,69.667,147.755,69.667z M147.62,64.329 c-0.594,0.037-1.139,0.302-1.533,0.748c-0.394,0.446-0.591,1.02-0.554,1.614c0.075,1.224,1.101,2.175,2.362,2.086 c0.593-0.037,1.138-0.302,1.532-0.748c0.394-0.446,0.591-1.019,0.554-1.613c-0.037-0.594-0.302-1.139-0.748-1.533 C148.787,64.489,148.216,64.289,147.62,64.329L147.62,64.329z M147.593,63.886h0.011H147.593z"/></g><g id="change2_65"><path d="M198.901,105.441c-0.002,0-0.004,0-0.008,0l-77.742-1.237c-0.245-0.004-0.439-0.206-0.436-0.451 c0.004-0.241,0.202-0.436,0.444-0.436c0.002,0,0.004,0,0.008,0l77.742,1.237c0.245,0.004,0.439,0.206,0.436,0.451 C199.341,105.246,199.142,105.441,198.901,105.441z"/></g><g id="change2_66"><path d="M198.901,109.307c-0.002,0-0.004,0-0.008,0l-77.742-1.237c-0.245-0.004-0.439-0.206-0.436-0.451 c0.004-0.241,0.202-0.436,0.444-0.436c0.002,0,0.004,0,0.008,0l77.742,1.237c0.245,0.004,0.439,0.206,0.436,0.451 C199.341,109.112,199.142,109.307,198.901,109.307z"/></g><g id="change1_17"><path fill="#f1f1f1" d="M122.649 44.846L122.649 57.155 200.577 58.186 200.763 45.56z"/></g><g id="change2_67"><path d="M200.577,58.63c-0.002,0-0.004,0-0.005,0l-77.927-1.032c-0.244-0.003-0.438-0.201-0.438-0.444V44.846 c0-0.118,0.048-0.232,0.132-0.315c0.083-0.082,0.167-0.123,0.316-0.129l78.114,0.714c0.118,0.001,0.231,0.05,0.313,0.134 s0.128,0.198,0.127,0.316l-0.186,12.625C201.016,58.435,200.819,58.63,200.577,58.63z M123.093,56.717l77.046,1.02L200.313,46 l-77.22-0.707V56.717z"/></g></g></svg>